<mxfile host="65bd71144e">
    <diagram id="ODGF4-6E2nYocB5qLmVr" name="Page-1">
        <mxGraphModel dx="1628" dy="977" grid="0" gridSize="10" guides="1" tooltips="1" connect="1" arrows="1" fold="1" page="1" pageScale="1" pageWidth="827" pageHeight="1169" background="#FFFFFF" math="0" shadow="0">
            <root>
                <mxCell id="0"/>
                <mxCell id="1" parent="0"/>
                <mxCell id="2" value="AWS Cloud" style="points=[[0,0],[0.25,0],[0.5,0],[0.75,0],[1,0],[1,0.25],[1,0.5],[1,0.75],[1,1],[0.75,1],[0.5,1],[0.25,1],[0,1],[0,0.75],[0,0.5],[0,0.25]];outlineConnect=0;gradientColor=none;html=1;whiteSpace=wrap;fontSize=12;fontStyle=0;container=1;pointerEvents=0;collapsible=0;recursiveResize=0;shape=mxgraph.aws4.group;grIcon=mxgraph.aws4.group_aws_cloud_alt;strokeColor=#232F3E;fillColor=none;verticalAlign=top;align=left;spacingLeft=30;fontColor=#232F3E;dashed=0;" vertex="1" parent="1">
                    <mxGeometry x="163" y="77" width="395" height="498" as="geometry"/>
                </mxCell>
                <mxCell id="3" value="" style="sketch=0;points=[[0,0,0],[0.25,0,0],[0.5,0,0],[0.75,0,0],[1,0,0],[0,1,0],[0.25,1,0],[0.5,1,0],[0.75,1,0],[1,1,0],[0,0.25,0],[0,0.5,0],[0,0.75,0],[1,0.25,0],[1,0.5,0],[1,0.75,0]];outlineConnect=0;fontColor=#232F3E;gradientColor=#60A337;gradientDirection=north;fillColor=#277116;strokeColor=#ffffff;dashed=0;verticalLabelPosition=bottom;verticalAlign=top;align=center;html=1;fontSize=12;fontStyle=0;aspect=fixed;shape=mxgraph.aws4.resourceIcon;resIcon=mxgraph.aws4.s3;" vertex="1" parent="2">
                    <mxGeometry x="61" y="107" width="64" height="64" as="geometry"/>
                </mxCell>
                <mxCell id="5" value="Athena&lt;br&gt;(SQL Engine)" style="sketch=0;points=[[0,0,0],[0.25,0,0],[0.5,0,0],[0.75,0,0],[1,0,0],[0,1,0],[0.25,1,0],[0.5,1,0],[0.75,1,0],[1,1,0],[0,0.25,0],[0,0.5,0],[0,0.75,0],[1,0.25,0],[1,0.5,0],[1,0.75,0]];outlineConnect=0;fontColor=#000000;gradientColor=#945DF2;gradientDirection=north;fillColor=#5A30B5;strokeColor=#ffffff;dashed=0;verticalLabelPosition=bottom;verticalAlign=top;align=center;html=1;fontSize=12;fontStyle=1;aspect=fixed;shape=mxgraph.aws4.resourceIcon;resIcon=mxgraph.aws4.athena;" vertex="1" parent="2">
                    <mxGeometry x="276" y="118" width="67" height="67" as="geometry"/>
                </mxCell>
                <mxCell id="4" value="&lt;b&gt;&lt;font color=&quot;#000000&quot;&gt;ETL Jobs&lt;/font&gt;&lt;/b&gt;" style="sketch=0;points=[[0,0,0],[0.25,0,0],[0.5,0,0],[0.75,0,0],[1,0,0],[0,1,0],[0.25,1,0],[0.5,1,0],[0.75,1,0],[1,1,0],[0,0.25,0],[0,0.5,0],[0,0.75,0],[1,0.25,0],[1,0.5,0],[1,0.75,0]];outlineConnect=0;fontColor=#232F3E;gradientColor=#945DF2;gradientDirection=north;fillColor=#5A30B5;strokeColor=#ffffff;dashed=0;verticalLabelPosition=bottom;verticalAlign=top;align=center;html=1;fontSize=12;fontStyle=0;aspect=fixed;shape=mxgraph.aws4.resourceIcon;resIcon=mxgraph.aws4.glue;" vertex="1" parent="2">
                    <mxGeometry x="160" y="17" width="64" height="64" as="geometry"/>
                </mxCell>
                <mxCell id="6" value="&lt;b&gt;&lt;font color=&quot;#000000&quot;&gt;Raw/Processed Data&lt;/font&gt;&lt;/b&gt;" style="text;html=1;strokeColor=none;fillColor=none;align=center;verticalAlign=middle;whiteSpace=wrap;rounded=0;" vertex="1" parent="2">
                    <mxGeometry x="63" y="188" width="60" height="30" as="geometry"/>
                </mxCell>
                <mxCell id="12" value="" style="shape=image;verticalLabelPosition=bottom;labelBackgroundColor=#ffffff;verticalAlign=top;aspect=fixed;imageAspect=0;image=data:image/jpeg,/9j/4AAQSkZJRgABAQAAAQABAAD/2wBDAAUDBAQEAwUEBAQFBQUGBwwIBwcHBw8LCwkMEQ8SEhEPERETFhwXExQaFRERGCEYGh0dHx8fExciJCIeJBweHx7/2wBDAQUFBQcGBw4ICA4eFBEUHh4eHh4eHh4eHh4eHh4eHh4eHh4eHh4eHh4eHh4eHh4eHh4eHh4eHh4eHh4eHh4eHh7/wgARCASwCJgDASIAAhEBAxEB/8QAHAABAAEFAQEAAAAAAAAAAAAAAAcBAgMFBgQI/8QAGgEBAQADAQEAAAAAAAAAAAAAAAEEBQYDAv/aAAwDAQACEAMQAAABmUAAAAAAAAAAAAAAAAAAAAAAAAAAAAAAAAAAAAAAAAAAAAAAAAAAAAAAAAAAAAAAAAAAAAAAAAAAAAAAAAAAAAAAAAAAAAAAAAAAAAAAAACjxfP1m8vKctrdxKqLL/L2lGkX0qUMkT7GfMpX6Dd7XTZB6eQAAAAAAAAAAAAAAAAAAAAAAAAAAAAAAAAAAAAAAAAAAAAAAAAAAAAAAAAAAAAAAAAAAAAAAAAAAAAAAAAAAAAAAAAAAAAAAAAAAAAAAAAAAAAAAAAAAAAAAAAAAAAAAAAAAxRg4j18fqOhtLtXuqKkoqqlt9Jff3MabfLwJTu1O133LVH38AAAAAAAAAAAAAAAAAAAAAAAAAAAAAAAAAAAAAAAAAAAAAAAAAAAAAAAAAAAAAAAAAAAAAAAAAAAAAAAAAAAAAAAAAAAAAAAAAAAAAAAAAAAAAAAAAAAAAAAAAAAAAAAAAOf3Ef4ew0/kpfz/VVFAAAUsyUl6Tu4f73Z6TrVl+458KAAAAAAAAAAAAAAAAAAAAAAAAAAAAAAAAAAAAAAAAAAAAAAAAAAAAAAAAAAAAAAAAAAAAAAAAAAAAAAAAAAAAAAAAAAAAAAAAAAAAAAAAAAAAAAAAAAAAAAAAAAAAAAAGKNDH/T8bz/AFWS4xNgFAAAKVFux16/Ms+/he46LkbxkYoAAAAAAAAAAAAAAAAAAAAAAAAAAAAAAAAAAAAAAAAAAAAAAAAAAAAAAAAAAAAAAAAAAAAAAAAAAAAAAAAAAAAAAAAAAAAAAAAAAAAAAAAAAAAAAAAAAAAAAAAAAAAAADW7LQePvxWouc32FRPsAAAABZfSX2SHF/S5utkV5/RvuXCwAAAAAAAAAAAAAAAAAAAAAAAAAAAAAAAAAAAAAAAAAAAAAAAAAAAAAAAAAAAAAAAAAAAAAAAAAAAAAAAAAAAAAAAAAAAAAAAAAAAAAAAAAAAAAAAAAAAAAAAAAAAAAC3lOm4jD2HH5ceTnurqPqAAAAAAW+jDjJH6SNu+33LewZuuAAAAAAAAAAAAAAAAAAAAAAAAAAAAAAAAAAAAAAAAAAAAAAAAAAAAAAAAAAAAAAAAAAAAAAAAAAAAAAAAAAAAAAAAAAAAAAAAAAAAAAAAAAAAAAAAAAAAAAAAAAAAAA8ced/GOr3nivtu0+/CwAAAAABSopIEebr3xJRrrth0PJVH38gAAAAAAAAAAAAAAAAAAAAAAAAAAAAAAAAAAAAAAAAAAAAAAAAAAAAAAAAAAAAAAAAAAAAAAAAAAAAAAAAAAAAAAAAAAAAAAAAAAAAAAAAAAAAAAAAAAAAAAAAAAAChq4rkyMdF0l1aVwNsFAAFqW5StgAAFLb7Ze466J5I3fN7QbHUAAAAAAAAAAAAAAAAAAAAAAAAAAAAAAAAAAAAAAAAAAAAAAAAAAAAAAAAAAAAAAAAAAAAAAAAAAAAAAAAAAAAAAAAAAAAAAAAAAAAAAAAAAAAAAAAAAAAAAAAAAAALL8MvL8F1nJ891l1aVxc0KAW1s+b7sPUWZuBytaMPPqLAAFKi3reS9Hp4S9k0246PkKj08wAAAAAAAAAABQqt8/zfU0/g88jpnH2eXr2bkPV9fPTNXsPbGyD7+AAAAAAAAAAAAAAAAAAAAAAAAAAAAAAAAAAAAAAAAAAAAAAAAAAAAAAAAAAAAAAAAAAAAAAAAAAAAAAAAAAAAAAAAAAAAAAAAAAAAAAAAAHn9Hi+PuO9N6/JzXZ1qfHoABTFls+bIe38G96Lkor1vecHpeiuUr45QAAFKXWy9J38Sd7ttF0o22hAAAAAAAAKWxewa349Nvj5fVY+b2Ot5Hx4mf0/g5vFh7Dd+HyXeHux5q/PrZ6vPbfndbzhs3viy57I/7jd816Bk4gAAAAAAAAAAAAAAAAAAAAAAAAAAAAAAAAAAAAAAAAAAAAAAAAAAAAAAAAAAAAAAAAAAAAAAAAAAAAAAAAAAAAAAAAAAAAAAAAAAAAAAADVbTn/H3jqy+zmezqKAAp6vHvPvz7fca/YdHx3gj2T+Yxc6PMl2PRdPcKAAAs6DQX/XnLfs5Tquj5Co9vAAAAWlzHj+fr0WeDT+fv0vm4rWYef2+o5fz4mfufHq2JnenzXXefriuyJaVLAoABZfSXJK0Vyrs9J7huefAAAAAAAAAAAAAAAAAAAAAAAAAAAAAAAAAAAAAAAAAAAAAAAAAAAAAAAAAAAAAAAAAAAAAAAAAAAAAAAAAAAAAAAAAAAAAAAAAAAAAAAAt47r49w9jztDn+pqKAAxdTyva+2L2Hpx5Oj5F4/Ysjfm5J4LQdV5q2X4eeFAAMeSku4kCJu42Wn7JjybnnC2xcryYPj79+PQ6fwy+v8HC+LD2PY6XS48PP9/n89cfKrZkrPrHdcAsAAAAAAUrQ9EpxZKe00fuG30IAAAAAAAAAAAAAAAAAAAAAAAAAAAAAAAAAAAAAAAAAAAAAAAAAAAAAAAAAAAAAAAAAAAAAAAAAAAAAAAAAAAAAAAAAAAAAAAAAAAAAAAGKL5Li7VbvwXWX6joAsAFpj7/hpBy9f046DlQMPASLpMXOi+71+PnuruCgAAW7DwUsk72RzftdH3Gr4azGyuk03lY+bdSjx9qLqrbWpAoAAAAAAAABStD0SnFErbPSe8bjQAAAAAAAAAAAAAAAAAAAAAAAAAAAAAAAAAAAAAAAAAAAAAAAAAAAAAAAAAAAAAAAAAAAAAAAAAAAAAAAAAAAAAAAAAAAAAAAAAAAAAAAChqY37rgdJ0eC627XbgLAFl+P5uxkHiJB2+h2A22iAY8iOC5OWI30nTa+ttdftaiwABSotVS0XLKVAAAAAAAAAAAAABRbL6ZU4nvNzz3oGz0oAAAAAAAAAAAAAAAAAAAAAAAAAAAAAAAAAAAAAAAAAAAAAAAAAAAAAAAAAAAAAAAAAAAAAAAAAAAAAAAAAAAAAAAAAAAAAAAAAAAAAAClaHFcd0XM85111aVxswKAYsuL5+umkHhu+3vL1Gw1YAGPk+w8XhkxG3Gl5zrrxPsAAAAAAAAAAApSW6lK2VUqAAAAC2KbDzdvkYu03FmToOTD08wAAAAAAAAAAAAAAAAAAAAAAAAAAAAAAAAAAAAAAAAAAAAAAAAAAAAAAAAAAAAAAAAAAAAAAAAAAAAAAAAAAAAAAAAAAAAAAAAAAAAAAGLLr/j74DRbbU8z2WQfPqABRT0HWdtzHT9DyQZWEAAtuHMx/LXCajf85djv1W8qLAAAAAABQqtpLdRWLa3ev6+fG6LY++LyNew5ivBW27GywoAAUKVt3t+Pd22DY9DygZOGAAAAAAAAAAAAAAAAAAAAAAAAAAAAAAAAAAAAAAAAAAAAAAAAAAAAAAAAAAAAAAAAAAAAAAAAAAAAAAAAAAAAAAAAAAAAAAAAAAAAAAAA0255rxyOJ1/p8/NdhcH0ABZsNftb8d7ufD7um40PTyAAAc90ODz9Ym8nVcrzfX3qV+PYAAApSLllVUvuTFd6dn6eWkv63Z5GHxu36j25uBzvt312Vga/Nn5v6nj467zaHp7q0r45IAAFLa+kzd/5Ol3XN3DY6kAAAAAAAAAAAAAAAAAAAAAAAAAAAAAAAAAAAAAAAAAAAAAAAAAAAAAAAAAAAAAAAAAAAAAAAAAAAAAAAAAAAAAAAAAAAAAAAAAAAAAAAphlz2+HweXtuOKu5vX7fx1pdqd6FgAFm70vSeuPIOW27peOCwAAADSx9K/D6zc8hfSmm6K6lKFy24tZ8r58mTabjIxuW9Pb+7KweQ3O/8ARm67U+nYsjE8+er08gsUrrPn78/AerSaLp1yuFsQsAAW1pLf2fg7faaTNmNvz4UAAAAAAAAAAAAAAAAAAAAAAAAAAAAAAAAAAAAAAAAAAAAAAAAAAAAAAAAAAAAAAAAAAAAAAAAAAAAAAAAAAAAAAAAAAAAAAAAAAAAW2S5bfD4PP23Hm5vTYud2Gp47Bg7PeanFTEzrqK+frUWAAKVtjJ2HI9/na7pK0rveWCgAAAGt2Vnx9xVrO+53Q9Tp/Rvt39fPGe/uc+Vr+a220yZuv8Of0PXwtuPv4AAAGKMXD7HitRv8daXaveBYAAotlruvJ3mZr/VtKXb7lw+vgAAAAAAAAAAAAAAAAAAAAAAAAAAAAAAAAAAAAAAAAAAAAAAAAAAAAAAAAAAAAAAAAAAAAAAAAAAAAAAAAAAAAAAAAAAAAAAAAAAttlyW+XX+frt/Lz2pxs3p9dx3i1+16XS+W7Ezba3vP2ouVSpYAAAAtutl9MkxzKO00ftG40AAAAAAGPF6Xz9YMl5A+oAAAAAKFvPevg8DaebxUv0XTVFAAC0ZsfWenh7+rx5ug5MPfwAAAAAAAAAAAAAAAAAAAAAAAAAAAAAAAAAAAAAAAAAAAAAAAAAAAAAAAAAAAAAAAAAAAAAAAAAAAAAAAAAAAAAAAAAAAAAAAAGOMlPN4fj12nn5zV42Z0+s5fWYG06jUajJiZ9rK8ci26q/NKgFAAAAAALVJdxJnB9/vOayDYakAAAAAAAAAAAAAB4PRxeNl+Dnbq8/1ap8+gAAoKU21+fb3Xm22/5aoy8AAAAAAAAAAAAAAAAAAAAAAAAAAAAAAAAAAAAAAAAAAAAAAAAAAAAAAAAAAAAAAAAAAAAAAAAAAAAAAAAAAAAAAAAAAAAAAAAt83z9enDp9Fj5nUarl/BgbToNZpaYWx9PmyX+ORhyXALAAAAAAAClst9LLii/OnlzbjdZGHl6zxe7fc1Ue2MAAAAAAAAAAAAAx3895+vk4fP4uf6utxj5QUAAsrljP3Xi6zc89debLTBQAAAAAAAAAAAAAAAAAAAAAAAAAAAAAAAAAAAAAAAAAAAAAAAAAAAAAAAAAAAAAAAAAAAAAAAAAAAAAAAAAAAAAAAAAAAAADBj5bwytpzmn1+o3+w8Fl+HsMWS98/VKlgAAAAAAAti6lhbrcuVPPk2u5yMXlth1/sy8Dndlv8APnazV7DIyMQPv4AAAAAAAAAAAAAHh+frzcJ7eZ0nS0vVwNoFgAC2tst3WeHvNhqM3pN3zgWAAAAAAAAAAAAAAAAAAAAAAAAAAAAAAAAAAAAAAAAAAAAAAAAAAAAAAAAAAAAAAAAAAAAAAAAAAAAAAAAAAAAAAAAAAAAAAPLl5LwyfJy1lnP9XS+tfL3CwAAAAAUKqCtLaS323+i/PjybHb+vhz3r6/Z5mv5bdbn05+s1nr9LIxA+/MAAAAAAAAAAAAAAAWRj4738Jq95jtpfqN8FAAKVslbXzdxlYPt3Nt+/5YPvzAAAAAAAAAAAAAAAAAAAAAAAAAAAAAAAAAAAAAAAAAAAAAAAAAAAAAAAAAAAAAAAAAAAAAAAAAAAAAAAAAAAAAAAAAAAAAAGONZG/V8No+nuvpXA2gWAAAAAKUtlvtelPLdtPf6+Gl9fV7nN13G73e5s7W6/1epkYdl59+YUAAAAAAAAAAAAAAAABTSevgMLY+LwVu0PUKigAChTJj6b78ff12L2dByoZGKAAAAAAAAAAAAAAAAAAAAAAAAAAAAAAAAAAAAAAAAAAAAAAAAAAAAAAAAAAAAAAAAAAAAAAAAAAAAAAAAAAAAAAAAAAAAAAA83p8fx9x5o/b4+b7KtTz9QAAAAFFIz7D0dhn6zlNt1GTP1Wt9nprlYOPIffmFAAAAAAAAAAAAAAAAAAAPJl5LwyfDy+TDz/WXVPL1CgAKW12CejvvJvt7zFRna0AAAAAAAAAAAAAAAAAAAAAAAAAAAAAAAAAAAAAAAAAAAAACnnw8Gd5WKbiW8/F9iXgAAAUr5SlkdeAlRFglO+KfUSll4zqD1gAAAAt83k4AkekV2kwZeY6UuAAAAAs8ugOh88f6glG6JbyYPTEvZHWqVAAGPJoTY0jPzks+nhu3LgC0x+bScESx6odkQ6MAAC27VnotjPzkqIsEposEpeiIe2OvAAA8fs83z9xZ4t/z3NdjepXy9goAAABStI3G74h740nbOMdvsdV3+Tldzm6zYsOX2x6iwAAAAAAAAAAAAAAAAAADUR1Ikd6foNfksv1e7CwABStsuTteN7zO1nSXm95cKAAAAAAAAAAAAAAAAAAAAAAAAAAAAAAAAAAAAAAAAAAAAAUr4TmIY7Tgqw191q9lMcCzvJ7AAAANTtedIH8Hupb4bNrmNL6Nh5jbSHD3RH0Bk0G/kAAAY8moORh/qOarBi2ViybJkPS7J6gAAANXfGZ7ON1PgrN49j6l01vRYDUyhwMjknXW3SAAI+kCKiNfN7MlsjShxvaSVAwZ/ERxEUm8BWGc4rmZekEgADluo4wgumT026+3cXmkpvLDUzHwcsHWiQABjyI47hJUjfR9N5q2X4G0CgAAAAKKoxW56T69G15+z08u+3MZ7HO1clZ+F3uw1W/eL1ZOHePr5AAAAAAAAAAAAAAAAAw8P32ixc2MbvZ4ed6y8WgAKVFnV8p7PTxljPo950fIB6eQAAAAAAAAAAAAAAAAAAAAAAAAAAAAAAAAAAAAAAAAAAAAFvIdJEJyWHBt7fDbtdWeuffnycJOoUqAAAW8V2caEY0em3q+zw97JwEdz7ExH+fDdbLcgxtJMgAAGPguuhU52/BtrdfTY6w3k7fOv0Em2EAAMWXlzmYz2OmqmzxyQus6TqNlJxvn7uhFHRdNWvdUgACyF5fhM5P2eLZ2zlv8AwbCQBq9poyHuY9nit62YIwlqPaEAAxR93sWkbery7i3s+i93UycPTuRx3Re8AAAAYON7nW42XE7eaLn+svW3fH2FAAAAAAAWY86Wnu8GO/PVb2PPVl4Mm+2Neg2Gp7Bp/fma70qV9PMAAAAAAAAAAAAAABiypY95eTY90PUeWtl+FsgsAAY8lkvYdpE0kbnntwNnpQAAAAAAAAAAAAAAAAAAAAAAAABQqxeE2VOb152GHhPGSFjjfASci6pKueLfaSZdwW1Opa33GRSoAAAAAAAAAtu8hzcK9XxVO25OV10/AzHEaeaW4hkVZWusvkAAAwwzMUDGh2+n2tsy9NGuyk6iIdzwFeb2a/o1kfudLupAAFl+uOMibec7WTu+TmJeD4eU4xS6dILl072tt0AAWRVIkPHJXY/Xb3Uoaro5KgAAAAA0sNSpEJpt3p/bbN/oia6SV0UCV9Dw3iOdxenHbJMqR1JMgAAHghiYICNd0Wh91sv7iI80kq5Ik95LufS7oAAAAW3DQcVKGjwNpGld5pdL0Zjv+PSqlbAAAAAAAALbMqXF6MdkbXfcZlycWR9jFnRZ+r72/wAfs2ekD6+QAAAAAAAAAAAAAMUeyNosTPjOufz891dwoABSox9hyPq9PCWs2q2vSceH38AAAAAAAAAAAAAAAAAAAAAAAKY9IbnTcryR23P8HZW91XnLfS2pWttRWgupShk2mmEgdPDHrSf9nDvcR1rBnAAAAAAAAKcd08OnK+W7Jb0sxxX30mWFpTiytX1vI79Z+y+T1yAAChq4EmmEq8d9tFyPPQz4c+3NZJnlkiT2XgABSOe0hY0OK31W9bMMY9dJrYokmOTwSPG/XWzbkw5pAAObh6W4dNV0HP8AWWzJsfB75AAAAAAOCieRotq+zJtV0bpBzbpBzeXfakwenybok3ueY6eQAAWmi+fpvhGq237FdO6Why+59e3JW2/m9MgAAAACy9Gr5TvvLjZsW+CRud1G+5y72eHFzrq47p9XKVsAAAAAAAKWxXHl2t+fD0uz3210l3qtptdJdj1Ouvz1V3l9QAAAAAAAAAAAAAwZ6Sx3zMnxxoepw1pXC2AUABSl1svXdxEslbrnNoNlpwAAAAAAAAAAAAAAAAAAAABQeDzcGbrhtDr6yY8lVtrcKVAAAABSottyUMe61GImDtPnmRIlFrdkgAAAAAA8hysRdTxNL7bV2np5+1Og1fkyrbt9VsCdd1yXWyAAKVtOHiOQo3p0WjllecpK6SNOj6rIef2AAAtu1JyEW7/lKyZMdF3OTn7U3mv8uVbd1pvefQ3q025kAA5iHZwh85fc6XLb9EbXhO0kzgLPOetjyAADFl15F8c9xxNZ5fiqeV8jo0nOOjHKQ3Pnz5Xl6flezWW9v5PXIAAx5MJH0USBHteqReGl9fRb0lJOb9G8FagAAAAAABZ5fa+frmNFIODFz4s8MjaDV7nmK7DXYmfdWys+rlK2AAAChW2iWnp9XT++J4Oo93p3fO25LNbk4Pr5rScLWw2kZShbKHtxZZAAAAAAAAAAAAAAPPwch6LEz4xvzYOe6u4UAApUU6/jtj640r36vadHyIffwAAAAAAAAAAAAAAAAAAAKDQosPVxmG623JUAAAAAAAAAKVGH14sZJ8h/PEnxIzBnQAAAABxfURMcnr7L7dtvd728kVpVEV6mauJIxz4sVstyLD8vyVAAsv8AOQzxnScvWym2F57NmIAAAAt4DrIfOawY89u62/WdTJFKVRFfPzrGJw3s8uW2auujqRJKgAwxRLvIkE5tlp7ekkiFNyTpdEd0kjcnyekr6L2Gp20AANHvOVIu5fa6mutmaMpTj1gUraczBkvRBXnkDhpNWTriQAB5fVriFeZ2Hgt3cpw7u0mGkSIlv0Q72h3624AAAAAAAAAt8/qfP1zei7/BjZsW+GRtLq91yLZeDE2FK20+fq9SthS2K0e+zyb/AGHU7HUa3eXttorsHk5D08ttwWp5mvVgrevllWMJaJHEgAAAAAAAAAAAAADy+pLHXLyXH+g6rCsvw88KAApVjl7XtYrkHd83tRsdQAAAAAAAAAAAAAAAAAAA0vqiw8fFX32rgAAAAAAAAAAAAxbXXYicuugeYZNyAAABSuA5KHJO4GtDus/cr1288/pkoqLeQ7HREAePrvHbs5tiOVo9gQBptzzxDGg7bXWp5i6VZMoAAAGPJ4ziofkfkq0PWeSSl6Xa2XyUVFsbSVyJCOLqPLb0cvxNLEl4AGHMI6jT6F5Ahvyd9oLearu7zTdJ6O2O32GDPIAA4buOJIVwdEt7qRuU6+S4DHkxkVxtJfKVqpd4eUZegCAAOd6HlyDvP0+G3nsHUjk6ddQ5iX+OlOOkupVAAAAAAAAAAAKef0pef0vc4MbNjHXSTptbuOLpt/BgbHz5c/Sevnrep9+03HP4PS8GbrfVotTwFm74jz+eqZ6lW3WHslyMJek6gAAAAAAAAAAAAAAAHm4ORecw9hG1/o83P9VcKAAUqKdpxG29saUsmr2nRciH38AAAAAAAAAAAAAAAAAMOXkzQxj79TVbxQAAAAAAAAAAAAFtwxyJHnrPon1x73smUAADHkGi8fUjld1sAAAwZxzOPqhz+7ygAB4vaObx9QNLuagAAABhzDm8XUjlt57QAA8fsHM4+qGh3tQAAAtuGl1XXjiruzHM7n2ilQAAprNoOUu6keL2gApUaHydSOc3foAAADwe8czb1A5d1A5d1A5reekAAAAAAAAAAAAAAUwehLpNX1+Pwyuc3npu+/NZh5b18Ntw+i5g9unZrbbwAYsuE6OYojmaNmEAAAAAAeevEHZ+vjeyCnll9bV+z5+/Qtr9+dQAAAPN6Usac/IfBc91eOtt2LnBQAFKXWS911sWyLvOa2I2GpAAAAAAAAAAAAAAAAGM18SdbEdY8tt6gAAAFMRlx02RrKb685+/ceAw18+QyAAAAAGMYc/XGxlXQ9NJeAAAAAAAAAAAAAAAAAAAAAAAAAAAAAAAAAAAAAAAAAAAAAAAAAAAAAAAAAAAAAAAAAAAAAYjl4j7qJa9FbrlAAAYM+A7KZ4imWS4AAAAADHdzZ4om2PI1K8pRDLMX6HoNJ4ZHF7fi8uh6iQPdGvvy8GSPTwexzdd1rQbHIxfexX+njcLAPLHEn8zhbGPa3W6DqaigAFKi3ueF2fviypk1+w6LkQ+vkAAAAAAAAAAAAAABqNnwZH/ADrLbUAAAC2tCzZ+yRTk+l7H1ycvm6a44/RyVgIY5yfOMqKsmy1K5VKgABbiLvZ6+9NbIfr2Elt4AAAAAAAAAAAAAAAAAAAAAAAAAAAAAAAAAAAAAAAAAAAAAAAAAAAAAAAAAAAAAAAAAAAAAPL6teRnG3d8PWYKAAAsuyneS3G0lSAAAAAKV1x5op9/BFMOey3t5chaX5NxrNn4fP0ijDttVzPZ21vp8+i6ykbDbcy9fDt/fHfqycOTPbHWxz9b293LbLJwtx5Lr/TxjXSyLHvP9VbWlcbNCgAKFsvc9fFkkbzmfcNhqgAAAAAAAAAAAAAAPFCUuQGYr6VtAAAFo3GqlU2nWVyyAAAPH7BH0Z/QXAkUZM/ltvKFbKZDFv8AYSOa/r82aQAAAAAAAAAAAAAAAAAAAAAAAAAAAAAAAAAAAAAAAAAAAAAAAAAAAAAAAAAAAAAAAAAAAAAABqdtoyIuZ22qq4KAABZ7fFsyVe35fqJAAAABiMcb7GKzBjty2rL6GzmSBpqO18vqw/F4DmO04rnetyVpXHywqlLkW0voti+kZ9lpaffn1mw4LPkYvf8AGX4Pv58laVw88AABbdSLu24Td5GJKFfH7Oi5EPqAAAAAAAAAAAAALbsZw8QyFHlW1pVQAAFtRsZ4iCaJPWAAAABr9gIb4Ke4erUWWbRfL3Wx7qTyb6tQAAAAAAAAAAAAAsxHoeLGbFqqG2aq82Tw5T0rbgAAAAAAAAAAAAAAAAAAAAAAsxHoePGbBq6G1au42Tw5j0LLwAAAAAAAAAAAAAAAAAAAAAAAABzfSckQjb5/TaAAABj3Ol3xM+88HvkAAAFCnI+yJTxahltqADyTNDcpkpW480nKR5JsbaDqa1MPYgAAAKVFKXIsrUqpYAAABbnw2RInUR/3nQ8pkGXgAAAAAAAAAAAAAMObAQpye90NXVFAAAUradRNfz1O0m6AAAAABjjOUNSQz3u73pZ6gAAAAAAAAAAALNabXzc9ojsfJG2pJQ1sb4TvfBxWCuwx8bavb+ngMhJexir0JMmwhT2xNXuiTpzuGi2xnAAAAAAAAAAAAAAAAAWa02nn53RnY+WNdSSdr43wVIPg4jAdli4y1e59HAZEkrZRVnJg2MK+uJs90RdQd00O3M4AAAAAAAAAAAAADDrzbU5zynV28fiO0cQO3cQO3cQO4cRmO1rgzgFvDdtHZEfpwZ7QAABQs6TnOwJoz48kgAADS54xPDx2SlqoAAYO+4TqCavdqtrJpY4k6PdRv9XWy/VbwLAAAAAAAAAAAGLLZ83eyBG0g7jQbYbXRgAAAAAAAAAAAAMGfCQBpeh5+24AAAClRSS4y2B9EZ+L7OSoAAAAAAAAAAAAAAAACmtNjqOf487HlOS8Vbbw+C5b8HouPPflFlbgApUWWZh56ekPZ4MR2PYxD7Sd91Cncydo8fsAAAAAAAAAAAAABrj36fQ8YdlyvJeOtr4tfct2H0XHnuzDHdcKVCiostyjz09Ip7fDiOu7GI/WTxu4S7mTtni9oAAAAAAAAAAU1h7tLz3FHbc3yPlrdeXTl29urGza0bJrRsmtGw2XN70nz1+X1SAeaL5Nh84rLZdbUAAClaFe/wCDk8ke+26QAB48vBmvjn0eCq30qoAAFvo8txP3Qc70Unj4KROF1+15LJ5c+h6e9Sv38gAAAAAAAAAALL7JdhIPBSBtdHtxt9AAAAAAAAAAAAAAxZcZC3HyPHFK0qoAAAFMWa06KXfn/uSZms2cgAAAAAAAAAAAAAADD5+LNzxfO6OvZ4Md648l4AAAAAAAAAtx5hZttVjJS7z587KJlaLdpcAAAAAAAAAABhw8Qbviuf5+thrrL1xZLwAAAAAAAABTFmFmz1lhKXdQB2iTC0+4gAAAAAAABY5U9PAa3la9vhtyriyXAAAAAUHW8jIhKefFlkA18ITXAR4rrbrQAAFt1pnmCIZtTp60rACy7mjwxV6+btrkVAAAFlbSveeOUk93vpWKcz0/n8vaLvLI+p1O/wCDdP4cLP1N+TyefvnYb4vUWVFAAAAAAAMWS35u+kDke53vM3DYaoAAAAAAAAAAAABbcOFh36AgKsdaVUAAAACz0YrCTpF+fJOiQWDOgAAAAAAAAAAAAtK6zzRqbHh/HhtpdW4AAAAAAAAAAAAUqMdb7DsJNgDsUm67SbqKgAAAAAAAFo1Pljo9vEeOy0uuAAAAAAAAAAAAFKjHlttO3lD567gmVrtjIAAAAAApXRnhi308nSl1ygAAAAAKVoJXimZjs77bpBQ0nz/OcFVWtKqAAAsvsPVPkF/QCe0QPAeWJffwdW5FygAAKMZXqPPKhm6Sl8gAFMOdL4vHuafHpyGokHBiZ0b66S9Th7Hgbus1uHn6iuTy+WRmrivLlFlQAAAFKFPZ5eu9fDe77Dm6LkQ9PIAAAAAAAAAAAAADxwpOnBkPZMGe0AAAABSox7jVYyauygKWJOqW3AAAAAAAAAAAoU0VYxKcZVbS+oAAAAAAAAAAAAAAAsX2Hdyp86SYSew5pAAAAAABQpz18YFeQW20vqAAAAAAAAAAAAAAALMlLCR5N+dpUkkBjyAAAAAtPHF/RxIYbbcloAAAAAAClaFJ2g2f03VSFl+M4mHJTi2qVpVQAAFtRvp2huZZPQYSyNffGB58a+0AAAYyu380qnp66maQAAAAAC3HmS+XX7q349OT1fe4cbNjXWSbrcHZR/XrNTh5+rXY/LIvWouWqupahd7Oi98fz9pbsd3zVRl4IAAAAAAAAAAAAAADTbnEQDopZiWsq25QAAAAFKjF1fL2n0DvoVlKTcgAAAAAAAAAan1RoeDh622rwAAAAFCrFQyUXFjJUxMtDHdW0vYbjIAAAAADFtddjJy6+F5Yk2AAAAAAGn9MaHh4m/HavAAAAAUKsdpkouLF9TGyDHdW0uriGVSoAAAApUY97pKE/dDDstSegAAADVbTiThOOz0tqAAAAAUKrRctF1q02U9wpN8nvAw5vORTwPUcrVa0qoAAFK0EiynH0gyV472xUeLVUvtVAAAWD0Y5FPXIOP3SAAAAAAAAAAW25Evk1+7t+PTldd3OLHy4+8kh4MfMjy/u7vP143Y9T6/fF0m6z35mvpU9fAAAAAAAAAAAAAAAAADTxDOnIEG5tnqbcilQAAAABZeLO+4C8+idpFMkye0AAAAAAADHfzRpYm2GmtrlAAAABS2wq9O/Oe9kh79I/wB33Ptjis3b1OHw99QjLRTH4CB/HNvL1GuTZ6tb2PIAAAALLxdMcJd0TTXwe+QAAABiycuaKL/VqquvFAAAAUtsK19XQnN+uSN3JHu67r2nCejuchwmKQLSNNRLnkIL1s587UUXb/RqY8gAAAAx5KHsl+D++JkeX1SAAAeOJ5Igs1XpsvtAAAFCuNlPPft9mcu7CpxzsRx1naWmaXuK7qTMB5vT4CCtL79fbeAAAClK1Jo2uq5JNfyNSrgAAForZ2h65Pw7iQAAAAAAAAAAAAACiooqilSgAAAAAAAAAAAAAAAAAAGDOI4jD6IjEjy+yttwAAAAAGLKMkmxT7j6L9Efd7JkAAAAAALTxRJ1MTmC+l1oAAADHTOYeg3HfpoOp23pjzeioAAAAp4feOP4CbNGQBb3vC21WXgAAAFM2LAT700ayLJlAAALTww/1UXHlyUutAAAAY7fWYN/u+/TQdRtPRGDNUAAAAU8/pHNcDMWoPn7zyPH1tFl4AAABi22txE89TGckSZAAKVxnLQVMUO1lrSqgAALa1PR3mWQ40/s3dU07cDTtwNPTcjxeyoAaLecoQv5PV5rbgAAAUuoO045hF4AAAUxW9IemWfN00lQAAAAAAAAAAAAAAAAAAAAAAAAAAAAAAAAAAAAANTtqEJcR9BxFWieb0qAAAAAAw5qGwleFN+fQNeX6iQAAAABqtpGxxfO5sdtagAAAx3ZisgZJDjBtbiAAAAAAAKVGni6aNAQBXoOftuUqAAALL6HSTV87T7JuwAANHuY2OM53JS24AAADDd6S+QMvfRi2tSAAAAAAAAaiL5m5sgW7c6K3KAAABgz2nYS5AM2x0YQBhzeUjiMO54erq0qoAAoU3WlkMkXbYM8gAAAAAFOE7qMiN8GXHbUAAAClRZeAAADz12J6JZ8nbSX3gAAAAAAAAAAAAAAAAAAAAAAAAAAAAAAAAAAAAAABZyfX4T580k0RVXkYcygAAAAAUtvtOqleAO6Jia3ZSAAAAayF+6iivNltuUAABSuAzSFpZbPTsSQAAAAAAAABZeOFiD6Mhk5S6y62oAAFK0KTXCspJJN2PJAAtNLD/eRCWZaVtAAAW1tMkg6eWjPsSQAAAAAAAABjyCLo1n+FK1F2PIoAAAGGboQlskeuLLIA8Pu1pCOg9XmtrUAAFK0LZfh2czq8lKyAAAAAAWQ9MEHnK1svtqAAAAAAABZfiPfJfPy4l3pIAAAAAAAAAAAAAAAAAAAAAAAAAAAAAAAAAAAAAAAAA8vAST4T538skR3aWXgAAAAAFufFjJZkD56meTpVKgADyevlyPuF3OptyAAAFCzY67vTr+z8/pkAAAAAAAAAAAt4judQfO92y1ttQAAKVoO74Pqibs3n9EgDXbHmCOeK9eC24AAAoW+/wAUhHWddhzyAAAAAAAAAAAY4gmLhyG2bBbcAAAUMUjxz3JL3q8XtkAaPd8qQdbfbbUAAClaFs+wbPSboQAAAAAB5oKmqDjR5cWW0AAAAAAABjyUOolz58kolJ5/RIAAAAAAAAAAAAAAAAAAAAAAAAAAAAAAAAAAAAAAAAABqotmbSHz66zkLcqlQAAAABSoxd5w3pPor18n1clQAUjzuYsI7y4PRaAAAx32GxmCO5qk9IAAAAAAAAAAAHj9mEh3iJSiqswUAAC3f6Dbk/eny+qQDFHndw6cZmsutqAABbWh7ZzjiXZPQAAAAAAAAAAABptz5j538O+0Nt4AAAMfX8j1JM/v1+wkAt4ft40IytuttqAABbdjN3OERzDJsAAAAAAAc9C8tQ+a7JZfaAAAAUqAAAAY/f5MROXWwdLsm2AAAAAAAAAAAAAAAAAAAAAAAAAAAAAAAAAAAAAAAAAAtuHNxDP/AB5COTY6q3KAAAAAClt9h28w/PU5SboAGmhqVYMMeSlbQAALcuH2knSFpN7IAAAAAAAAAAAAtuHDwnPMDV6AoAAFm01m1J+9fl9UgoamBJngyq1pVQAAKUbAl3r9XtpAAAAAAAAAAAAGHNiId4mSI4qlaVUAACzrOT7Qlz3+L2yAYojluEjlqUrbUAAFMWbASHKsdyRJnAAAAAABwcTyJGlWXUqoAAAsLqbfxHmrSoAAApUJMjD3H0Xm5TqpKgAAAAAAAAAAAAAAAAAAAAAAAAAAAAAAAAAAAAAAAAAYcwj+K/oqNyMMtLbbwAAAALbqGeVof7cmitt0ilcZxsHzFD9egKAAKFu80vaEv+rDmkAAAAAAAAAAAAFhycEzRC9ekKAAKFN5o+nJu9Pn9Eiy/EcDEshx5StKqAABZ23DSmSH7MGeQAAAAAAAAAAABjyWEbxfKkU0rSqgAChZ30fySSd6/N6ZAPNAk5wGa2/HktAAAeX1eYmPv+P7OQAAAAABSuMiKPu44WvQFAAAef0eQkq/39inz433OrlAAABTHltOpmL54ksk9hzSAAAAAAAAAAAAAAAAAAAAAAAAAAAAAAAAAAAAAAAAAANZs6EMcP8AQEQ1z91tVqAAAADB1HMdCTz6NVtZHm9PhI1jbs+Oq6ooAClaCS40llJAyWXwAAAAAAAAAAAAw5vGR7FXdcRWRSqgAKVoO24mTSSs2PJIwZ/MQtye60lt1QAAA88ywzNx2l9KyAAAAAAAAAAAALL8ZHkUyfGFK0qoAAGCVoomM7rPZfIBoYNmSGK8d9l6gAAUrbsSY+q53opAAAAAAHi9upIj47quWtzAAAAeP12Ev99xfbycJEX0VFRwtcGe0AAADHtdbYTl10Hy3JtQAAAAAAAAAAAAAAAAAAAAAAAAAAAAAAAAAAAAAAAAAAWcd2nlPnXyyDHdZVKqAAABj3ek3JNG/wCc6ORrNnpSFtJkx23AAAUrQrLsQyykg32XwAAAAAAAAAAAA1W05QiHV3UtqAABStBMsMz+m9uIeb0+Y+ftVtNXbeAAADzTfCE1nc1tukAAAAAAAAAAAAYsuEiqPux42laVUAAUPPOEKTqdVUkUrQ4WJZIjOsV1KqAABZ0XN9mSputZs5AAAAAAHO9FyRFWh2urtvAAABb7tdviV+s57oZHMdPgPnzUSnGVtFtwAAAtuF0oRTtD6Fz8x00lQAAAAAAAAAAAAAAAAAAAAAAAAAAAAAAAACwveP0l4AAAAAAFKjmYN+h4cOWrZfaAAABj3ek3hMfQ6HfSOd6DkSDslt1tQAAKVoVkaN+oJxy+f0SAAAAAAAAAAAAYYokSDjV1pdaAAAtuwm+nONpRk9IHm9PmPn3V7XVW3gAAAwS3E/ekvZfJ65AAAAAAAAAAAAHn9HkIL0Gx1tt4AAFt1h6pxh2aY3oRbdYRHwPXcbWSooAAHnkOOpRJJ9mLLIAAAAAA4LvYzIyxef021AAABh6zku4JU2/h90gGqhueOHIU9Ho8duQAAAFMWa062YPnaUokhiyoAAAAAAAAAAAAAAAAAAAAAAAAAAAAAAAph0ptub5TjjfSFBfa2zRd5/RIAAAAAAB5YwlGMiMs2HNaAAABh6HneoJn2mDPJj4LvIyIzqW1AAABZstdnPoLa8B30lQAAAAAAAAAAMeTmjko22mnq6ooAADBf0JJvY6jcSAPP6MJBPO9zw9K0qoAAFNjrh9D7bi+ykuAAAAAAAAAAAA1W158g7w+3xW3gAAYc2A66YIvleT3Aeb06shnl+j523KAAAUPLLkVTCd+JAAAAAAKRXJ0UEa+zy+q0AAADzSHHcmEp56VkAeX1CG+Fn2Fa1tbLlqAAACzaa20nrpIRmCT3gAAAAAAAAAAAAAAAAAAAAAAAAAAAAGuPdqdHwR1nCajBblw3VLfd46k99DEkryZAAAAAAAeKJZMg01mS260AABStpTueOlUkC6lZPPEEuwcc6pdaAAAAsvsOsmj54leTu1KgAAAAAAAAA8xiiLcxvWG+29QAABjMcqcLMh0GYkAY8lpGkYTRCtVrSqgAAUtvtOxmL52mGTs1KgAAAAAAAAAxGV5vSU5Dr+AIr8vp81twAAHn9HlJNlGOpKkvA0G/wCSIn0mz1luQAAC27Ge2YIqmGOnCAAAAAAeGJJTiA5D0Yc1oAAClbTHKUcywd8JAAMUeSRrT51p1PJW5QAAALbhkk6Kd2fQOTl+okAAAAAAAAAAAAAAAAAAAAAAAAAAFhf5tNyB03F8rqq9nktuWy+oAY8lDZzNA3dkxPH7JAAAAAGO/lTnor2msq6ooAADHfae+dIpmqT0A8Xz/PPz9XmutuUAAAADF0/OWn0Ju4ZlOTZgAAAAAAAGvPRH+OOSnjXW1AAABSym6OrlTQ9NIAABpYC+iYYOXrZfaAAApUWdJzl59B7iG5Rk2YAAAAAAABrTNxmuj4nLf6jblsXSjDhxeMtqAAB5895LEhcT20gDgu9jIjjy3UtqAABiy4DpphiiYY2QQAAAAADQQ5LULHgyW3WgAALL8RtpdiiY46IIAAtuHIQv9GReR3fjvtqAAACmLNYdpLfzrKsSKxZUAAAAAAAAAAAAAAAAAAAAAAAAAs4zsYsOe5u1arWoAAABb7fJjJY7/wCe5Ckkt5PUVAAKFbfHxZtovw6Kq1VUAAAClKdASN2/g2Mgoc/BUzwvWC625QAAAAFtwd1wdT6D3MJd3J2bz5yoAAABQrTw8cb/AILTc1WTAuVUAAAFtcZdJnNTCbPISAAAYo+kbnD5/wA/q8dtwAAAFtwv7jgch9B7eEe9k7JhylQAAAChWmv5A6HgdPzRXJ5N/bOnt83pksg2aoLOeyYc1oAAFuw1u+JW6znuhkARNKsPnA5vP6LQAAHn9HlO7mKJZhkuAAAAAABxcIzJCteuooAADDmwHSzPD81x7AgAADQb+wgHnZdiyrFl6gAAAWbrT4yfuihiXJPYAAAAAAAAAAAAAAAAAAAAAAAACnJddrD5zu3ejtuAAAAApUY/f46HedjCe4SePVCXoiZaQ5jJV5vhNSdHy3hW0vVAAAAFK4Csw8PMibHIQtusOBieRY5rHdSqgAAAAALbhZudPQkHq4V26Tz6oR2US7WOfYd1TisB3lsaagk7leK050nNa662l1alKgAAALSnv8Eqm86zHmkAAAAeP2UIdj2c4drzrL1AAAAW3DHu9NQkTsIO3STx6IT2kSxWPPWdxTiPISFii7WElcxxeorp+c1ty0uVHa8TJRJufFlk1MJS/DRp8uPJaAABh6vku3JW2/h90gHjh6VoeOT9GHNaAAAw5cpIEsRzI0gAAAAADHk8xwEQyfGdZwoAADDmxnZTXD8xSVAAAABrognDkSDb/V4rcgAAAFt1DJK8Rbk+gsnOdFJUAAAAAAAAAAAAAAAAAAAAAAADDmEYxTP8J15FtygAAAAAW0voY2ShZTILa3ClagAAAAULfR45DOn7bzeyQBjyYiHuI6fl6rUUAAAAAABSotpfQx5FD25tYNrZrR6fJcLa3ClagAAAAUHmr2hsJS8u5kAAAAAA8kSzLzRAGfaaa3MAAAABSotpfQx5raHuzaobXD4KmXz3i26opWoUrQpLkRzanXX23RxsRSbFdea+25QAAPLIMfyUSrmJAOeh6V4eNXksvtAAAt92v25KXb8v1EgAAAAADw+7WEWcH1nKVlCgAAUvx+skKUOE7yQAAAABhzCJY7+hYVrS1tuUAAAClt9h20vfOcqEhrbpAAAAAAAAAAAAAAAAAAAAAAAAPJFkvcoQL6dhq7cgAAAAAAAAAAAAABQYa7Q98w63rpLgAPJ69UQho9vqLcgAAAAAAAAAAFKiioAAAAAAFowZOmLpZt6CStQAAAAAAY8gjqLfouKzgL7VtwAAAAAAKKiioAAAUrQpPcDfQibgpEXxn3se1lqKAApW0SlG0rnfCQDhodleIKzVFAAAx73QdITHu9fsJAAAAAAGm3OgIW1OXHbUAAAFmw1+yJg63nuhkAAAAAAs4XvfAfOFe04e3KAAABSox9DocZP/AEUPSpJ7QADAZ1KgAAAAAAAAAAAAAAAAAAADDmEURt9DRDXM3Ycq1AAAAAAAAAAAAKFcVPeJTp3MX5RAAHP9Bx5Emq2HgtvAAAAY6l4AAAAAAAAAAAACmIuvu7c10rZ9vJS4AAAAAAAAGr2lCEuQ+hInrkrrC3gAAAAAAAAAAW3WnvnuHJok9+DP4CJOF7LjqzhQAFl+M2cuxVMkdCEW3ecjiKJLjWvSFAAAwdTy/Xk25rbpAAAAAAHMdLxhCObDmtqAAADHttTvibtp5vTIAAAAAApUczDP0NGxF2THfbUAAACy8VmCGt8T/fod9IBTQdB5x6LbgAAAAAAAAAAAAAAAAAAAACnJddjPn3RTZFda2vm9C1AAAAAAAAAAUwGW2/qDUyfsenks9AAAAOA7+LSPfLfbbUAAC2th7cPf+oi7LstIelZeAAAAAAAAACwvx4/YebY72QznZB9PokpUAAAAAAAAAAKaXd0IX4v6Jjuo1zezVr6Fl4AAAAAAAABS2/ykhyxG8mSZ9PuOdIn5ff6G3KAABiy4DpJphub49YR4fdqiLuC7HkayBQAFK2le/wCFk8ke6lZAAAAAAMfAd5GpF2WzJaAAApWhZ1XMdyS/lx5JAAAAAAAGm3NCCeUmaJKxMeRQAAAKY8tpIEqfN8wydytuAAAAAAAAAAAAAAAAAAAAAAAAMXG9vjIC56fuCqP8vq1a+piygAAAAABjwHqwt6c/ven7ROV77Z54pUAAAAKQ/LsLHGX4s1oAAFubBtCTu35frpONj+cNafPmvmHkbeTyZ9aet5sxepUAAAFpcw4j1WYtyaT3dT05xvY9buZNbtLgAAAAAAAAAAAAA83pHD8FOepPn7xS7yVctfm1q+x58peAAAAWlzBjPVipuzRe/rurT0dl5/XDkOv4QirXejFaVFFRRUUwegdTOMQTBJcBo95zJEWh9XltyUoKqCqgrRae2XYkmpOnqQAAAAAB5YlleEjmq2XW1UFVBVQVUoZZOjGX07m+26AAAAAAAAPHEU080QHk3OgtzsAzsAzsAzsAzsAyb7mx9E7yGJYk94AAAAAAAAAAAAAAAAAAAAAAAAHh9w4flJi8JA2jnjS1DuWQ9YclXceBfOUK0v8AUeCzotkcPdI+1SOd9IG5jhum6bMeX01AAAAAAHihaX4aOYz4stoAAGPfc/0xLfQ6fcSAWavbjg+elzzEIaSddTUHY5j15F1ZJxrHdJBvI6tkr0pF3slH3kbbeRdnHAdD12U1mxvAAAAAAAAAAAAAAAAAGPU7ocBz0veYhPSzlqiD8Mx+GosrJGMjykg3rHVJLzEYe+TtikbbmQ9pHA9F1WQ8HuqAGj3gjpIgjtIgjtIgjtIgju6QhzXTAA1mzEbVkapHCRxHCRxHCRxHFJIHAdj7qgAAAAAAGHi+6oRvWRxHCRxHCRxHCRxHCRxHfXbaoAAAAAAAAAtuHH6SShGiShGqShGqShGqShGtJLEaWScI+7T21KgAAAAAAAAAAAAAAAAAAAAAAAAAAW3Dw+Ldjl/P2A4p2o4zL1w5v17keH1ZAAAAAAAAABzkOypEJrctl9oAAGDsON7cmL2WXyAAAAW4PSPDbsBra7EeDN6RZdUAAAAAAAAAAAAAAAAAAAAAAAWY848NmxGtrsR4cnqFl4AAAAAAAAAAAAAAAAAAAAAAAAAAAAAAAAAAAAAAAAAAAAAAAAAAAAAAAAAAAAAAAAAAAAAAAAAAAAAAAAAAAAAAAAAAAAAAR/E0mxXV1woAAoYe+4mSiUKkgAAAAAAAAAAAAAAAAAAAAAAAAAAAAAAAAAAAAAAAAAAAAAAAAAAAAAAAAAAAAAAAAAAAAAAAAAAAAAAAAAAAAAAAAAAAAAAAAAAAAAAAAAAAAAAAAAAAAAAAAAAAAAAAAAClfORhGMiR3XpCgALbrD1ytGEvHXiQAAAAAAAAAAAAAAAAAAAAAAAAAAAAAAAAAAAAAAAAAAAAAAAAAAAAAAAAAAAAAAAAAAAAAAAAAAAAAAAAAAAAAAAAAAAAAAAAAAAAAAAAAAAAAAAAAAAAAAAAAAAAAAAAAB4PfqCK+H63lKyhQAGPJiNtNUMzlG1CAAAAAAAAAAAAAAAAAAAAAAAAAAAAAAAAAAAAAAAAAAAAAAAAAAAAAAAAAAAAAAAAAAAAAAAAAAAAAAAAAAAAAAAAAAAAAAAAAAAAAAAAAAAAAAAAAAAAAAAAAAAAAAAAAAOd6LkiKNJ6/LbcAABiy4joJ5g2dpMgAAAAAAAAAAAAAAAAAAAAAAAAAAAAAAAAAAAAAAAAAAAAAAAAAAAAAAAAAAAAAAAAAAAAAAAAAAAAAAAAAAAAAAAAAAAAAAAAAAAAAAAAAAAAAAAAAAAAAAAAAAAAAAAAAAHD9xqD5xzS7kqHkwiHkwiHkwiHqTEOTmfnekioAAAAAAAAAAAAAAAAAAAAAAAAAAAAAAAAAAAAAAAAAAAAAAAAAAAAAAAAAAAAAAAAAAAAAAAAAAAAAAAAAAAAAAAAAAAAAAAAAAAAAAAAAAAAAAAAAAAAAAAAAAAAAAAAAAAAAAAAAAAAAAAAAAAAAAAAAAAAAAAAAAAAAAAAAAAAAAAAAAAAAAAAAAAAAAAAAAAAAAAAAAAAAAAAAAAAAAAAAAAAAAAAAAAAAAAAAAAAAAAAAAAAAAAAAAAAAAAAAAAAAAAAAAAAAAAAAAAAAAAAAAAAAAAAAAAAAAAAAAAAAAAAAAAAAAAAAAAAAAAAAAAAAAAAAAAAAAAAAAAAAAAAAAAAAAAAAAAAAAAAAAAAAAAAAAAAAAAAAAAAAAAP/8QAMxAAAQMDAgIJBAIDAQEBAAAAAQACAwQFERIwITEGExQgIiMyM0AQFSRQNHBBYIBCQ6D/2gAIAQEAAQUC/tR8rWrtca7XGu1RrtUa7XGu1xplQxyBz/wVPMGitq06eTUJ5F17117118i6+RUdS4OpKoFNdq/4ImlDW11Txe4k94qlnLDQ1IIac/8AAz3YFxqcGVxc4bBVHUaDRTam/wDAtwqOrVXJ1jm7X/qgqtKp362f8Byv0C7S6i3ciJD7dU8GnI/4Cusuhs0msjdoZcSUsmWf8AvdpF3k1BvPdZ4XWypyW8W/8AVztLKyTURvFUL9D6OfUP8AgC7OxE52X7+dKtU/iifqH9/HgLs/wf8AvfKgfoNsm1D+/pjhtyfkf+vgFWybSqZ+sf37VcI61+T/AJ+C15a60zeAHP8Aftd7NS7zPhHnRT6DRyamf35cT5Mx834bSQ+21HhjOR/fdyd5Uvu/EpJcSUcuY/76fyuL/C/17DIdQezG2zg63VPGM5b/AHzL6Lg9O9Xf/wDVDFqjq6XAfwdslUbtMlHPqb8vKfIAn1ICfXAI3IL7mELkEyuBUVQHJrs/2rP7de/x7H/u0N8urjzHVw4ftDwq2T+KJ2W/Gyi4KScBSVmFJccJ9xyn1WU+QlHKwUMhMkIUVZpVPX5VPJrb/adWfKrXebsD12ceU4ZFyp8NcMP2SqZ2h1un1/DytQTngKSowpa3CkuKdXEp85cnZK0rHe0qNxaaGt4wu1M/tKtPl1fvDYgZl1tGI1WM1srYNBHPZKtcuk08mob2oLWE+UBSVOFNXYT7i5OrCU6UuRGVpWNoqk96i9n+0TyrneGo9wd8qhbk0YwxEZV0h8L2aTslMfoNom1DaytYRlapJ2qWqwpq4hOr3FGqcU5+paVpWN6lHnUXs/2i703F6l9XfPO1tyoBgfSoj1i5waUNpyoJtCpJNbe9qCMgTp2qWpClq1LXOTq15RncUTqWlaVj4NJ7tH7P9ov9Nzf4zsO52ZuQ0YH1uMOoVLNBG0HYda5/Cw5H0LwjM1OqWqWqCmq1LWPRqnldaSua0rHxaT3aP2f7Rk9F0PmjYPOxjw9yRgcLtD4sY26aUtdR1A0Goan1bFLVhS1ZUtU/PXvK1krmtIWPkUvu0Xs/2jO7wXL3W8u+xuTZ24b3a2HUK1ml42hziqC0SVLsOnkz1ritRWFj5lL71F7H9o1bvDXcZBy7xVI3Jt7cDuvGW3Kn8TxpO5hY+fSN82i9n+0bg/CqeLx33K2jJpRgd6qjBZWxYk/VjnQU+VAMM/tG6vwX8T33qzjJjGB3njLbhT8JBh/6qmgL3UEOln9onleXeMbD1Yxx2KpmqOtp9Lv8/pyoo9ZttPwYMD+0ZDht4OXs5d/GVZW42SMq5w+CRuHfJwUGItxuNGpW6myoI9A/tKpOBczl7e+VAMm2MxtVDNbbjT6EOfxMFaSooiVHSZTLepaIMbPwO1zVvg1mlg6sf2nWnAruLm99yoRl9E3A2rlFqbPHoI+DpKDCooCVFR5TLeEyhDUyANT8MbXVfCR+p21Rw63UVNoH9qXN+FUHJHfdytgy+nbhu1IzULtDhct3BWgpkRUVNlR0eVHQBNowEyIBD6OOBXVOBUS6n42qeMufQ0oamjA/tLKMgCu8qznYdytA8yMeHbrodYrY9DhsBaChE5MgcoaXKiogm0LU2maE2MBDuFVc+kVk5c/ntRtLnUFKo24b/aGUXgJ07QpKoKoq1PKZENm0N8beW24ZF0h4vGk9wBCMoQOUVOVDSqOjam0jAmwNCa3GxUzBor6kl3q2gMmhpsqnj0t/s7KLwnTtCfVNU1WpqpydUvXWE7UfE2tmCOW5VQhza+LEmEGkoQuKFM5RUpUNImUjUKZgQiAQG1NIGi51KJ1IbVHBqVHCGt/szKLwnzgKSrapasKaqKkqHrrXFZysLGyVTcX29u87i2tptRNI7VDSFQ0oTKZiELEGAbr3aVcqnhI8vI2SqWIvNBT6WgY/ssvwnzAKSraFJWhTVWVJM8rrHLJWFjcPKi9yjb4d4sBXUsQiag0b7jhV9RhtRKXkbJUMZebZTYTQB/ZOpOlAUlUApK4KWryppnFa3rJ+CeVuHm0w8HzyqycNbVz6j/nZY3UbbTcY2Bo/sYuT5QFJVAKSuAUlblTTlyLnZ4ofEtrfNh9v59RLpbXVOSck7LeJoKY6qeINb/YmpOlAUlSApa0BSV2VJUZT3OK4ofGbztrPFH6PnSP0tuFUpCXO2qSDLqSHS0f2ESjJhSVAClrMKWvUlXqT3lywUAh8XKz9IWZdQRYTeXzXuwK+r0qoeXuG1TxanUNPgNGB/YBKfIApqnCmrsJ9blPlLk7JWEPkaSmREqGlyoKHjBFpHzSVX1GgVcvWOGyVEzUbfS8I26R/YD3gKepwp65SVRcn+JaUB8cLSU2IqGnyoqLKZQqOnDU1uPn1k2gV0+s7TRk22l1KGPQP7AlkDRWVeFLVFyd4lp+QGkoRFQ0+VFR5TKEJlKGpjMfoaiTS2vqcrOTs81b6fWaWHqx/YE8mkV9XhPlL1hD4waUIio6cqCkyo6IJtKAmx4/Ryu0tr6lPfqcBtUUOt1HT6B/YD3YFyqcB8heQPitaShEUynKhpVFRhMpGhNiAQGP0jjgV9TgTylzwNqmjLnUNPhNGB/YFwk0x1Mpe4D4YBTYiU2mKhpVDSBMpWoQtCDcfpiqycNbVzlz8bUTS51BTKNmkf2BIcNuUvA+v4ABTIiU2mcVFSlQUqZTNQhaEGgfqaiYNFfUEu57TRk0NPlQRhrf7BqPbrpPF/neYwlMpXFMoyoKVRU7UIWhBgH6uaQNFxqOLjqI2f80dOXGjhDWf2FV+zWHzd4c6NmVTxtw2NiDR+tkdpFxqFK8uI2qaEvNBT6WgY/198oau0NXaAmyA7Z4IzALtDV2hq7Q1doahME12dwnCMwC7Q1doamuzuk4RmATqpoXa2oVbU2oBTX52C7CM4C7Q1NlB7z36V2hq7Q1Mfq2HHCM4C7Q1doau0NXaGrtDV2hqjkDtiq9msb5u8OdPMGqKtChqgU2YFB36y4u0sq5C4t2mDJtUSa3H+v1cvVtrrmGkXYJl2GqgrOsTDluzUu0xVlzDJPuoX3UL7qF91CiuozSV4coZQ8bVwm6plRdQD91CZdh1luqesY3ltSzBqqa4NU90AT7ovuSFzUF1GbdViUjl3q2fQqu6Bro7qCrdV9Y5vp+pV1quqZ92Gr7sNVon66Pv3CXq4prqA/7qF91C+6hfdQvuoRuoVlquu2Kj266Pxf53jlNLgYZy1RVqhrAVHOCg/P6q4s1MqYy0jZKhODanDH+v3+o0R1UzpXBr0wO1WWU66f2tm6HFNcnONThyOpZcsuUZcFTVhjVnr+sLHZGxI7SL/U+XK5zn4cow7rbG/wAMPo2aqoDG19ywamu1qZ7ivEvEjqUGrV0fJ1N9PevkmFXanPpQ4vscTgWen6zHDekLyWYf1jI3mToywiHv9ITimnc4zYcjqWXLLkS5Rh7ndFmFo77+IuUfhd6/gFDKilLVFWYUNYoqkFNkygf08jdQu0WEBjazhWqbCifqH+u1knVsvlV1iYPF9LO/8ij9jZuz/Irf5I5Mj1rsxRpyE4YTgVZpTG+3T9Y3YuUmiG51PWOA4pvqtEvipeMWxUzBjbrceNRKZCActjJTacrspT6chRR+KxMw5vLunl0jkw6Q5VD71pj8I5fWrOI7w/KPromanWVumLv9IX+Q73k2HUuzFdmKNMVRUp1WWLQNi4R5jqI9Lx8IhYKZIWqOrwoK1Q1WU2XKB/TXGHWKuPqy3ZKppNBtsmpv+uE4V7qMRTza5cfR3K1H8m3u8jYdyu7/AAVfvN4qz0fWr7SMT2rDK+n6t7lC7SejsmrYkOG3qq8Ersy/W1S+fQ8afvyOw29V2g1LzK4KmhLzR27UmWpfa1LauDrdpdbIdDhy7r/T0nf5jfTbONTbGeUO5cjiC5S5e71Whmo21uGd6T031/lu91gybRQda02kL7SF9pChtmg08PV7MrdTblT4BGCPhkLSmOLUyqLVBWqGrTJ8prs/pHtyLtFxxja/zbJ8CJ2pv+t1b9EV3q9RI8dLHrU8OlPVu4T2uTyxy78novEiqPXSN1OsEen6Te3eGDVJ6m8+jI2K+QNhulVqldzo4usVZF1a/wAW135Vsdmn791qeqF0m617eVLEXvttvVPThg+h5PgBUUGk96odhvSM5kZ6bS38qgGKfuXk4pauTM710fZlUrcN71TwjvMif66Jmp1jaGx71ZFrbW0+lckPi6U06U2oLVDWlQVajqMpkgKz+iroNYrG6Ht2qeXS+3yZj/b5WQi8IyhdeF2gLtAXaAhOE2UIOCyPkO4C71OIquXVM9WCDrFdKbSqkYNHwks8nBvp78/tXqXzZVahmS1ANGQquUCO61GXyc6Rut1hj0995w28VmBUu1S4yuj9NqXSKHq0OVD/ACLS/wAocu644HSWfC1a1FxfaaPJpYgxm5Xuw29nU9nK2DE1JUgQ9qC7UF2oLtQV3qQ6Cb35OfRduQwYHerjiC6S5e/1Wznb5g1vagu1BMqAUx2dsjKrafUKqDSTkIfG0oDCbMWqKrKp6tR1KZKCgf0Egy25w+M8Noeq3VGFEct/Z5ReApJ2hSVgCfXhPuKfcUbiUbgV9wKFwKZcCmXFR3BRVoKinaUHA/GqXhsV4qz1j+Jp4+sPR+n0Nu8fCvGHwcDY5MvZ6O/VHEN7f+RzFvdpfTVgaDceFZcMiql1vdyskRfJQRaG96slDYrzUEzniLdH1j7PTdW3pIzUnjSqT3bRJwZ6e7XP0tvr9ZjVG3NRaIAIBu3h+kXF2pzVDJoLLgQPuJX3Er7iV9xKnrC8O5kZPRZvh790OKavkzUKCTQo64tX3Eo3Eq315fJROyNtwyqqmBVVTYLmkfI0oDCEham1Ts0dQ4qnOW/oK2DLapmmQbVLJiSikzH+xynSNAnq2tVRcAp7gVUV706tkXaXrr3LrSusK1ldYV1pXaHBCreFT1z1TXAqmrwVBUNcg4H4Z5XWq0tr365v8WOHVJSRNjZcgC27e83gOj8nnxe3369+Irwc1LeWrSu1uC7a9de5yPFU8TnusdJpLG4HdPK91ehVR6x7BlWGDzIWhsd7aHKtGHQcHWWTxR+ju3h2GXF2XN522PzbeMU+70hfpE7tTkcrJWSslZKy5BFQN1O6Os0t794d+PWfyRyOVlyyVIXYsWTPQtxHuOblT0wcKql4ywkIg/IxlQwEqjgIMAw1ZWsIH5swyy4QeI8Dss4Ot1RxjOW/r3PAVTVtaqq4qrr3FPqpCetcVzWgLQFpC0rCwsLC0haAsYXWuCgq3h1FXlUVa1yZI1w+DUSBrL5U+YfEowrQ4McKxumpqmuZczqlPpsB/IpnZi79zfhlz4zt5FpK6krqCmQFQUjirZQeKngbG3vVcwYy/T6pW8RTeu2ubGhWjTX1AcK7i5vBWOTzofb7t89FZ6m+q1410PsbvSl+EDkt4mOlLh2Jy7EV2IrsTk6iIEjdJcra3U60M0t7zuV4f5VV74UFOXrsLl2JyfQuxZaMtngbiPekhDlUUoUtKpISEWn4hTGkqGnJVJS8GQtCAwi4BVlU1iiqtZpzkfMKr4QWVDMSbJVDJiSkly39aVNO1ora8BVlcXKWd5IJK0hY3cLC6xzVQ1jmut9eCoJw4fAvFToVfJ1kjeTTxjqNC7c5GsJUrtZd6bKcT0D8s7x5XeTCreMkQyqWlL19uOBbiorfxpaEBRQNYO8ThX6q0Kd/WOHBRuwW1RaO2uTqolPdqTuVid+TTHMPdvQyyuGHBW6XE1tfmn3JDgdKHZUSp+M1spA6HsTV2Jq7E1diaqyka2C4eGd/KxjU+hbhvek9F4fwqPcp26jZ6UORomrsTV2Jqp6RrHDlvloKfA0qoplLSFSwEItI+mfgRRFxpqVU1OAg0D6SShorK0NFzuBJscjpDS+n5s7dTK+DC/8AWyzwm2T5LTkfqycKrqmsFwr1V1L3kElYWPg4TuCo6hzDbK9Us4e3enlDG9IKjLgc/TSVpctLlpcgE7lbeEtqfkd53pvsuHTnJoeMlpgCEDMdQxdSxBoGxXTdW2+z9Y6NYWkrS5aXINcgn8rPwqKB+Y+7cWam3lmgsVOS2a0VY6uN4cPoThde3LTnv1bsNv7tSjVCzM9qbimwsLCwrkR2e5H8p/p6NDL4G4b3pvbvEnim9VsbqfaY8DCwsLHwy0FPiaVUU2VLSFSwELQQuSzt5QaSoKclUlKo4gABhOdhVFU1orrgFW1bnKRzi7ou3IjGB865RZZMzS7Zdyt79L6SXUP1ROBXVjWNuFfqU0rnFvxnBU8zmOtVcqaUPbu3yo6ttZL1rmKCAvTLedP28r7eV9vOKimLE/gqY6XWKXUe8/09I3+dzba+M9sZhm0ThdIanDZJOscOdNSmQC3nH28r7eV9vOKqHq3O5W7hNan5aO7I3UOkkCHhTVQ1RY6irxhlY3Bq2qprmgfcgaiidri71zdpZdn6iz1WuLL6AYg+p5XV/lV/8h3Louzxt5d6q9m8y+e/irUcPoalrR2xq7Y1dsaopw4/E0hPiaRPTZUtGVNTkLQQuSzsc0yMk0tISqamwmsACfIGqsrWtVfcMqaZziMlSDj0THD587dTblDpQ57LTpVpmQOf1J4Cuqwxlzr9Rc5znD5BVNMWPtVcMQv1N26mXq29IKnWmKPjLaaTUyOmGnszV2ZqdTN03SDCqeEmcLozJl45d2d2I+kbszj0WUZqaFmItq4S9Wy81PWJnOJuqWzUuYhTNXZmrszU6mbovUOHycFSnD7JJkjl3bxTdaLjTGN2cJrjmnqi1MuKNyVRXFwo3PdWWr+L3r67THVP1Ob67MzKphiP6u9N3k8NX7sY1Lo3Hg9+udiC7u/KHKB+gsrtK+4r7io7hl1rn1ub6fi4CkjBU9LlS0ampyEYyFyWe5lYyoICVTUighDRgInCmqA1XC4gKsrS9SFznN+hbk9Fm4b+gucWps0egjZcrfLoNHLrH6itqhG261+pzsucPl0FQWSWusD2jlsk4V9qdMdTP1jxzoKcvktUQbD9TyuzPBXcJ3nw9F3+bGct7tc/DL47MzPTYmfkU/s7L3aRfqry5JS6TPG1UnWG3RdXF9Xcr2zjU8HsdhdHZcyN5d2RgcLtQ61VUhY4twnOK1OWpybqKtUHnUAxT97pK7ETn5eD5lgZmOLg36yei9S+KoPioRqfZI9Oxc5MRXM5qGngSjqXiR1YpA4y2SMhN9Px8J8YKmpcqajU1OQjGQjwWVlNZlUtKSaelwomABPdpVXWhor7iqmoMhGUPoVTt1O6Ps0t/QTM1C6w6UNoHBtM3BhyP01TOI23iu8UhL3Dl8v0m0VmmShqRI3Zm9N5YZGigdq7CdVposCBulncuEeqOuoSZnUBxZKUxvp/T3bg3IuNGXvZQFWmj0SxcI9mq9u5xukQt7tXYDqsdLpY0Y7h5XODWquhJkNCcWGnMcjPT3pow4Vtu1Kpt5CkoiuxlNoyqehObdQ6TANLO9f4+sYKE6hQHrLLBojb3JPRd4C6R9CSrdREPt8Wkd48ri3U2soi6UUJx2ErsJXYSjQlUdCRLbodLRy+U9gKlpcqajU9MQuqKigJNNSKng0oD6TTBirbgGisuGozPL00dxytoy6ztw39Dc4daqGaCNlyopdBoZNTf0sj9IvVbpVS8yuby+Y7lETG6yVvGCUPbsSDIlpdS7AF2AZpoQwd2RmoSUOp3YAoKPQWNx3po9SkosoUAUFLoI5bMrdTZKLJ7AF2AZpYurHdlj1KShBPYAqak6sjl33DImpQ5Pt2V9sQtiioQ1RRBqHfqYOsH28LsAzTxaB3DynpNZ7AFDRaTGzTsTRak+hyewLsC7AuwLsCjoQ0xM0j5r2AqWl1J9Hxho8KKPT9HOwqmrDBX3FVVWXnBJHderMMvtww3flfpUMmr4MrNQusWHDhtA4da5vCw5H6S71XVtuFR1rm/PcqSbqXWWt6xMdkf0SWoD6TP0CsrtKr7iSZJjItKHekVgGX0Yw3elfpF0rtKslT1v1fJhNn4teCs7lxg1KoboeNn/NHNpdRP1R/o66bq2Xms1ocTu5KyVkob7kAXHo+xwVP6f6MvdR1bKmuL3OOtBuNiVdGhl8Aw3de7SLpV6W3CsL39FHZ+h5VztLRVkSRViZVplRlMkBQcNmZmW3KLzOW0w4fbp+DDlv6F7tIvtVhkshkeBjbcmhxUcBKFIV2Mp1IQpInNR1BN3ComOebfb9Rt9EIw1uP6MkOB0kf4BxeBjZkXRZvjb6dxxwLjVBrLjWF7peLui5wmHIVzZ5UvCUSEIVBCiqio6tMrFHU5TJQg4LPdPKvp8icaZBtUU2JKR+Y/wBDc5dENyqjI8DjtcSqamc9U9vVPbxhtA1dgapKBqqLeFUUGFNC5h24IXPNtt+TS0bWBrcf0bUem/nLW+rZIyujDcO3Cq2oDGXStJc46nPC6PuwqU5arh7NQ3zMLSuS1kITFRVJUdWVHVplUo5gU14WR9ahuWV0OH7URw+3zpvp+e84be6ny5XZm2gMqhpC82+gAUdK0IRALSsLSnQtKmo2kXCgVXTFh5HvZXEmjpnPVvoFT0zWNH9HVpxHeX5Q9WzCMno8zB3KmYMbdq7jK8vcAnKzu0m3OyxVgzFVsw764WFyWooSlRzuUdUUyrUdUo5wmytRcCrhCNEoxJtW+XElPJqb8+tdpgu1STLjjs81b6cvfbqIAMjDR35oWuFzoRirpyxw59zK0lxoaNzzb6EAQwho/o+5HENzdl3+dh3KhGX2VmNyaUMF5rsGolMjmj6FUT9LrI7VGqj0XBq/z3cLH0yV1jlHM5R1JUdWo6tTTB0dQPFslQnS62z5Q5fOukmILg4mpHLYKpRqltFGo2BrdmaIPF3ovDPEY3A/UlRxOcbfQlyoKINDIw3+kbwcQVr8ybLuVrGZbW3A2pHhgvNcAKyd0jmDuNdh/Rp2YVJyujeH/rZx9MrU5MlchOcSOztlWuTD4JNTfmu9N3l8NXxmGyVa481FvjDYNuqhD23yk0rGk5ROVTwOe630BVFShoDQP6SvpxTTuzNsv5WXjNQNwzZc4NF2rQ1twqTI5ndd7nRd3lIq7t8H/v5RUDtJtcur50novUvil4u2RztDPNpfZ3LtTdY26QdU5nFUtI57rdb8Kmpw0AY+YSjIAjOEapq7Y1dsau2NQqmoVAKEoKBz+uLkZAjOEalq7W1dsau1tXamoVAQlCDs/tekDvx5Pf2ZOVgGZ6VuI9gnAuVWGMuVWZCMk913r6OvwyI5Cu48sjx/LKsz+LDkfMm9u+v87aHO0SDraX2dx7QRfqTW6C3u1W6gwIYmtb8p8oanVbQn17U+4tUlwCfcE+4p1xX3FC4plxUdxUdxCiuDU2vaUypDkx2f05TpQE6raE64NUlwCfcAn3BPuKdcV9xQuKbcVHcFHcAo7gEyvaUyqDkx2r9HlalrWta1rWta1rWruu5X93kv97Zfy6Ojz4R5exXVIYy6VmonJd3j6rI/CpDliuYzHM3DvluVsdg0xyPmT+1fj+S3lslWx+Ki3TB0O7VQa0yjAMTA1vyHHAlqg1S3EBVFxCnuCfXko1ZKNQSjIUSUdSw5eJAuTZCE2chNrCFHXlU1xVPcgoq0OUb9X6NxwJKoNU1wAU9xCqLgn15RqyUagoylFxR1LxLxIEoSEIVBCbVkKOvKpriqe5BRVwco36vmvfhPqg1PuACdcgjcgjcQvuIX3EL7iF9xC+4hfcQvuQVNcA98Ry36y+m+O8Dvd2SujrfOj9Hfqpwxt1rsmRxc7v8A+bXJh1tOYVXDLKxuCPllURwaA+H5k/tX/wDks5bJUHgks9bkwu1M/SuOBNVhiqLkFWXFSVpKdOXJ2StJWkrGxhaSg0pjy1MqiFS3DCpLkqarD0DkfOccCerDFUXIKruKkrSU6clPyVpK0lY2MLSVpKY4tTKotVLX4VHclT1gemnI+RI8NU9aGKouSqLgpK4rthXayu1FdpK7SV2krtJXaSu0lOqTizzl1TSez9aj27y/g717LOJsLMSM9PenlDG3auVRIXvGzTTaZrI7VTKpGW3JuE35ZVJzt3p+ZP7V+b+QOW0Vb5zHJaa3rAOX6OonDFVXLCrLhlSVZcXuLlpQbvkLSm5aoqktVFcNJpLjqUEoePmVM4Yqq5YVZcMqSqLi9xctKDd8otTchR1BaaO4YVFcdShlDh8apqBGKu4qsryS6pLk5xctK0LStK0rStK0rStKLVY4/wAmm9n61fs3Z/iPq2Cqbi+ys4t9PdlfpF2rtKrJjI4DZcVTRl01ibpplIMi8jCaeI+UVRDjQDw/Mm9u+M807npVpqzG+3VXWt/QveAKyu0KsuOVUVRc5zi5aEB8TSgS1UtYWmguKo6gSD5Mjw0VddoVbcsqoqy4lxctKA+IWoHSqWrLHUFxVJUCQfDccCsrAwXC5ZUtUXF3iWlAbYVlZ50HtfWv/j3N/m/52DyoeMtoZwHLuOdhXas6sV9UZXDjskpjS82mg1Kij6uP6XOHWHUuE6MhHKyUPjuVrbqNO3A+ZJ6L1H4puD9s8U06DZq0tVHOJG/PqZgxtdcMKtri4mUuWlAfHIWMKKcsNtuJCoqoSNBz8eolDG11wwq2uLkZC5acoD45C04UE5YbbcCFQVIkb8FxwK+s0CvriS+QvIahuxeuzR+KL2/rcz+NcH/kbLuVt9+2N8A5fUnCudUI23KsMh5obBTQXG1UWtUFMI2j6yR6lJShS0iko0+mwpIy1cVxQ+JjKs0aAx813pu8Xhq+Ew5bZChkMbrPW8KeQPb8wlVdQ1jbhcCqmpLj6kB8vSmSFjrbcCFQ1Qe1pyPhk4VVUBjbjcip6lzyfEg35eFHIWG2XAtVBUCRm+TgXGr0C4Vpc5x1EN36f3bOzgz0/W7u/Grj+SOWw7laf5Nub5PcuFQI47pXF5zqIGNgoAuVrpNbrfSBgaMd0osyjAFJTBTUgT6NPp8J7CFhy4/BcqNmt1vi0D510jzBcWkVI5bhVLOY3Wqty2J4c35ROFWVIY25XAkyTF7sZQHzS1McWOtdcQ6iqA9g+ESAq2qDRca8qWUvcAsfNwmPLHWqvIVHO2SPerqgMbdawlzjqIG+eVJ71ob4G8voeV3d5NX/ACBy2HcrM38qjGIPrVzNZHdq8kvcXuA2eattKXvt1GGBrcDZLAU6AKSmClpAn0akpyFJG4LDlx3So2lxttPxjbgfOrG6obtTYlzx3f8ANFUljrZWAiN2ofIJwq2qDRc64kySF7gP0BCieWOs9cdVNMHt+AThV9UGC5VpJkkLyB+gIUMhY+01yp5A9m5UyhgvdZxkeXkD4B5UX8i0N8kcvo/03h/gqfeG1ZWfkUvs/SaVrG3euU8he8DZ5qgpnPfbaINDG6RuYWgJ0QUlOFLSBSUikpyE+JwWl30ys97P0Ywk0VNxp4g0fPeMtvdN5coIm3uRt1UWvt1WHNacj4xKrqkMF0rSTI8vIH6IhU8pjdY63JjeHDeJwrhVBjbnWlxe8uIH6LCpJiyS01mpMOW7ROFfqnS2pmMjm/BPKgH5Nqb+P9ZPReHqf3NlvOzM82n9pSPDRdq7Cq5i94GzlUlO577VRANiYGj4GFoCdCFJThSUgUlIpacp0TlocsHuYK0OUMDiqWlUEIaB+hukeuG40xjkB47pTSWm1Vha+hqg9o4/GrKgRi71uTI8vIG9lagtYWsLWFrC1BZ33K3TmN1nqesG9W1AYy61upPeXEb2VqC1hawtYWsLUFnf5K1VJZLb6kSN2q+Xq2Xmp6xM5/CtrfyLaPxvrN7d5k8Unq2YvXZ2cYfbc4NF1rA1V9QXvHHZJUEDpH2ih8MEYY34mFpCfEFJTgqSkT6RPpSnUxXZ3JtM5MpSoqRQ0wCjiAH6KRuoX6l8DmFjwc7xTHFhtFbpNFUiQfEqZerbeq7KkkLy3d1rXlaCV2dxXZHrsci7HIuyPXZ3BaS1a8IOzvHgbFV6FRy9Y3cqpQxl1rcqV5c4buta8rSSuocuzPXZHrsj12V67O5dWQtWEH53SmnQbBV+OGQPbsE4XSCfEUkhfJu5WVlZWVnja2ebQ+x9aj2b0/zjtQe7Z2cGnDLlVhgudUXnnsk4UURldZ6HhTRBjfkYWkJ0YToQjThdmCFOE2AJsYQA/S3GHrGXekLC3gd5wUbyw2ev0qknEjfhSO0NvVcNFRKZHtG4X4Q8SFM5ygoH5gt5UVuTbcvt6+3p1uUtuVRbnKegeCYSxa0DuFQylj+j9RmMHO3KdLLtXACplL3jcL8JvjQpXOUVvfmntxTLcmW5C3L7cnW5PtyntxVRb3rszmInSgc7j+Vvl6p9mqesGxVu0R3up1oDx7Rdha1zWFhYWFhNHitEfipPa+tV7F6d+SNk8qX37QzEVbUCOO6VmtElxGwThRsMps1AVSQBjfnYWP1BGVd6TrG19MYnN33BRSFjrPcMCllEjfgE4F0qg2O4VBe9o47ROEDlMpnSKltzlTW7hFQgJlMAmxAINCwFgLSE6IKSmBU1ACqy3KooHMLhoTXZ3HDxWWq6tUT9ceyeVzrAxlxqC+UbZOE06k2kdIqO3OVNb+EdCAo6YBCIIMC0haQtATogn04KlogVV25VdvcC+MsQduPOF0cn0mCTW3v3d2mnrZdU21lMiMiitzimW1y+2lfbSvtpX20r7aULadVupNChGGfWtdiC8H8lvLY/xR/yKOUMpbrXak9xc4bBTB1htFAS6ipxG3/SZGBwvFDrVVEYnN33BU8pjfabhwgfrZv1cmmO7VmXO4u2icJgMhpLeXKit2FDSBqZGAsbOFLCHKsodQr7eQpYzEWHO5TS6ZbJJmDZqpgxl6qsyHxEbRKY0yKit5JorfhQ0oamMAWNqSMFVVGHC4W9TQmMtdtuCoJuqdZZusZ3ir6/yJvf2qaAyOt9tUVEABShdmC7MF2YLswXZguzBRxAIdy4u8q6/wAhnLZg8MvbPx55C94GyPEbVQlz6ClEbf8AS6iIPbeKDjMDG8ct4hUk5jfarhqEbtTd13Bt4rdKqnl8o2iVDGZDbrbxpaINEcYbvOGRV0oeLpb1KwxFpzts92x1GGRHLO+44F8rNCqZOtc3aLlBCZDb7blUtEGiNgbvFVVOHi60HCWIxuB2ycO6Ny+BhyO6/wBN7f5cvvbBVONclqoFTwhrdw8ro/wXHjO3ltF5xjZ1eK20RkdbqTQ0cB/plZTh7LtQaXOJa8b+FQ1Jjfaa/rEOI3KybQy81GqbntEqnhMjrbbVTUwYAMfAKq6YSC8UOC8dWRtf5tVRiShOYO/cajqm3mfrHs2nFU0BkNttypacMA+DWU4kbeaPQsaTtOHGzTaFQv1R92b0Xl/CT3Nm1wZmt8QbFunld3qs4yjltY2XO40FIZXWuiDGsGB/pp5XGkD2XOi6twJ1b+MK2VZjfa6zrRtnlfavQah3WOG1BEXvtdvVNCGN+HX0okbdaXRJy2iqB2Km1PzT95zsDpDUYD3dYRsuKpoTI61UHCngDB8O50vWNu0HUuj26WXTJZH6oO7Ve1d5PE71bEfrs8HGDhHuu9N7fh0/F4+G8qipjM600Ia2Jukf6e4ZF0og5lwpDE5hOd4oeFWqsLDbqnrW7VXNobfptcjOWy1pc6z0OoUsAY34jxlt2ow4VrSyYctg8qT37PJ5beXduc3Vsu1R1pZslRMLzZqHKpoRGPiPbkdIKXJkboI2mHzuj7/JHdrfYusnnbMPvWZngj9O6/09IH4lPH4ZVNB1ptFBgQx6B/qMjNQu1CC2tpzE5h3ymO0G0VulUc3WN2ekNR1anf1rm8Nl+c2ak6xUFOI2fGq2aorvS4kPA7MHuWeRR+juOOF0hn8tz9T9nmrLS63UVOI2/GuFP1jb1H1csfLZHu2J+I4uLe5cTimubvyhy2Kf37I3yRy3ZPR0jd57eXwnLo7E17oImsb/AKnNGHi8UOVVQmNzd8qGUsdZqzwwu1N79RJob0jm1GPZcqKHrXWWl0NAx8d3EXmmHV1AxMNlnqs0njh9vuVz9Ed4qNaA8Ww/lbIjJLa6QMA4D40gy3pBBmQjTtD12V/Cm9vuXR3kXD+SOWxSj8iyt/H3pziPpCfPj5fCcrLP1TqCo6xv+qVEIeLxRcZ4yxzfgUNS5klpqQ6Ice/eperZXS9Y5o2SNS6O02TDGGN+Rc2Zp7hFibZCsrvOp/a7l7kxBUyl0uzENbrJR+KJgaz455XeDUK4aZW8tgeq0HjSe19TyuzvKrf5A5bFE3z7QPxt6sdhl94zR8vhtkLDYqzhC/W3/VKqnD23aiOqRpY4HfbwfZ6vBpX6ou6Suk0nlh2XbDuVtZ1klopurHyasZiu0OCfVs2Q/kU3s/WU4bfJssf7uweVriLqi3QBsXya+PMV3GKlnLY/9Wo+Ki9n6u9N3f4av3hy2LczMtsGKfeuLsNu5zKzl8MhUk5jfZaoOiBz/qhVbTB7LpRFrneF28VQyFs1qqQYxy7lQ7S2/wAuoM9WweK6PQebAwNZ8mYZbfI8Md7mw7lZD+TS+z9aw4hu0+Xn1bDOLrNTeOnGIvk1IzDe4/yBs/5tfrofZ+snovL1P7mx/wCrUzLqHhDvXZ2BceMjeXxP/Vqq9BoJg+P/AFQjIuVKHx3CjdG/PHeb4TZKnzIDmPuXR2mK5Ta3Dn3zypRqkstPpQ5fJK6QM8l3vbDuVk/lUnsfW6OxT3CTNRsFUvGezweU3l8mb271H5juex/6tQ8dD7P1l9u9v8b/AFbH/uzMyqUYj3r4/Cqzlw287cTi2Sz1yhdqZ/qj25F2o9bK2kMLmnedys7sT0EuY+5f3Yp5X5l2H8rSNVRbosR/L6Q/xn+9sO5WT+VS+x9Dyu8nk1n8gcti3w5ntbcU/wAqX0XlvGX17A9VpHGj9r6ze1fH+ds//SxN8EPp3ukj8Fx1HZzxgpy9s8JY7aKoJiya11oewcv9UkYHC80OttVAYHNOd08qQ6H2Wo1Icvr0id5B97YPKyR/kUoxD8vpC78d/vbBVkH5NN7P0f6bxJwqPdGwPVaYcmkGIvlSei8BT+5sD12cKl9r61Hs3135LeWx/wDXo83MTOW6V0pd42bR9Vli1xXGh4T+GQbQ4Gz1WmSknD2f6rPGHtvdBlTxmFzDkbhOldGpcyt9P0k5X93ln3dhvE2WPzIfb+U7lf3eS73tmyN8+n9r6S+3eZPFL69hvuWRnhh9HypPTeOVR7uwPXZW8Kf2/rWu8q9/yWenYA83o43yN55w3pQfHFtP9fRpuY6yAOhulIWy547JVO/q3WWt1GN+pv8AqtXCJG3mh8Tx1ZG5Ly6NHE0Lss+lQcR3qTIPr2IfcszOMXo+VNwZfH+A+5sM9VlZ5kPtfSo9q9Seceew33bC3ymcvlSem8cqj3RsD3LE3wQ+n63B3l3fjOzlsRNzL0fGKfeqDhvSM5fFtP8AX0WHlPGW3ikyyoiLZdpyt85hfZ6vrR/q1fSiRt1pNMnLck5WE4lonZb9K3hDdX+L/wBbFP7tnHBnp+VVnEV3lyT6tiH3LNGovR9Kn2b278kbLfe6P+yPlyei8OU/ubDfdsDfKZy+t0d4blxmby2KRuX2QYg3q44bfTl8e0G5f0ZbiJVcfWMvVHoQzr2jwVlq+rNDP1rf9VcMi6UQc2tjLJRtv5Wb3LcfD9LicU9xk83Zpves/pZ6flXN2Ke4S5m2CqX3rPH4G+n6VXsXv+U3lsN97o/7A+XL7d5d4pfXsN97o63yB9TyvDlW8ZBy75521mXWsYi3ro7DbqcuZslUrdTrC3Ef0vFPrjr6bqnNO0VFJodY6vwxP1D/AFWoZqjvFHhP4P2n8rR7ls9P0u5xTVr/AMgbNP7tndwZ6fknleJvJqzmcbB5UIJqbRH+P9ar2L3/ACm8thvvdHz5LeXyp/avT/Ndz2Ix53R8fj/U8r6/Bn4uGw7nZm5VAMR717dhtccubsuVtbl1oGGfSVmsX6k4PZocNohUVUYn2epD4h/qpV4hBgq4yJ9p/Kz+5bfT9L078eq/kjlsRcH2aTjF6PkzHEd4qfFJxfs2yDM1vGKf61XsXv8AlN5bDfdsT/BF6flVHs3x/wCQNmmbmWxjFP8AV3LpE/Eh47L+dgbkUww3e6SP0tkdqcNl6srcm3jDPrWwCVt+purdFt8nWmtLHUUoki/0IuAXaI8tcD8GvbqhukGl3+dl/Kze5bx4U7leX+TU++NnkrJL51Pxi+TcJg2K6ykzjZafHZoMqnGI/rVexex+U3lsD12ebCpTmL5VWcQXs/lM5d8qgZl9oGIPq/09JXeazlsP9XRluWxjA3uljsNjOTsyLo+MqlGG/Uq9UnWKui6p7OW1A/TJaKzhE7Uz9+U+djVXV7QH3F3aLZVa2N5b9R6L03h/72ZOVg4y0bcMUnpvL/DP72y7lZ3YqKGXMXyJHYbeqvBnOt42Y2kzWCHyBw7lT7N6Z5+1b5iJ7Y7VT/Kr3eVeP5LOXfdztLMm3DEX1nOGdIz50XLYk9XRVvg3iulZyIeezKujAyohgdyeMPbfKQ63eA7dtqCya21Qewcv3r5Q1VNcwC43BTVT3LUdVlqvMpzmLfn9F79P/vZl5dGm+dCMMUvovD1L7myeVGdElmqdaHL49yqhG26T9ZINknjbafrH2tmiHuTe3eY/Mf6tmlOJ7PUDq28R8m4u8u6/yG8u+71WNuVSDDPrWOwy/cZY+Wxpy7ou3DN6U4HSU5EXPZlXRMId640wey6U7mzDhtjwmy1ZElNO2Rn7txwJ61jFX3EEVNW4l8jnfQ8rW/TPbagOj36w4iu8wK/9bONS6NxYlb6VUe1eH+N/q2jwXR+fEsEoez41VOIm36s1uzq2i0l/R6nyyJukdyT0XiNT+5st4Os9T5lM7VF8g8rq7w3DjM3l33ero83LYBhv1uLsNvBzIzl3yqduXdH24ZvVZw2/uyo+ey8ZPRRuO/I3U28UeVUN0yjaKpn9W6yVeUxwcP3M9SI1V3RuK6tLjJM5x7kZ0OsVVl8Zyzeu0mmCulzNslUg1PssGlDkqr2bxJ5+25UUnVPstX1iHL4k8oibe6/UpXl5Gy44VBD1rrNB1cfddyvEXl1XvjlsFUMnVy2mtD2jl8Rz8JsoJR5Xl+FV8ZBsP9fRhuWNHcu7sC5HL2cu+5W9uXWZuGb1wOGXl2SzZKhbqPR1mkd+uiD4rrRlj8+LacrZU9U601QlH7eaQRioujWKvuXWKedzjknvP5WmXqpbZVCVu7IcMvNcMS+KXZfytA1T2+HTH9K3+Pd3flN5bblZqvqXW6pEzfhzSCNt3uIIqJS9w2i3UejtMoWaR3rqzNPXx4qBtclZ6kxyUNWJW/DqZRGx9zDpaPLkE7031+HS8XbDhl/Rdvl9y/Pwqk6nDYerOMutow3eu5xHcXZcNlyt4y6zNwO+4ZF5ptUVTAY5Qds5CsVZ1So5xMz9o84FTXiJVt2D1V1JedR2WnSrFVaTTzCRu2eVzrgxlfMZJdr1Kx03nQDEX0uDvIu38pvLcyQbNcOqVHUCZvwaicRi53TIqJS92084Vqh659qpuqb360ZgutPiQ89kqN2k2iu0GjqRM34NTUCMXa5+ChldJXW5vkJ3p6RPxLz2Y25f0bbiPudJnYROTsSKwDLqMYbvX52Ial+p42X8rQMvtjcN2KmPWy90ekacO2ionlrrFV4bG/WP2TzhtxuOhV1aXouJO0VSzdUbRXqGQPbskgC43ARC4VhlceJ2TypPFPaKXDG+n6XN3lXL+Q3luFMcWutdz6tUdUJAN+trRGrhc9SnkL3bTuAhb1rrBR6CxuG9+QZbfKfEbvd2ionlhtVx6tUdUJm72VXVgiFfctSrJDIrI38qiH46f6OkrvPj5d8qkbl1iGI+50qdxYdmVdGRl0Iw3e6SuxAXZk2ZOViGZKJuG7N0p+tZdabqDGc7f+aCq6t9pqNcQ/ZTe3eYTmX1jcKpKgxG23JU8okZ36mYRtrbpoVdWGYnjt8zaqXM1AzTD9DyurvBX++3lvRktdQXIsVDcdajkDhtZCqJgwVt10KsuBlUji4jb9Ss9JmSip9DNm9R6oKqDRLuMcWmguRjVFcOsUbw5u1kKpnDBV3TQq24GVSOLljKssf5FL7KqHYj6RHM8XLvuVsbl1pbhn1ecDpQ7Ji2Zl0UGXN5b3SY+SPc2ZeXRwZkpxhuy5uRf6TWJouqcDtjg60V+k0r9cX7E8ReIPJqsioHLdp5jGaO7Fqpa/WopmkamrU1F7VNUtaqq5aFVXYvVROZENyIEzWSk8uMYb9Hem8PVXxlHwG8DT1ZjVLdiqW4a1DM1w1NWQshZCyFqCL2hVFS1qqrpoVRdnPVTOZN0q3wl8trogxreA2apmtl9purDT4twcDTVZjVJdyqWu1qOVpGpqyFkLIWQtQTpGgVFWGqpupaqi6ueqicv+rOdmj8yD2lWnDL7xmj5d96sgybeMN+tQcN6RnJi2XjK6KNwd5/LpE7MY9zZk5dF2+YwYbtVUHWNv1Noc3huUz9Etor8iM6m/sbi3VBcqbTLvtODDWOYmXZ7V95evvL0by9PujnKapL0eKxuE+K1UfWOt0fVxfV/pvb/FNxd8EqM6VDWFijuz2qK7uKiuZKFwX3BPuKkuhCkvD1Jc3OU1QX78LXPls9AMRN0s277T646mHqnNO9G7SYa5zEy7vChu7io7llC4I3BPuSmuzgn3h6kuLnKWYu7sXuWZii9CuTsNuxzKzl35F0eGTSjDfrXuw29uy6PZibqPRxmN+c4bfXZb/72XcV0Yb5g5bd1oxKLnEYpY+W1yVsqS2W3VIewfsZhqZfKbDD7n6IlQRGR9jpcRtGB9ZPRfn+a74zXYTZyF2py7W5GpcU6UlHj8DDnPstv1ClhEbNyoi6xvSKl0pmQfgMfhNqCEKpyNU5GoJT352Kf3rOzwx+lXh2BcDl7eXflXRcZMYwPrdTht0OXN2CqMZdY2436zhHeXIerZjGT0ejw7clbqZe6LLpW6HDbadBsVYesgkD2fsb1Fqhq4dEmf0RBcbBR6lTRCNvcm9vpA7zx+qynAuNnoNaoKcRs3rpSiVt2pjE+P5h5Uvv2dvlN5K/vwqg5cNiVdE292+Owysdlw2HcrWMyWpuBvXA4huj8u/zsFUYy+ysxvV9OHx3WmLZuW2VSydU6xVmtAg/salmtl+ptIaCHfoH+JWakMjrdTCJvdqT5XSA/kR8v1GU4F6s1CXmgpGxtAxvvbqF5otSq4jG9p+WeVH/ACbO3yPp0mdgk52QMnow3Hd6Suwx7su2H8rKMy0DcN3rscU9c/Mmy7lbeMtqbw3XjLbxRgsqI3NmG25Wqp6t1sqesb+xvVP1jK6DqnNOfnuOVbKV0klrowwNGB3a0+XfPfj5fp8rBerRQOc+gpGxgDHwZ4g9t5oTqlYWOHyjyoR+Tah+Kjy6Uu8UewVTjLuj7cd3pSfA31bEnLo+MzUrcM3r0cU1S7M+y/laOM1ub4d6sj1x3aj0k8HbeotNirNKpZesb3TIAQc/qpGBw6RUeUWmIg5+aXZVFSukfaqHSo2Bo71wdht44zM5fpi5NYXq129xfRUjWNAx8Osp2vjutA4Pe3QQflW6P8i2/wAZSnDek5y6LYcqAZdZW4H1ccLpQ7wR+rYl5dGeM0Qwzevzvx5v5GzJysYzUUTcR7xV4pg+KtpzE8OztkKGVzH2GsHVtcHD6nlMHdZB6P1VdAJG3mjLXjwIfLL1SUjpX2ug0iKMNb37s7AuPGRvLYLsIHPzC9QwOlNstxzR0zWNAx8QqvpmvjuVvcHPaYy12fkf5tbPMofYVUcN6QnLo9h/K0DMltbhv1mOG9IjlrPVsScR0YZ5zfTuu5X13ky+/sv5dHx+RTjEW/KzUL/SeExljtv/ADb6osfa59cXcLOLeX6ojIudH1guNGWP1Y+SThA5VLb3yutdBobFGGjYvb8KrOXjYyoqUzCaIwoO+S52E06lBQPmNstpYqaBrG/GIyq+mD2XK2lSxGEtfn47fXaI+NLwiVecNvZy5mxJysQzJRNw361Zwy+uym89hvFdHY8SN5bsnpvbvLk93ZK6Pt8+L2/gXCDrW3mm6os3GZa+z1+FTO1x/sHtBFzodYr6MxvD+I+M5+FC0ymitbnG20IjaxgG10ifhzzk7BGT0fg1MulrL1U0LokX4IOfikrWooTKqO1OJt1CIwyNo+ThVUAeLpay9TUboUX4LTn4od5ljGWwehXU4bdTlzNiXl0b4y07cM+twOI7s7JHPvlUwy+xswRy3ZvReXcH+5st4mxR4kj9Hwb7SdaKuPqHMOdsqkeWTWivDmtOR+wkaHNuNv6wVttMRcS0tPw3OwmOLjT0BmVvtGhUdMGAAbR5dJ3eNvHYKibl3RxmGyMDm19B1iq7QWmeIxISFA/BJWs5hjMiprWXqhtWhU9OGAAD5kkYcLhbusVXai0zRmNazkH4JctZVLTGSSzUumNgwFfX6W1j9Tm7EvLouPOZ6frdjiK4Py4bB5UHGW0Mwhy3an2rvJxd6tmn4vsrOLPT8GePW2/0njxoQ3LTUFktBVB7P2LmgiuohKKy0YVVTmJaigd4lF5TNTjTURlVLZeNFQCNMYANt58PSd3mR8u+VQt1OsjcNRAVRTh4rbTrU9p0KeExoucg4obeUXFMLiqemMihtGtUlo0qmpQxNaB88gFVNMHistOpVFq0KeIxrW5BxQ2ySi8qLU4w0ZkVPZtSpLV1apo9Dfp0kzpkDi7S5aXLS5aXLS5aXLS5aXLQSujURbIOX1vxxBUuc6TDlhyw5YcsOWHLDlhycHYtbT11sbhu9W+xdi7rSHZw5YcsOWHLDlhyw5YciHYow7rbQzg3l8K40fWNulMY5PEF4l4l4l4l4l4l4l4l4llyJco3uYbJXO1U0utv7KeEPFXahIqi0aVUUpjT9YILkCe/xWSiXJmsmCnc9QWvWqeyhU1vEaijDRjdqHYb0jOZIuXfcrSMutYw36loKnpg9VNpD1NZQFNbtClhc1O1hanrLllyy5ZcsuWp6Beo2OcoaMuUVq1KCyhU9sDFDThqa0D9G5oKnpQ9VNpD1NZsKW3aFLC5qfrC1PWXLLllyy5ZctTk3Wo43OUNEXKK0alBZAFT24MUMIYsdy40vXj7MF9mC+zBfZgvswX2YL7MF9mC+zBCzBUNCIT3K+Dro3WUF32UL7KF9lC+yhfZQvsoX2UL7KF9kCpbOI308Wgb0zdTKm1CR32UL7KF9lC+yhfZQvsoX2UL7KF9lC+yhQ2YNfS0/Vj4bhltbbRK42QL7GF9jC+xhfYwvsYX2ML7GF9jC+xhfYwvsYTrEFR2jqXU8egftJYQ9T21r1NZWqW0AKS34UlK4J0L0Y3rQ9CN6jgcVHRkqO3ZUdoBUVlaobU1qipA1MYB8Cudht8OXx7EisYy+gGG958QcpaIOUlpa5SWRqdZmhfaAjagvta+1BNtITbK0plkao7O0KO3Nao6YNTWAfqMKSIOUtEHKW1Ncn2VqdZWp1oC+1BfakLUELQE2zAqOyNUdoaFFb2tUdOGprcbGPgYWFhYWFhYWFhYWPhYWFhYWFhYWFhYWPj4WFhYWFhYWFhYWFhYWEB+3IynwAp9G0p1taUbSxfZ2L7OxfaGJtqYE23NCZRtCbAAg3Hw7o7Dbs7L2bEq6NjL6duG7JCMYK6kLs4XZguzhCAIRgIN/YYRjCMAXZwuzBdnC6gIRBBuP69vbsCuOXN2JuXRXjIweH/gbpI7AkOSNiQZXRRvjHL/AIG6Ung05Owwaj0cZh3/AAMV0qco+ffKpBl1jZj/AIHlOB0lOVFsO5W7jJaW4H/A1WcNv5yo9h/Kz8Zbc3w/8DXB2GXl2os2JOViGZ6JuGf8DXg4juDsuGxJy6OjNRAMR/8AA1/dpiqH6njYfy6Nj8iP0f8AA3SfPU+MyYcsOWHLDlhyw5YcsOQa4ro9GRKz0f8AA1wpRUNFibn7I1fZGr7I1fZGr7I1fZGr7I1fZGoWRqo7eISOX/5I/wD/xAAtEQABAwMCBQIHAQEBAAAAAAACAAEDBAUREiATITAxYEBBEBUiMkJRcCNhwP/aAAgBAwEBPwHykRcn5KntXEbLr5O37Xydv2pLRpHLKWJ435/wRuat9F+T7aykaQcspA0Pj+B0EHEPmmbS2G3XKk/If4EzZVuhYY87zFjHCq4HiP8AgNOOqRmUYaBx0LhTcQdSdsfwC3hmTPRdtTYVfBoPP8AtIZ59Kug4saMdL48/s7YB+ncqbQ+pvPm7q3DpDa1WzHpfdUwtKDqUHAsP1mF3Q0pkvl8v6T0MjIo3Hv5XG2SZQjpBtjKpPE7uqObihuudN+TdLCGIiUdvkJRWzH3IKCJkMQD2WU4s/dS0UZsqqmeF/KqYcmh+1tkxaQyp3yburfUaC0rOds0fEDSqmLhnjcwuo6YjUdrN1FbmH7kNNEPsmZh7LO689m8qtwajXtsrnxEifLoX0vlUFRrDG1lcqbLamWFhNETqOiIlHanUVEAd00cbdmWcdlno3j28qs4/U+25l/lj40M/CNCWps7THW2HRWzJKO1sKjpwD2WB9lnq3js3lVrDHPYyuh+3xZW2q1tpf091mY+XlVCGImfYKuhf642U0zxmojaQct6WrqGiFSnrLPlMbZdUzYhbY74bKry1S522yp/F+oRMyKujFQ1LS9t0kjRjl1V1Lyl5VSjqkUbYDGyblG6mfJbYJOGWVTycSPO/LI5hFHcQFS3LP2oqyR/dRCUxKmpmiHa76Wyq+s1vgfKWbKGnIlQ0TiWp9tUWIXT991sqMPpfZxBZSVYgjugqWvIuyeoN/dO+fgAOT4VDSNGOp91wrPxZO+fJsIYCJRW8i7qK2MKCEA9ly9ttxPSON4G4vlU1WLhzUteIo7plSVZknkJ9rNlW6j/J91bVNGOEZub58kwghIlFQE/dRWwcc1HAMa5b2V3LD46Gp2Wp+hQ0mt8uhFhbDbaidohVRM8pZ8iwhhIlHQGShto+6ClAOyz07qWo/QUlO8pKKJohw20zYGy6rKp5C8hYXdQ0Rmorbj7kFJGKb6eyz03JmUtaAMqmXiFnrxRPIWGVJTtEO3sq+sz9LeQ09MUrqnt4j9yEBDss9LC1MykqwBSXNvZHXSOikcu/XEdT4VBSaG1PuuFZpbSyd8vnyCmgeUsKCnGIVno4TkzKSpEVJc2ZS1pl2RSkXf0Vuo8/U67dttZUtEOFLI5vl/IGVsh0hl+i7syKpAVLcmFS1xH2Tyk/pKGleQkAsDYbbPK0QqpneUvIY/uZQDpDoVNY8fZSXAiRSk6z6WmgeUlBC0Q7SJgbLququI+G8ij+5lTlqDoSUYSKa2/pSUxAnbHpbVpwn23EnaPyNlbJshjo5RwAfdTW5n7KaiME4O3o6GbhyIS1NnbUxcSPCmDQWPI6Sd4zUUjSDlullOAl3U1AJdlPbyFFEQ+hZ8K3T6x07WVzp9P1eSUVZo5Oo5Rkbl08rk/dS0gH2VRbtLZRNh/QUE/CNM+WztqYuKCkHSWPJKerKN1T1wk3NCTF0ykYFVXDPJE+X9Az4dW+o4g43XOn0llvJWN2UNcQKCvEm5oTEuhPVjGyqKwpPR0M/DPCZ8tnbVRcSN1IGl8eTMTsoa4gUFwZ25oTEthEwtzVXX45CpJnP0gvh8q3z648be6uVPpPV5QxOyirTFQXBn7oJBJlNUjGyqa4jfknfPpqCfQaZ9TZ21kPEjUg6Sx5Sz4UdWYqSoKTv6ERyijdtzPhUE7SBp3XKn0Pq88pXbW2UdGBMpLZ+lJQEyKAhWPjbp+Ga7tnbWQ8UEY6Xx53C+DZRHqFZWBR0wGpLczqS3EjpSFMzi6oZ+KG3/iuVPoLl52HdUBao9vJFCJI6AXVNTvE+6th4kbuibD+d2osxdbGpsK4R6JPO7UfLHWZXQeefO7YX14Tt1WV0fl53BLwyyoriz90NVGSb6uyx0mVykyePPGfCGYmUdwIVDcW90NWBJsOsb6mZogU0mss+f5QzEKjryFQ3JvdBVia+l/jyUtSMbKrqnlf+B5QTEKCuJkFyXzJSXF1JOR/+A2//8QAMREAAQQBAgQFAgYCAwAAAAAAAQACAwQREiAhMDFgBRNAQXAQIhQyQlBRgCMzFZCg/9oACAECAQE/Ae6ScKe/oPBDxIr/AJEpniRLsFMeHjh8C3LXsNtWwWHBTHahn4DtzeWxZ1HO6jYP5T8B3ZCZMb2u0nKryiRvwDM7SwlPdrOeRSm0HSgc/AFt2GFN5AOOKqTa2/AF9+OCHJqS6HprtQz3/wCJH7hy6U2oY7+KvHL9hX4b7NQ3QymNyY7UOcThGZoX4yNCywprge639FK7U7YVA3MStR+W/dRn4YPLLwE+2xqfeHsnW3lGR56rCBI6KO09vVV5xIO6pjhq/UdkQ1OwohhquQ6m5XTbG/Q7Kgk8xud2QnTNan32jgn3s9E6aQrieqwN3hnv3VcdpavfZTGZUERlXIdDs7SMqjPj7fplF4CfZa1Pvp9tzuiL3lY/lY5Ph3v3V4kftQ2UG/5M/W1D5jERpONrXaTlNu4anXyU6dz193O8NPXurxF2UPqei8PbwzsuwaTkenoRaePdVt2X42HoqA/x7Jo9bU9pYcH0taHzHJjdIx3S44Cm/wBp2DicKo3THjbeg/UhyspoLk2o8p8BjHHcxhe7CrwiNvdUxw1P4vzsj/2BRjA2yM1twpmaH45DYnOTaLyo6I902swJ7hGFPMZHbRx4KnW0DJ7pynSgK3ZDm4CGyu3MgQ3XoMtyNgaVHXc9MoFR1GjqhE0LH0c7SFasazgbqdb3Pc+U6VoT7gCkvEp0rnrjtojJzvc3IU9Yh3BR0y5M8PwmwNCDAN1yz+kIbakGs5TW6RjuV0gCfcaE+87KdM56weR4aOHI0hY5FqxoGESXHJ2xRGRyhiEbcdxmQBPttClun2TrD3LHLoM0t9BPMIwpHmQ8drGl5wFWgEY7hJwpLLWp97+E6w8rr1WOWASo6r3FQs0N573hgyVYmMjtvVU62nie4ZZgxTXC7oi9zuqxysrBTKznqOifdMqsCa0N55OFcsajpCG2nW1HUUBjuCaXQ1SyukPKysEqOBzkygUyq0dUGAdPRXLOOA3VYDIcpjA0YHcN6XLscjKwSmQuKjo5UdUNQjaPSWp9ARJccnbFGZHKGIMHcL+ilOp3Igqh6jptagwD000oYFNKZHbQC44CqV9Az3E/opm6XciOy5qiu/ymTNcs+lv5Q20mjV3Jfjw7PJwmyuaoruOqjstcg4H0dqPWxY0nG2CTQ/KjdqbnuOxFransLDjlYQc5vRR3C3qorjXJrw70VyHQ7VtKozahp7ks1tY4J0ZYVnlYXEdFHYcxQXNSBz6C1F5jVjBxtgk8tyYcj9wG4fsY5c1cPU1QtRaWrPKDC5VqmOKAx6Aq7Doduozahg9yloKkqBylqFvROaWrO+Gu55UNYM9Hai1tWMHG2vJoemu1DtIekwFJVa9S0yDwTmObsDS7oq1PPVMjDfSEZVyLS/O6lNluO6MJ9ZrlLTPsnMc0qKB0igqhqAx6a3FrYiMHG2tJoemO1DPdTq7XJkTWdPQk4QeDuIyrkWh2d1KbUMd+T/kKbac0qO8m22psocs/W5FravfG2tL5bk05Hfcgy0qRul30+5MncxR3SmXQmTtcjghW4vLdupTa2+hHdR6K4MSbcFCRzUy24KaYSjdVk0Pwgc9932/fzuhyqj9TO+77fdDmnovD3fbjvu837E080rw/ukeilZrbhPpEJ0Dwvy9VnlFUWYZ3SPR4RjaVJTDlJRI6J1dwRyEDvgjL3KNukY7/AMIxgp9QOUtL+E6u5q4hZ+mSo4HPKrwCMfAeEYwU6o0p1IIUUykEyIN+Zx/asfMQ5A/pgP8Ap5HwUP3Af2mH97x/4wv/xAAoEAACAgICAgMBAAICAwAAAAAAARExMEAgIRBQAmBwgBIiMnGBkKD/2gAIAQEABj8C/VOyy+F/wa4ZZZZZZZ2y/wCCn3g6L/gmP4fSJ/hNL+FF/CUkf+yh/wAJv+E3qd/v71I/fmPVS/fWPWX748U5JEv3x45IyJb9lll/rDHkb9RZeC/1VjyN+ksvLBP6mx5W96yy9FC/U3t95bLLL1EL9TefrWsssvXQv1Jj9FZZZe0hfqTHodZbLLLLL3UL9Sei8tll+gQv1J6TZHrUL9Sekx+tTI/ZW/4Ub/hN/wAJwTtz/B9cGss/vlFFc2ss/q3XpKKK1k/1Syzp+hooorLOOf1Kyyy9t8aKKKzdM7/XLLL36KKKK0Onl7/TrLLL0loVv9r9MsssvVXonk7X6XZZewvQtZJ/SbL20L0DRP6ne8vQQT+o36CvWz/at/wl09uivTv9P6ezRRXqH3+oPWoor1T7ypx+htalFFFe4Tj9DY9GiiivXdP9QY/oN5e1+K2X65j0bL/HLLLF3jbGpLLLLLLy2WRIstlllll4rL5sssnBJEllllll4np3+NMflIWJj5WROKR9j8pZH2XyQubH4QuLGIU4GPmpwt6t/i8jU8EfHEx+aK4LCxrgkLCxqeFFFeFgflcn4WFj80UUV+bMfBCxMfmih+VgkakfBIWFqSfNFFFFYGPwhcWNeFhY/FFFFFY5+mx9dbH8ZJ4IWFjXleGPysDGieCFgfBOMrH4QuLH4WF+F6y/t1llll7jUj5LCxryvDH5XNj+Mk+O15QsD8QJxmY/CYlJZZZY1I/CwMa4WWX6qy/Xpe3sssssssssssssvXY/jJPiuCQsHyH5ssffBc2NEkFcFgfhCeZ8LLLLLIknwsDH5sssic9e/byr2dlllll4rLLL1WpH478MfhCwMfmy/MCcYGpJIFPh+Uhc34TFmeRYGPkhZ69+3jkS9lZ/yOnoWdsvTY1JPmx9+ULAx8qO1gY48osvyhc34Qsz80UUUUURjaH4oooooWhRWxR2uFl77yr2FnT8d6PR2y9JqSfNll8FgfmiiiisL74WWX5Qub8IWZ+EhOCiiihuBrEx+e0UUUVp0Vq0Vws6foW8keuscMs71OixS9Fw8S5sflFFFYWOMKFzfhCU5n4QuLHiY15WzRWlXCx9nTOxegfubHD8d63XhJvO++FFFFcFzY/KyOH4jxRRRXBc34ksXfmyJE8D8Ji4sfhYPkNcLLL2KKzUVwscMs78L6w+xpPcSnM4fiBOCiiih+VzY/CFkanwhdFFFFD8rm+Fllli/wCz44H4XJj8LAx+bLLLFs0VjrjZfFfV2NSTuLsSnIx+ExcWPyuTH4QsUjQ/CcEcX5WBtLmmLmx+FxY15WBj5rbrDXCx9l8l9XakndkXYsbRRQuiOLH0VgfihOBY2iiiuTKK8LBMFFFFFCcEc2UULixlFYWTBRRRRRQt6sL7H39efZO/IlOSisEwVhorJHiisFFY6KKKKxUVgorFRRRRRRXoq4WPssn66+/Rr8PsvbvTbIxx6ZqfRr8OY+9t9l8H4svI8qXpH2PNRRRWj2ivw57b7Gp8Lyx8bLwtkY16NjU5aKKKKKKKKyUKUV+HvIsz7Gp8rg+dll828iXoZGpHkornQ4RWHooUr8ReRZWNJ8FweKyyy/LfrWNSTjoXWJwh9c+iivxJ5Fk7Gk+K4PLZZeaPQMeOBOMjhHfLtFfibyLH2OHifvWh40LK4R3wUor8TY8ixdjhj7O+S8v3jGsiFlfQ/KlFfijHjQsT7H2d8179jyJHxzdIoXRW7ZZZZZZZZZZZZfrLLLLLLLLLLLLL9ox40LCxqcK9/wDIeRCWetuyyyyyy8Flllll+lssssssvBZZZZZe/ZZZZZZZZZZZZEk8WPGhYGNSThXv/kPJIvjPqLLLLL0LLLL9DZZZejZZZe3ZZZZZZZZZZZZZYhcXkQsDUk4kvf8AyHmSn0tkSWXq2WXvWWWXrWROxZZZeVHx4MeRYGpyIXvmPNZfo7H2Xs2WXt2WXs2LsvVsfeghcGPIub7ypwR75jeddl+gsfZe6lJexY+y92y9N9j70ULgx40Lk+x95FKwV7lsedd79jU+gSkvWsan0CUl6L7H3pLix40Li+xqcnaKxUUV7Vj0FL3X2NT6JKRd6j7H36JKS877HD0kLix40Lg+xqcnaF1moorSr0DQ3BGddi7232NJ+kSb07H36RKc7h6aFxY8aPj5Y0nkoTjSoorNXom4HoLsXey+xw/TKWdaFjh+mSnK4eohcGPIheOxpPIhONWiiisVejY3GipYu9hw/ULvQcP06liU5Gp1ELgx5ELw+y8fQpWzRRRXCiivSQOEd6Kl60jSfqOhS87SfqJFLxseohcPkPIvD7HDx9Clb1FFepbjSUvUkaTHoUUUUUUUUUVoqckj+Mj0KKKKKKKKKK0V3hka1ULh8h40J+HDx9HaK+kuFppNk6TH3nooornRQ+is6Uk42pH3nooorzRXmiiiYz9vCxrLRRRRRRRQuLHjQhqccCcFfS24I0l8ZJ0GP4yTloorLQ+syFiY+yckFFFZaH1rseSiiiiiiiiuTHjk/wAZxwJwLr6a3BGkvjJOZj+Mk5IJgrQofWZInC1JOVOCtChuMywMeKBOM7HkjFAnAuvpzH8oI0bEpzMeVOCtN9EZEhPAx5U4K024ypYHjQs71oE4F19QfQ3BGjYu8rUk5E41X0PrIhYH3lXWq+h5FzY8aYszHrULoj6hA+huDvRsvGx5E2tduCMaEsDyKVrvrIhcmPEhZ2PWXX1R9FHeiu8bx9CbWwxuCMaQuTHi6O1sPKuXyHiQs7Hq9nX1VwtNSycLyLrZbgeNC4yNTkTjYY3kXJjxIWdj+2OFpJSLvAx4+1tMeNC4seKBOBbLZGNcmPEhZ2PV6FL+rPobS0ZF8ZFzeRdbTG8aPjxaHiQntMeNC4seJCzvXQpf1Z9DcEaCEp5vGpFtvGj48GNYoF8oFtMeNC4MeNaD2Ep+rvobgjPIlIuTWKBPcY8SPjwY8SE9tjxoXBjxrQeyvjJP1ZwhvQQuLHiQtxjxI+PBjxJi22PGuLHjWg8k5UL4z9XcLQkS4seJC3GPEj48Gh4k9xjxrj8h41oPK/lBGORdi+ruERnQuDHiTFuMeJC8seNbjHjXFjxIWdjyIY/kRjkSn6w3BGdcGsaFuPGheWPEhbjHjXFjxLQY8iIG4HlXf1d9D6zryx41uMaxoXn5DxIW4x4kLi8a0GPNA/lGW/rD+UDWZeWPGtxjWJCfD5DxIW4x4kLi8a0GPOxvKpf1dj+UEZV5Y8a3Gh4kLh8h4kLcY8SFxeNaDHoOFlSFL+rseVeWPGkLaY1JOJMXD5Dxrc+Q8S5PGtB5FxY4R3kXxkX0PsiTrRY3lXljxpC2mPGmJcPkPGlufIeJcWPGtB6T6zL4yT9B7HDLF3pPKvLHjQtljUk4kLj8h40hbbHiXFjxrQeRcmNpEZF2JT7/ALLOmWSJSLReVeGPJIlOy1J1jTjkx40JTtseJcWPGtB6b6HkkUsXvbOmXwQlotZELwx5VItfsf8AizvGuTHjkSkW08a4vceRYH8oIySLv3jUjhl8ZEpFnY8cCfn5DyyLvWljSeRYGx45F8Z2njXF7jyLAx/KCMnZfubOmXgkSzNj+Mk40J+fkPN2y9SWNJ5VKwMeRSxakn+Ek+GPGuL3HkWF9DyqWT7WSyJLxqXmfxkeOBMXljzpNkzpWP4yXlWBobyqXqNSf+ReGPGuL3HkWGBuMyTZPs5Gh95l3kakfeSBfKODHoL4yXoWNSTkgTjDA2PKlJehY+xiPj4Y9B7bHkWJjypC79mxsjOlJM4LH2XkgTFwY9CSJLLyWRJeWBdCxMbzRJZeSx9l+UfHwx6D22PIsb6yyL4yJ+zbHoRJZZZZZZZE5kL5QRwenZEllll+bLLLLLzoTjHA3nsiSyyy/NllllkTxQvDHoPbewxwssi+Mk+yY3o2WWWWXoL5QRwY9Wyyyyyyyyy9CBfKCMjHoWWWWWWWWWXzQvD0XjWg8iytwQsqEp9lA3HplK4sfrehfJojM4R3vry9BjxrQeRZWNwRkkSbF7Jj9H0J/JcmP1n+on8loPo6R3uoXl41xY8a0HkWZj6IyShJv2UDaXouj/ZFcmP1f+p/sitFuN5C8vGuLHjWdjyLNA3A8tl+yfQ/QQjtC65sfqoR/sitJjaRG4heXjXF5FnY8izsfyjL0JNk+yf+KO96ChOMDH6noTaF1qPobS3ELwx41xeRZ2PGhaDhDby9CTZK9ixwiHuQSKVhfqehNorWfQ3B3tIXhjxri8izseNC0XCO8qUi9k+h9EbcwKVieOUd7nSFKK2KH0d7K8seNcXjWgx40LSfWWRfGSfZNwNwRszB2sbySkURs0drbocLZXljxri8a0HkQtJwiMqYvjJPsn0NwRqwUTBWR5X0Nxr0UVvUTGsnAvLHjXF41nY1kQtJjaRGVdiXs6G4K06JgrKx5qKKK0aKKK9DRRRWjRRRHl+aKKKKK8ULk/NFFFFcFnY/NFFFFFcFqNwPrLIl7WiiistFFFFZmPQooooorDRRRRRXpaKKKKxUUUUUVyoooooooooorjBMFFFFFFFFFExoQTBRRRRRRRRRRMa0wUUUUUUUUUUUUUT7eiiiiiiiiiiiiiiitFj06KKKKKKKKKKKKK9XRRRRRRRRRRRRX49RRRRRRRRWq/4Tf8Jv+E3jX8EPGv4IeNfwQ8a/gh41/BDxIX8EPEhfwO4GUUUUUUUUUIX8DwUUUUUUUUUUV/8AJL//xAAoEAADAAEDBAICAwEBAQAAAAAAAREhMDFBECBAYVFxUKFwgZFggKD/2gAIAQEAAT8h/lNm4Bqcg9A9yPcj2I9YaYaFbf8AwS9huyWgKmR8oL5x7w/mD+YJVhGgpKv/AAQ9ZLoQr6JIi6wiKQUKFPIlav8AwMpxYooqJjQpPA5CbELyJ3/wKpGqNa0xMaSqpFzWIRX/AIEW0txmW+ohum7SS/8AwHYjKYk1NsjEKiM7/wABZgsKm9qvYcjVux4P/wAA0GUlRI9baQXSWqL/AMAWPoezwORDYTYhM/n98hZBy8BKS4TqxO/z9RIA5eDaZWk2Jrf5+ehJeEaEKC2iYQlX8+vGLo9+Gm4kUQs/z7L6j/aF4agxCYZk/wCe3hGMP2BeIxSopSiyv56aOYg39C5gzCGPpPYom4SC/PpUVfJfZf5XaMZkNzQTxOKGsgW4WjsHrdF1BbeVUNfkQ7nK9EKdAcHKHMCOX8qvCwQ99BbCiCGYHSC5mixqphpsSrxqiPkW5OREc+qU3mcqX5PaPyHKjeZckE0v8qQ+op9wttBapgGPJIhzFpLUTnTGVFt4UD+QXbiufTnjmTlBuUoTiQurQ2N9DElk/wDlI9unfsGzQjsnr10ooxgNpHhFrIedaj+QaeejF7Ay4HnKc2cwOCKKWigzX2fyntwxhm7NnfuJHUFJku0Q5onopR64R6E09tJohp5EOAgthnQbcOSZzo3kO30qBav+x/Ka3CLQydi20LA7JQ1MpbQtPOklZelSa73UaBHkR4C+wjYFW4OQZvrGbiRIKPB/a/lPfrEFGTuhsEDshovYL6HxowcqGAmzPdG0IciHIqthnwPzBwGOQY90x/IgkSniftfynnn1dO26C4mN2sNGp4OFi0ZkWlRlaF+B8QZ0GZBszHMbHvidBBPH/e/lNSJ6/wB6AyGSu5LkK6NukzVEIGsQ1uHKbKbkMki8p7Df6fylGSBq6NlkvuQxDWgjIhbaVZWyCCec1u9iT+UZmAHozboZpN78bDXIbY/F5SOaJH/lE9iihwWgmk3voI2yUEL8S3kUHBCqhKfyjuEHGuixRbaCnKDZJdnlUuqwxJBajDfylUKuiKhQtGSCKJDXifi0oiMTuB3wSabGsYraER/lO6UDb37On4ulfGRHhlKZEzg9Rxo/iW4MRCpiOdFmQ1NQpOP5UuDVNvfsJBI072Czge616JNnoH3scAfHGkOIOIGsFQsuaTyMWmhSo/lWVlc26FJJGmt1K3EJPcLSoqJwn8DYduCwjsOLOFEi6JYyAMY7IuWixSUFikwH8pUaoVPIp2jI9GspJdRLnCukjb35EbEzgY4HGOQH9witkcajhBIuxkkKaqPColu0llCo1ClL+UKNDnOkFQ9Jg4yxJoNUmps6i2oa3aRgBPHXI1jfA7yG3kX36M4xGwoRoHPI4JM+QWNF+ExGQheP5Oo1Qtz0goEZgzoHHuzli0GLhILNjVYkGOiE3TOIHeRzQqZE44hG1IQtJirGNtA16EmjK8D2TgkVCUX8mQIHJCAzoGbAw92cplbiRItHYLhIpMWy1Voig10Y5A5gSWUEtkbUJTUWlZJkDxRZosJOBSIEJF/JTYoct0U6nA+oHm4ryxM3IZBNSWqSJba29IfwBHZCG2ulaIYkxpyJosQKRKmSWJfyQ2hqjnC+M1DMgc4YpyxN3EiImvUUn9X4BoqMGR6SYq6ei2Pkh6VggxfyM2JRyhyBeCtgWOB3cxPmz2IvCeTGEn4AUzJDGNTpJiGEZCBj+RGxohBuKdyoFA/mOd2L3K58VseyZL8AFMItL6BLbRWXB63BaMCRfyEhCuRzAms9Azkcwe0Z5AjY9ODMQxXzkOEVQx0bdG5GqwRXBUP5BQkcoLV5MoO5nOCME4ni0oqxO4GGwziSRiNgW3moSEsVGMybdFhi8FkZCZ/yCp3FK8jq1TkRnyE5AXiNlYjYncDHA19j4QtcHGCk285uCW5GuyLItBsaWC2hU1/ILxkvcDh5GbUQS8RsrFWcYO8DeArgT7HGCeIvwC3OjrVGxJTQYk2IlQhcX8gofkfSB66zMSeI6Kj3A7wOMcgfHOPF8RYX4JbHTEiY91IaOXsNRUKU4L+QFWLKBzpHw2Z6A/wMsW3HNCLZG3r8KFuYhJBqycmkl4EqnP5CCpGJJsSndelGZGjjh0OuRyQnwbYK/DGiEgHRXAqzot9M7gFJ/kGgythm3gRjRwXSFWQvFCqHHG2fiGOeRxSY86xaFG4x7MCzj+QnjhjVSa5rgUdFR3CSyOKNgF+KaqxrZA+j0koUHBCqEp/IY/0Ba+hlSXUiDZCfAlPxiWNkU0g9ZF0WLGBSAQkX/PNw3Ri+ZCruugrSaKPtz3I9iPYj2Ib5E6iQ549yE5yoWtWqsc0cgh9JHJIRoVB9uhfMhzjuQmTNujNuhS1aEdOSR7kexHsR7EexD+ZGw6C0GU96+FCdViuOhCjcSxfi6gw5PbRfRlxVCFx/z6HNsdF0SxJWCS9fkBtKCyLdBIj00sbYyoorSCtijWtJ4QheRcw6ZQ30sixBSFTY71K8jGi9hkZHqPseIU5TNRxUZlaFqxwFdtpNuKlWdBKyJMg+Ov8ACb4ZujEIcwLNxXITv4lzkhzo+kQmjCf8+3DAGQJiHLEbrFGmPX6X9JFCm9xT3ZHlnvYvlYytY4VCUApb0hYRDLzMe7J7r3Hp5jVXovYYsiUAxmkGryy/Ni+w3zY3OzJmfqdz2YyVLhNi4qxws/S7MgKdM5h7mZHuehmg2L4Mnvc97GXlnvZ72fLYlZei0XCRgMGXgMRkXubyzbBbmRBuJ5FPw9RGVEUPSdDBVM1/z1GiFIYmbMDwYX2Nfo0XsYn0Pft6DNi6TIDZE2BRrJC6K3LwPrk7MQhWSuGq0c7EVQ6Oj44kaCl0IetvQWz9d24Q1MlipovZB8NvsssxtJo20TfrvbhRfoX/AG6O2rsgphKIONG1gaxwbPhMEhnMD+ZXkQm4vkLf4algojVaK0i5Ief+dkoudjkG+RGM3Cf3F0+tHFzH0yd7FwLVUMFLWIKHwJbGLloVgs5z3slRIbZIVcjU+tBLnSYhpsV7CzgxqFQJIF2zkxAwbXc0cf7Q1YwHsi+cGzsrPRk7rQh97xmXTT9wkoQlvqEsKqBSbaOGKyIc8a+FwUKOQOYGfIhrcVyF8vwi3GXEcItGwyqMx+dpS+aqoOOSYT7DeIsTMl7KLvGiPAz2M3ZCRwXSc5dmLiVBy0GROB1PkQHcRnEtYh9p/Q9Cao1rvSU1BEYFrAkkuiWGPbBFoLbvd/fjfLfaI+iVFRUU/pgxP2b10qH3tRlktN3oxS+ulRVqIcoWtpDTYbxGqMsHOFG5eBKbnMCR8/glMcLiNmi1kepUUvP5ekfI/mE+RfkYn0WQnQzyN8nsL47UYgIzK5MpCTKErhFJDxZRNNrQaN9EqhrkQi9GsW5nzgk6NaIiJ8O+i6BLfsUqS6cW2Eb5i72Yf1314eyJiZm2JDp7JGNfil2C/eHwYdiSiFC4C1ns2umInfQGZhNxE0Tsj6JNdR5BDMD2RCMG8VqjFJygu9xvIWxzpZfgEtMxwS4LRxsgqR3+UafIu36o6sjmLOyPavqSrfXdS7cTXiuC8DwijYlQgUWfBbQ8WZQP1ND+hGD9jGUxbCDckixrpngKFRszvyLwLA+ekNXBkxc8GcjBX7LLpsd1c3cJEx6nsmPgSKawqIsMyQ/YbbE/sEriaT0D+hj0fZL0qToS6KMDVt6iVFLwMdA92FRPxWOug2RiuDY5VY1D/APYVIHMRs0YPWryKyPyTRb9NLASsLVhYbjDnItyy/LE/k9p7j2E+T5TG27FmqxjUwKUiCjD8N4zFFHsXkSpWqBBnQZJ9g2Ua0Xke/ToQfo/sHTW+jhD2B71iPMWIL4ELXc8ZjWSKpiCLIK8+OgK6HgytRn9Xdb6kFubkkNeFQWw3aVUFc9ETRBJfoa/f0Pg6jVGXP5Kj1qoDK4RaDgxNipfFY3Ye2CFgm9Gi3H8hbzayIQG1FpduEgv8exPllgIVSChi5ZYtzT37AoJIJJ60uE4LE7IWgzEzjDE74NWY9qDmFHBWYlM9ICmtfJgZ/cf1DvezIP0ZL31Vfxi+Av26Cx2KxF30RjLHJeURNKVlRgyzBk2HMXVTP6+7fG6A+uxBkXjYFsgi++e+e6W/SLaTSR3tHN/cCZvYtRsIYfdHDVm+ZKetZqoRbDicD02OPFRYKvBo12Go9QUkDjRCG4MTBWDzipVBhQY7Ano7BixC1Ft+NZJZHrJfSNod3vqqSomo1Y1WwtwE6gtSZVoxO672JQOZVMAtBmzoKqDKsUQn7ILv3iRKPVlqRMD6Cb1kZVK5F3qRtmIQtN5ISCLmIdFW5FlMHGr7Bf0e670ZvIe8iszjVr9E5C/aD+cOxpIXxwEJPkYTCd3vAw9N9+yAhQgh6S3o0CCyPA3AUbCXYMwcGNBYI1qjL2NqD8ULsjbR4Q+ZHyGDFYrojSedYRbAeI0XsPlHJZikv8AGKSsYQnAXGN04lZC8GSwT6wiIKJkTus5V9PG5ZOOm+gL2DVv0Hk/ZPUW3d+gS1KTFkhlUjBdCSBt2gq5mUC5kbPpvqCRrc3R6vZNehbdtc20NUx5exZsXPVe4eBTdrvtlATLGt+xeDwSSSSKfWW+82iOS+94838ZsyAKxiCSRIvD3ASbCagUbHHjY6I1DnAzWCbTY28I2CFyMYwiNUMrdETfOaqERIa2iekPXWIWr+LVRjGLkF2yxaIvEiZAKGRKQKS7rwPZmm6DxRDNdX7XRoYFqERkhRbLu/SJovI3RiQXsoBbaS1r6GGMro6RIjS7KfzsuYmui8n7IimztujrCFtpm6BRQdUwzuQut0MISJeehDZ6C4DAxIdm4TTeDJ3sSr0hIq72jvRuLkwUUqiDk9Y9QuMCYtvEbN0bQF3ApQ72H0iBdzc6lQGETRiy6LcixipBd3RYFR0ZefeRlOGGiZdSzSbFpj8S2QXgYYsDbYnz5CZqFTI8yELd1FPbZjgZtuiw9i4hOOoCjgLRkjIRjpLU2O5H0D+4dP8AtBR+tND3StAtNRv2BLTCS6gKAxJG4iUycptd10kNeBSgpSIYgjZFhSLErgR5vjvq/XTTYkzwkLs3iSaPXezGRTQW3f8A1Ee/tMznCToXgccXZBteM2cCbYzYHJMNngYDCK6sJto12HYbGYoStiSid5KaQYuCsrFxkwiH+B41S5EObR7pYdYpOfxKipAA+aEx5TTTqLJ0IT1XpQZMWY1SjSCROS7LgiIiIVWJrB4PY4MSaHmWnsygyU5Fn06csMZRPk4RhpSY4IiIiEzKthmI3JKGz9dzjUXAOuBq7Cmx7mJnLFaPbS5IXv8A6wMBi/ZQCYOzH6iYqMyQoZCC27nsQPoc176VnA/sf3PaFRZ3K1m15EfAo2M0OVwVMDTbqcx77CFgx6NldEpWxmCNgdoEfcXHVM/BQrlDiFmixuIwK/xDOGS6AzeLPLPYVA5RhBXSeBOC62xjiofa49j+kDO+Q6S24bHc4DK4ShgBYPWlvj0KDGGJ1E8XZuEGAydDl1tH6Xe1qF7QXQm+hVhpOgBF7jGpIriW/kSTQkXZn9Rh7pxLol479wegNnac0kQWH8jYnlkT4Fuxm4I0MNhq4Ngl0sC+IhcdFjz0iMWQZ7j1v2bCOQvwUDiLaHq0UyRFSHn8Mp9ZiEHmhZ5pLHSG7gUM6OHM/BmG8EXBLtsoWA5BVIS97S9CgRSCyNKgK7nSbwJnO5avBRhyC6wWRoJYmhywlhJQg0C3YSLuaMZBUCzQqc7VrIU1wcgiwk73sZYmwSCBAgQLEJh5sQt2EcD4RRQtNhYFJuOQywGpB5ILO3YQCZ4C13E7X4K2lGITSPSRRUz34RtLcXIHuyL56VDVujERv+C6Q3sIXRdGxKOBwSDhult0wXdtJBM11XonFCnfo9ulS4pzgkfOm9jYhYG3Ra3DEUIRn8Ip7o50B26iU02xt9hDC1niFWGRFR/BtsmKgMet6M2EUi6yqsXMIIYV6z2hoVGQXC+RygxyVaCjNTOHw0pDN2GY/BZkmkKk9TM+BxsxeG+qU4RlGw2M6juYIGEJioBSz+DQa1UW+lM0YIsTVRRkE6ACqk4m9EWK+4coMtz5o/56BYNcjy3EnyVdiVkKkj2DZoyZGIUSrP4JD14PmGJ3pMmwOci8pQ6OYBEM6F9NF4yFU8iehUOt4FhCoFBgUv8ABrxyIFj6k0tlqNFelBKw2jMiLRP6LXP9bpgXRE+RV79QSmOUG+RfMVdFvHxB4c0XsZovkHqP8BaCYw5z2JY0XsMeIRaFypT7I2oSokas3VDPgLyFlCsH3tBoBoqF5CpYEin8HUGYATLRexDRs4W2pemOIvLfQ39ES+lhFkXPWCSCQjyJciiDwthoOLcRSjKCHs0njI5FYpOfwFCfI8Q9I+As0OxiWS73kY8DDhfg4u1oIwsNhSp2d/CFj6IgWkIfQltpstdAN9dMHRDdxF+uiViNHPugkkJCQJPcRDUFNh3VF0znR2GWLVQ1TznsLRvB9x6VsIQUk8KSS0nXAqgvEFumwl4RiSGSFXpRYX8I0X6JD2LfSpH3qCoAhBc80os9kclfXRaYOOejEQSFIlyIPcchvoOdLFYGqrFIz52LEKhKPZs0ckPw+RkzjUcsDqAncJNsjbpkBXqNoX8Jf1gm/enJD704WAVQQwI2NuqNgiSdEqIFy1IREKxN6aYM+QLPnY/UQuHqxbaUios+nVRIG4RWAj4Y1GFGCEx5iUcoJ8oQ5Q/lR70L5UN8o5JHMfj8hCXIjyJcofzo9qF86E7lDPKGORH5VifQ3+hxpP8Acj+oaKqMXSCiQzAk7EJgRhnelnJN5jwglZE839Miu8jznSxo+1h671qsaaKnQFaMoSCSXkvCOQOdQktnWMX1011kq64Tihzwhd/w7RHMnOiq2deRfXTu67U9acm2HNCeX4JuE/I1+SPkn5J+Sfkn5J+SPkSvkT7Hgqk/YONL/wB4l9Gg3FTKA1UGabEu5cCRKSelj6KIvMyif5v6x/uadsN3cljcC21UvsWIkkvJXa9BImM4ZX2IMo/yP8iNyewS+Qpycl1YBZjaolXRZKb/AINdqWxWGcMrDHRBkO8jvJTknyF7C/Jz3WgEGMyolXQZa2+ajnqUYRJJJI0Lo3Tuw0cqs/cONHJEXez9DQzsRMOdC72jCUjP10oFg3eZglE839Y/a03YNDpgJQ7rReQijZYGUhSwPX0cbn6CBOJCXZBobjBA5IbhzKhESEVBVL56aUoBZNClgescuM/foIE4kJdrQ3GCQzkuhHsqExJiAFXXkoNyoEZF6HmG3RJZJJXwuLybn12PGLJN040HsLgLg/S73DJFoDlQmhB3uCQ/XSgZhu8zsmx5v6RkvZjpsEJTohgHTRr8G2kVAlWDagZBypZAS1qDc+QMw9FClSG+PNQsIVoNdwPg5UsYhLWSjX0u7hzqhKIN9eM2ksjAFqoNU6OcoN2UWWUUUUUUPaHpnsWfV2PGF0iZaOwwUSZDY+u5LcmCBrd0iA7JyMSfx0oETGUN5eikE839Mu+GLmm1UPkhYoUi/gm8hCtIOwBsHICyIeG1RnO0VhtphHCafk7xEK4HXAyDmDfSHhsqx/IXBaGFDxC7NjlAyCDNkrkKSGnm4ZiH6vY8aXX701gr2QebfapciIg4ZFCxoSFnBmIjdLWC5gc7wcSOjEDeRiE/zf1isRkIW2msD7IaIwpfgDIMEg/DeWOnSHj0Fei5kqgUGwtMeM2kNrgwiDphrljCHj0OQ3YMEmEahO+Ct7bFoILxBhr6KTUexlBmTHsIfSWT7FpGX3E3+u0UmSZBLBV6xJoPERSRYwIGBJ1UuRzgW7gyhvA4A37CYbxHUyKok83NisxgverWFiMwjC275qFuOcD0C3ZN2SIvJaoxgDHbAoUIovESmWPgoQXnIzbJAXkvIzhDHTAnUJ3bXUxsSkgqg/MQ1nsZIvZmTb7IJ9FPt0jfMvuIt9C26twZC6KBs9vRDYHEQ1ALYSk7UokOcDS2HqJB4ceNHAgirXbA1NREc857CWfR9p60mRNSZIAtNPy1pX06JgXyvoQ81DyYQMp0cGqvhLK2TwNtEX2sqKPNZSIx2woD3azfRQpgbZkPAMvuM+bfYY/0Z/dpG6W+w/qfZyIFDLS2JWg9hJvEJANgKktFq9EZ4H+BoS6EcJ0kgmVF0mwTMII2Fr/ADODOC41dqF0FswlLT8laV9TjRZGxIvPTKUS6AK/H4K0rHyBOIZqL3/AIEyMfXldd1WOsbAmJsxeCZfcZX12W4YMzd7NmjuZH2YfV1cTY2mt7bEb6O6ISbh0qFxWq0Y3cDa2G7geEejDLYkJNbkEFRetRA87G1yyNhLwLz7SFThKexbasE3ZC+eAnAmnjoSz0eJIb1i5+CxCI0yENfba6ErGSBADkQj8E+QqZEo0LU9NSV9GDtXRfCL/aS+nsxDApk7Fto5SZ2GH19G9t0otzpTOi8oYmwNAUtJeC0Y2cDq2Gw0JbBewLvYlwSJ1sJzGGxlTYWMCRfgYpLgYPkVjWTBQIUAJxBovjONZGG2Nsxa0LvqqSPXXGBLzDOgndVuIdsjICz1i6zTviiSsWdZ8kbAAugW2lZdLkBG2vhMq32Q+nsxPB0ydi0clRnzALBiVEH6DkejAQIJMFJU8VoN3A2tujEPqAfBH8R8DoHydGNrCU/BKqMsD3rguCsQ9I0+MTq8RTmYlA3WsTUbg0QkwFsRcJleGehnoZHhj4TOYNcBIWpuOyUoCVtPVaHSYBvrF1G4NERgLal+GW4Z62etk+GR4ZyxrvEBZ1EwPgGQBAmihMmIMqD5EpqXuAgs/2LOz/AFDA0yd0XsZovZmxS71yLCb3i0YiQPoadjyYG7gb4GuOyAiHAvwJfhUPUEoCNyYndaiFVpmCJaafhpp6IGeD5tN4ED4jZUxveI1eiqKUyUHAzmQMGQmyjBwpqJRCjM2CNmnUChBtUTTeBQ+A29Md3CFUOnSUGCjpsrgUbjD3yZVHqpKGobZOaKoILjqeoErELLLLLGnOwSK7Gn0GF9mS0jNXs+khoyPZAaKJoSECKEwRvNREXwQQRfh1JkWAcsDa9NhWyIJElH4OYFsmJYMyeptuPMJj0rEkvXOnFCfB6j1DfwO8dDKWWyA4uh+D1BwMhozER9I0Z9FaCBG8vTkKohxhMxqJpeuJl+Bfjqk28DPHSiVmicL3QYxoo5qMbBEQKRHof1gbS5Es6Lx0tsI5ITBdqSSzYZsEBdivol/v0thf9hiXgkSGqsWaDRDoxgAkf8UcajEA5wNVr0FTIugJRXgLepOhT9RppIdJiZXogv2Ei4Iu+IaNbHBC2wXSDDVqODEryZ4+BaOUByiFg2aURpCE5iJUJkF+xHwTvhF8CfYaQ9Ug54KOadiZkm572iMP6Hb+8W2i8iioOw2FoL9xJJK44ESLq9iKfRl92k8GJ7Dn1Bgzozwh3ONAGAEov+LeMFVQ0SPddkoo5FsAhKPWeggI0VybNNwsOaMFIKNiLVTBoaA9Ug9qEmlwJEfsyGTtAhrKUBzaEi0s0FHA9mBTCzbWRNRjyIoBgwW02phFDZnu54xRIn+gttDYMQdxC1gi+NTcIJG/saYsOjWQWV0OBs49EpLwXAv+NxoSLoB2a7h0UwhGh0hrVWleBiCYluFo5IKKhvASwpPARNDDgqkGgerSSljb/Oi5uAfIzZooanELeDAwJIRJTwGqMChhAtlE7pUO+CW/Xc8cqk3X70d8FtORpzjW3ySUzH4scpD2BpBM/wDjksdBjU4SocazyjLRCCUGE09tNozJaGvCxaLYgKCmmhax4bVQ4A6AfHS2Dfskj671ObJxB7WxZoy2ELAuzCioJReE1UIIbEhqs6TQ9a8kN+u5o4oumTvRyVCsMSLW/UJij0Zs8N6eBQbDSYTMv+R8xAgAwGuSjVULaCUXTKzjCmZ6KiikhJIpKC8Sguic1Rzpxg72buGvdtujEqJHovBLSRkAWUkLxEPTKRC+hqtKH2GO9DVdrx/osu8m70HsZo9mbgkXW/SJgeqLwng5eKLcYVNL/klTY5EHyB2uSjUwdBhCXdJqImPY2JGkFIC0oJTxk4vGnOp7GKs5oy7RK1koMfYJTRa2h6QSIhY8ZDTQ1qS501cPsmaNk7f6APafejPY/aMv6MdY8+s/0DPxFQKBP/KPSaEIwP2IPjOugtximoEyaCGZMEZndF4PVii6ApIvHWqGBnLezZo40Ysz+vtqisGY9H4BKTXPSYXB46UvRhAsgtHZIJGqdj2Mf6M/v0d7FPvJfXr/ANaL/d4qiZghWb/yrHUZwW5NDY12s0+RAo2Q0Xv30Z46Q0W4IgsFqLyVYvA1+cnrRwZjfZ+n2Mxx8CGb5EtB4XQUnQoF5G4YiKXsZaLZJpHq9m8YX0Z/ZozK/eQ+rwBP/a8RYq0KSCXZP/lHlFoCwGIZg1uBmoNGIc7oEYMY+6LwRluWAXkywqMPmtF7GE9n6HZTZlYyZ7ONDMUBckxcC28jgWzOCc96Su5+3jBmTPeiclD7JD14CLP34pmFQnBIEpav+USqdKCa4COgTxrJgztinwrD2u2yyWomWisxDW5OSJLjyqKKGDZr2caG4f7R+l2VxlMS1ot0ykZ5X9RMrOTBTRXfuEWtM2YttBCgFgvAg9NOunlUhgpZyLP/ACioMhA2whRrD2HE1lV3rtvv0ZQF0VKFEDFfKWqEXn7hxob5+wfodn9PGI3kW2hsEi9isLgST5Wf1mThjOiu4O/RILMwtBbCRiStZ7dCts26UMNJoWnREcJP/KkSYkAyiKua2+NzuRSl4Ft2f1weteRaG6SHsr5wLby0X9B+8caG6L/ofodcRibwNWe9EfwOhcifreYsuYuLbSfWL2foklm+dFbPsswSa17EcXGLRewSZEBDbSQfjeL0rHqP/lZNroAeKtf00bsNjq3Cn0n7hxoZwZr2f0PzMT6P2jjQ2H+4frdcXN7GbvZs0NtGJiWvNB3xbaG0UO12PPoP9wz0PAnh9lwJI1tjJA9Wk+IrZ4GwDLOzRexRHpMLa/8ALNChkgYI1imo1Smf0dWhqsX/AEONDak5hZ9flvBdJ+wcaCyZD2fp9cQwNMmYtDZ+yzxYi81Xc+xbaGyWaLE7IfWNfsNrRt9x/leBC5bdFGz0liDgmox0hah2UWAKRH/yzRgmgGDerV4P2f1LrYZlITN6D2M0RkfMTUZVNN/7ONDKDKmP09cPrMSZVocH7xdok82ruGzQ2/soKRer2Jp9H+lpP94JH14OgbNFGyXC8FphgTkT0kwLDotR/wDLHlDgDJhNurw/vsU1BdI92g9ja++m7fl2xlYTN6D2M0RkeCTrfrGB9ma0OD9wX/M2+ZNqbotu/g/aLNFnW9mTSNT70Z7n9qIH14KAbNKOS/rotsEaA1E9OmwMUmFrd/5ayumZNnJs1JopbqWBZd5OdB7G199Dt+X/AEcfW5PehsMlezZwsTr+gfu6PwfvH6pt8yY8yYWh+wf4Ak67hGDNelFITvrwee2aSKS/ro1ROMMmDm9JKMVGYgFXX/LKUgliZYW2mbHYP6GMa/Zs0HsYr99L2/KeUJyuCi9mzRPsMQm+hY6/oH7uj8H7nRcvLfomJMtFf7Cf1dm+RQ9WbNBjQIH15RHHJRH6ramZYGuuBrpZqIgzeQGTWP8AlUqg8UuDAvItM2PsToMwfo/d0R7GKxecZeVW3TbKC0N3DA3JG9n6B+7pa4fZFY1ry8foMP7MldBn9oJP12bv0SA9C0Gx6Yk+AC5qBInZcEONUlpuToSOK5/4TTXyBLW8GCERi5rTs1+yXQwGB9G69mzRT3D8zkav15L2E3eCLPkyV0cFE8+1z9Ad/bpa4MS1iU/L/qBf7dFbJaED67Gn1H+8NdE+HhCAFHS3FyJnYlUEowa1JTTGhyn01Qj/AIA0Qty6FODTyiUHkNb8Ba4tPHv0sSk/vrjBzBmX2C20d8fd8il7x5KHhicUBs0OCffIirXAsTs/QM/7FjGj7LK5P635XBD6zP7NJLQkfXaq/wBmk7PQkprNE+it3S3LokHtqS6aC5AsrSeMlIwpv0DWvzyuhuSQY6dzIWbGDVnrwN4cXvONLsv2f0rpiW3M2YtKjBYW15D0QPa2M1nRjHQFFU47Vv1mdgkjRewxz2PHPF+S9iafRl9mj7BExJ7QP/a0vD8AVnphMtLeikEiXa8oZYmyxR4j0nsO4BaYCQPP5xdmIGoHxC/RxplmWJmNeb5Kq4Ftr1mMbDWb0ntDXIY/R0aHh6ZaZ4qHXOSEPjx26hgisgtFAhYNGJ7Vob2GDIW2kj0Mtm8eTuEUmY/eibffAAWfvSkMl69HoG5pRiLvKaiIjXDZpLgami9GFlr81brQjI6KOSMNtiXR7dYElua6MrgareTnRxRDFkDa6PPqMDeTd3TSoiUSIGteMwWgTm26LNLPeSICa7kro2MPEe9I2Dks+ehpseKhdyS6bxhB6M2d6NjoKS7cU9ISiFr3ehEy9JJ0QJKdMTHTNmBi6EP8wuWxG1AqgdchqZYl2/ANQz5KA1vXHSczZ7C20d0mvZgLgW3Rp9B/u6pfBCBKniLq6bRurE0mqhuAWtLvV9EZ9s2aXyXTIR18RorYbV5GAdh+gSQ9GLbQgd9VcNujnE3Xq/XRm/R2EPR9gBcYfDXJXGm7MFSEgI/yqXsVgoaF0gTd2RsXc9hjVEUClHqNGYtQeF5EudJKg5Qkr66yX6Gv2m3qNCRtdICz4Q8sLQBvYWlAMQobY0WMFjSdLYOsiOBQz4ThkTGEJ15EW+hH6hADe7QZCP6F20CwLRTiZr0vroJNIg6UFOgiIbPumlFOPooKi/J2/gbpGsB9dHWJaKDE5KJGLq6Tw2xaRIhdBaO4Wj36ZFiLo9iKfRn92spRSaZIwJbDJqp6zaSrZRQiSGehLSbIMDVApSWhfGKx3L2caSFBTKAsMJp7PWaJZY1DCINmo3+8h9HR59B/qDXRoZO+ux7EAtdLAJmv/QD+1aZK05KSSGNQq02tw2wIAar8klR0CtOEFpoLGTeAqQKvnuq+R0YxiDyKYWlQNl8iVpx13iKTL7NcaMqCFAiUxawVfOl7EPwyUDBixomk9hVg95hDk0tucDoHInxptFxSaC4oVGkKvnRqGjdoZ2hjEHrDTcwE2zkSfV0/pB/cNFclErso9Jc9LMEiazL/AEH72mSfvT0pyZUIPcoW07E48u7+SXALw+BUHvWGsiQ6SimVG3h6p6omtoocQhcFoHjyIJaT2FIvkQ2hG6twjJkM2a7QztR+mMMMSjbg9U9Y9iPYj1D0hBWolcDqgoIMXkVEtNsCenPRKSK0r4gKHWnqNFVpP+BWnCkVG3h6B6x7ke5HrHpG3AtcFCG4FXIq3uQykzMFn09UN/Y0nFIvZc6O5aOGRNd4JITL706i/ZJWmqxDBCctNociuSzBKU/JR3oxPyWOa0HWotQQbhfNPdHOYq3C95GbbiC03YFACUxx2fpElmSxbeBBBrbmxDCUNt4gz19YjtxulivcW8jre4kTTbUFhE5RZ/IUrTNUxBD2oU1GiDK0kwciNzLU6biLEdlLHI5sUcjrZBIexmiMjmPWxa+9KziJ2W9Kh7EHwGskwLdpJBINr603t0iGJHI1z05uEI30QGqv5GoFKxadezjWhBi6QSEiakBYiotgFyXZ+mSQNX4cGiDgu3Ejk9hzhzg9CQkTUqSyQUmBGYxQRaqmJoZYkaRTurCdGczkj5Q1yckN5jEhInV7GSL2ZkwXrinonEiEnW0ztJJBrmqXg3dF7GKLSC2WolDo6cfZpPKGQdEKcP8AJYcuBrzXIkbngQhCE1W5uIazJwEJJdrT6z/UM14sIQhCEITVhbkPkOIpySEprWShzJ2lroQhCEIQncZ/cZX12NVjZoLYZqFha5KaV4DrD9EiJZ6OwlIyAttR7DbnAzFhSrTFqGJYNBLan+RSxungw38BZuXgU1goSO6P0lfs/FLRbjKBHZqEgUkWulqYqQNSkMHmGf2GX9C2Ht0VQxd7I2hznLRpH34EqD0SfsSzpCw+yRLbVtBQ8hSTFGxp4Dl2BSt35FqmFUMsU8+bE4IGRD0CZLuj9Bl934laIZVUeESZAtMeDel0EaMNjyy33kvp6NG6Q1uijEncZq+lyPvwIf1Imfem4P2SJbay1p06U1HGk0QujkhaO90Y2KSr8U9poZQGhHgearAJrqClYUFJaGm/tfiNCwPYMdMx5FpF4TVRyIMK0ZFiH5LGNvsWL7EK26Gwj9rIGUDd0tI/Z/UtfB+h/wDUW2jun9gP6RromozcIgmgU006CHU6KXEDs3DYy4v4vGFHh0Aaq+U8CKF1E4KaFWi73t0Q9fvSleYzwJTggtOjCm4UQkXiImoyCZC0h5CPII3bORIjswLbokrthY6Y3tFRclfs/U1mgqs/YFto7pX7D+s+Ap6ZmiYwndNrd0kE1MTvYp1BJ+LKYmKYQdgVbFlXyZbBTVoLIyqWg9iwUmbdBwSgNInRWV5IqiElsFg1DASS28ZG4ZoLWQc46FeNsFmiwWrpUk/faKgShY+gxLhQQ2frWeOYU/eONFaj/aP1fBS1Qvhy1GRC2eEp/I2NNEg6HCA5LxXjooJIQgUgR4Wi9n0haFtoQBOdDRgo3YO8bSRvg/iQsMLIrcISnkNHuNouAYuodIg8Tggq9lXBImppx4Un99oLH10xvaGwgFVDa1njlli5/ZxorgLo/Q8FpNZLgGtZEemmC2MXpnQfl+RaE0Kg6KrABXwmNGFiUGsmCdQhstLcIE2iSiBglGhaR0VV/BRIXFrsYh4kMHBsmLE2FQJMLy2kPmBVNB8CupsLELeAxyExyHyYDrkYDtkJSlKUpTM432JFeuy/9E0bylKUpSjjAXsgY2NZ4wubfZSlKUpSjeDBRBp+l4S6kNAU9DVae2ShCzBfkdpDChegP2IvYcxarEI8DwRiRDGKKJ6CSWnIqFnosEjdGuB1QRYe7YfsJPYcGEY7sdGxsL8D3Z9CPZMIlhOgg2J5yzKGwLdtBrti+Mmw4N0x3Y6NiR8EaKEgYrCnRRjdXwhgwL4j3D3D3D3D3D3D0MeOGk0bX12NbPgSUe4viPR3AAD0HADK1cmyhba2AtJnJwB6O8AAD0HADy45HJ8NnwnsKITAcEZfgy/Bl+DL8GX4MvwZfgy/Bl+DPQyDZmPmOuUYn8lBwULbC7aN6DFUfDZ8ETZSlKVjYfwnw2NsGbgMCjEZnCICRcePIBtIZE7OIFzFNiwy6oLEY+YF8DF8bPUz1M9TH8bH8DHOGPtxuPQW+MYLRwBPwSjYXMVgmy6oLsY+Az0MXxs9TPUz1M9bPSxmezOeG6jmhxTGCgJPjsQ5NDvdF/8A/wD6pU2gtuy0W3RNtttm1dJBK1r3y86R9tttnPp8JQoLC8Owh2B96lpJJJPtoriRIX5RpTYWPBVDdclGHijaWEOQjyF84+WOWdCc8byV8ngXSyHYngils0NhIInc0vg4gvilgO9OWkpGb0Vrri/D+uOcQJL4/DtHwcB0JwgfKxR6Y0vSjHXW+HdAcQITYi+O5oj4Ivgi+CL4Ivgi+CL4Ivgi+CL4Iu6Pgj4I+CPgj4I+CPgj4I+CPgj48GL4I+CPgj4I+CPgj4I+CPgj4I+CPjxovgj4I+CPgj4I+CPgj4I+CPgj4I+CPgj4J+CH5dabHA9FcWGeA/hnri+OcAOCdBcSK4eJSkbdDYRyHo/0JfBxg/iG3g9J6RPg4wQuBL1+Og1fA5wMcHpPSJPAvgFOBXAnr+PfVzboyQIJ/wCCGX9FINSmx/4HmFDQZjC8gtv/AAM0TKIb2hsIfQFt/wCBrPTNz0RZLphbf+BqJcNz0ZI/ZL/wPWuiEy9FgfZ/Sv8AwPU+tOn/ALgf0v8A8D3PrSQzP+ofp/8Agd09Q4B7nvHtHtHtHtHtHtHtDKUNJo/U/wDA7G6E3cnrnrnrnrnrnrnrnri72ia0FiL/AOST/9oADAMBAAIAAwAAABDzzzzzzzzzzzzzzzzzzzzzzzzzzzzzzzzzzzzzzzzzzzzzzzzzzzzzzzzzzzzzzzzzzzzzzzzzzzzzzzzzzzzzzzzzzzzzzzzzzzzzzzzxr0MhezzzzzzzzzzzzzzzzzzzzzzzzzzzzzzzzzzzzzzzzzzzzzzzzzzzzzzzzzzzzzzzzzzzzzzzzzzzzzzzzzzzzzzzzzzzzzzzzzzzzzzzzzzzzzzzzzzzzzzzzzzzzzzzzzzzyfjhPEZZfzzzzzzzzzzzzzzzzzzzzzzzzzzzzzzzzzzzzzzzzzzzzzzzzzzzzzzzzzzzzzzzzzzzzzzzzzzzzzzzzzzzzzzzzzzzzzzzzzzzzzzzzzzzzzzzzzzzzzzzzzzzzzzzzzwZcEEEHZ7vzzzzzzzzzzzzzzzzzzzzzzzzzzzzzzzzzzzzzzzzzzzzzzzzzzzzzzzzzzzzzzzzzzzzzzzzzzzzzzzzzzzzzzzzzzzzzzzzzzzzzzzzzzzzzzzzzzzzzzzzzzzzzzzzvcMEEEFFF3zzzzzzzzzzzzzzzzzzzzzzzzzzzzzzzzzzzzzzzzzzzzzzzzzzzzzzzzzzzzzzzzzzzzzzzzzzzzzzzzzzzzzzzzzzzzzzzzzzzzzzzzzzzzzzzzzzzzzzzzzzzzzzzy48EEEEEFZJzzzzzzzzzzzzzzzzzzzzzzzzzzzzzzzzzzzzzzzzzzzzzzzzzzzzzzzzzzzzzzzzzzzzzzzzzzzzzzzzzzzzzzzzzzzzzzzzzzzzzzzzzzzzzzzzzzzzzzzzzzzzzzzwx0EEEEEEFFnzzzzzzzzzzzzzzzzzzzzzzzzzzzzzzzzzzzzzzzzzzzzzzzzzzzzzzzzzzzzzzzzzzzzzzzzzzzzzzzzzzzzzzzzzzzzzzzzzzzzzzzzzzzzzzzzzzzzzzzzzzzzzzxQgEEEEEEEFZ/zzzzzzzzzzzzzzzzzzzzzzzzzzzzzzzzzzzzzzzzzzzzzzzzzzzzzzzzzzzzzzzzzzzzzzzzzzzzzzzzzzzzzzzzzzzzzzzzzzzzzzzzzzzzzzzzzzzzzzzzzzzzzzesEEE4kEEGS7TzzzzzzzzzzzzzzzzzzzzzzzzzzzzzzzzzzzzzzzzzzzzzzzzzzzzzzzzzzzzzzzzzzzzzzzzzzzzzzzzzzzzzzzzzzzzzzzzzzzzzzzzzzzzzzzzzzzzzzzzzzzxyCsEFqwYEEFF5bzzzzzzzzzzzzzeQHEPzzzzzzzzzzzzzzzzzzzzzzzzzzzzzzzzzzzzzzzzzzzzzzzzzzzzzzzzzzzzzzzzzzzzzzzzzzzzzzzzzzzzzzzzzzzzzzzzzzzzzzzzzwaWEEHm6MkEEHALTzzzzzzzjGfhSBdizifzzzzzzzzzzzzzzzzzzzzzzzzzzzzzzzzzzzzzzzzzzzzzzzzzzzzzzzzzzzzzzzzzzzzzzzzzzzzzzzzzzzzzzzzzzzzzzzzzzzzzzzzxuIEEFAva0EEEE/3zzzxSJxCbTdMMEEFZLzzzzzzzzzzzzzzzzzzzzzzzzzzzzzzzzzzzzzzzzzzzzzzzzzzzzzzzzzzzzzzzzzzzzzzzzzzzzzzzzzzzzzzzzzzzzzzzzzzzzzzzzym8EEHApl2sEEECVPw6qwRLEAEEEEEEFX3zzzzzzzzzzzzzzzzzzzzzzzzzzzzzzzzzzzzzzzzzzzzzzzzzzzzzzzzzzzzzzzzzzzzzzzzzzzzzzzzzzzzzzzzzzzzzzzzzzzzzzzzyAoEEW7zzDkEEEFxHvGeoMEEEEEEEEEFU3zzzzzzzzzzzzzzzzzzzzzzzzzzzzzzzzzzzzzzzzzzzzzzzzzzzzzzzzzzzzzzzzzzzzzzzzzzzzzzzzzzzzzzzzzzzzzzzzzzzzzzzyxUoEEPfzztwYEEFE7EEEEEEEEEEEEEEEyzzzzzzzzzzzzzzzzzzzzzzzzzzzzzzzzzzzzzzzzzzzzzzzzzzzzzzzzzzzzzzzzzzzzzzzzzzzzzzzzzzzzzzzzzzzzzzzzzzzzzzzzyk8sEEYbzzzJQEEEEEEEEEEEEJkkEEEENb7zzzzzzzzzzzzzzzzzzzzzzzzzzzzzzzzzzzzzzzzzzzzzzzzzzzzzzzzzzzzzzzzzzzzzzzzzzzzzzzzzzzzzzzzzzzzzzzzzzzzzzzyo4EEGhbzzy2iwEEEEEEEE7LcCcsEEEXGHzzzzzzzzzzzzzzzzzzzzzzzzzzzzzzzzzzzzzzzzzzzzzzzzzzzzzzzzzzzzzzzzzzzzzzzzzzzzzzzzzzzzzzzzzzzzzzzzzzzzzzzzzuoEEGa/zzzwVckEEE8LWmeIpqWkEEHCvzzzzzzzzzzzzzzzzzzzzzzzzzzzzzzzzzzzzzzzzzzzzzzzzzzzzzzzzzzzzzzzzzzzzzzzzzzzzzzzzzzzzzzzzzzzzzzzzzzzzzzzjRrHAEEFujzzzzx+x6a7Uz+xzwRloEEFSHfzzzzzzzzzzzzzzzzzzzzzzzzzzzzzzzzzzzzzzzzzzzzzzzzzzzzzzzzzzzzzzzzzzzzzzzzzzzzzzzzzzzzzzzzzzzzzzzzzzzzjB6zzV4EEEdB7zzzzwaSwOX5zzzzusAEEFp7jzzzzzzzzzzzzzzzzzzzzzzzzzzzzzzzzzzzzzzzzzzzzzzzzzzzzzzzzzzzzzzzzzzzzzzzzzzzzzzzzzzzzzzzzzzzzzzzzzzzrbSIfNKEEEEEJ1zzzzzzwR/wA888884XOBBBFNP8888888888888888888888888888888888888888888888888888888888888888888888888888888888888888888888888noJb4ujjBBBBBBBcU888888888888888LjhBBFdB888888888888888888888888888888888888888888888888888888888888888888888888888888888888888888888888apGdBxBBBBBBBBGIq7k88888888888888gIjBBBXrv88888888888888888888888888888888888888888888888888888888888888888888888888888888888888888888884Il1hhBBBBBBBDdUuSiL88888888888888muwBBBWKs88888888888888888888888888888888888888888888888888888888888888888888888888888888888888888888888sk4BBBBBBFJRB4aw0c8888888888888887xLBBBWg488888888888888888888888888888888888888888888888888888888888888888888888888888888888888888888888reKBBBBBBMfDqluX888888888888888884V9hBBBh6888888888888888888888888888888888888888888888888888888888888888888888888808888888888888888888888CdhBBBBBPpC/P88888888888888888888JUDBBBg7c8888888888888888888888888888888888888888888888gig8888sCCKw888880b8888848uaC8888qs88+K888sKCCq888UnLBBBBBHxcK088888888888888888888DBBBBGOX88888888888888888888888888888888888888888888884Bub8888866WAc888sZWi8888YzuCoc88Y6Y88tM8888iy2o8887XrBBBBBBjWUTe5888888888888888888AXBBBR2I888888888888888888888888888888ww08888888888888ueOf8APPPFGng+tPPPKqqrfPPPJSJrIFPPPssMJPovPPIgmgPPPPPI0SwQQQQQQQUUcvm8PPPPPPPPPPPPPPPKsKgQQRXNPPPPPPPPPPPPPPPPPPPPPPPPPOLNFlntiFPPPPPPPPPPODWMVNPPPG6mkTlPPOPWLRVPPAvlPPPPPPDlrjk4lvPPH7sonPPPPLfwCCQQQQQQQQcNueqvPPPPPPPPPPPPPPHngQQUWufPPPPPPPPPPPPPPPPPPPPPPOLOicmrrsgkcsPPPPPPPPAtqkUvPPPGdpujnPPHlno5FPPEhHPPPPPOKQssuqvPPPJburnPPPPPK6HxbCQQQQQQQR6SyMNPPPPPPPPPPPPPGOIwQQZINPPPPPPPPPPPPPPPPPPPPPOMGQgoggggkhqjmPPPPPPKKUrXpkPPOBeDlHPPPPejepkPPC8lPPNPPKC5DDMXnPPOLWBBHPPPPPPPDaN9KCQQQRXLhYxoFPPPPPPPPPPPPPPEMwQQQb4vPPPPPPPPPPPPPPPPPPPPEtkgggggggggkoitPPPPPEni+vwivPPJ4XPPPPAto+s4jPPLrjAkXPPPFXvOIaFPPPFkWlnPPPPPPPPPCuLPIiT7cRQNboHPPPPPPPPPPPPPPKdCwQQVrvPPPPPPPPPPPPPPPPPPPJloggggggggggggjmvPPPKLWPPIBkvPLFEvPPPPHUBPPNJvPLG2rmPPPPHvPPMYnPPDKnMhnPPPPPPPPPPPGQkO/BYChwkhvPPPPPPPPPPPPPPPIsgQQQQg/PPPPPPPPPPPPPPPPPKKYgggggjiggggggksvPPPLLPHPLPLPPPHLPPPPPHDPPPPDPPPLHDDPPPPLHPLPLPPPDDDDDPPPPPPPPPPPPPPPIDAC6sgkuvPPPPPPJNOQvPPPPOP6wQQQBvPPPPPPPPPPPPPPPPOPSggggjmggpggggggvgvPPPPPPPPPPPPPPPPPPPPPPPPPPPPPPPPPPPPPPPPPPPPPPPPPPPPPPPPPPPPPPPPPPPPLCZggghsvPPPPPMMfo+t+mtNPPUQQQUeafPPPPPPPPPPPPPPPLDggggkqMuBCciggilBnPPPPPPPPPPPPPPPPPPPPPPPPPPPPPPPPPPPPPPPPPPPPPPPPPPPPPPPPPPPPPPPPPPPPPPPYgggguPPPPPOH0skZ0Ihk6LVQawQQTPvPPPPPPPPPPPPPPOAwggghtBPPPHHxhkmBPPPPPPPPPPPPPPPPPPPPPPPPPPPPPPPPPPPPPPPPPPPPPPPPPPPPPPPPPPPPPPPPPPPPPPPKAwgggsjPPPPPC6liPuawc1sfuLAQQQV/m/PPPPPPPPPPPPPKJSgggih/PPPPONao5PPPPPPPPPPPPPOMPOPNPPPPPPPPPPPPPPPPPPPPPPMMONONPPPPPPPPPPPPPPPPPPPPPPPPPMGggggitPPPOBlggoFGoQQQQQQ3IQQQQS1PPPPPPPPPPPPPPPM4ggght9PPPPPODrPPPPPPPPPPPPDPygTjGWwvPPPPPPPPPPPPPPPPPNKApQfmQU0uPPPPPPPPPPPPPPNOHKgw1PPEKggghmvPPODIIggttPwAQQQQQQQQQQQU0vPPPPPPPPPPPPPOKgggggruPPPPPLHPPPPPPPPPPPCpdnqkggkmnoMtPPPPPPPPPPPPPMFpduusoogqolKuPPPPPPPPPPNFgehssspnPJhggggrNPPINagggplOgyQQQQQQQQQQQUN/PPPPPPPPPPPPPLLYggggljPPPPPPPPPPPPPPPOLKXskgggggggkshhlPPPPPPPPPPOJDQsogggggggkgisUPPPPPPPPOGeikssspuPPF6gggkhXPINEgggnqXPbD6BzwQQQQQQQU2vPPPPPPPPPPPPPKIQgggggoptPPPPPPPPPPPPPCjiggggggggggggkhifPPPPPPPPPKumggggggggggggknlFPPPPPPIOUgggggggoFOLQggglsXKAUgggjuNPPHAXxYXqBQQQQSQhPPPPPPPPPPPPPPPFqgggggkjvtPPPPPPPPPPPIvsgggggggggggggggsrPPPPPPPOOBsgggggggggggggggovvPPPPPNyggggggggvXOIagggnrvI+ggghiFPPPPPPHHKHFmF+UYA3PPPPPPPPPPPPPPPKBSggggggtgtPPPPPPPPPIOogggggjihitjggggggqpPPPPPOHBoggggihoqmrpiggggkuovPPPMEggggggjjll/PDagggqiIqogghjvPPPPPPPPPPLNWUKkePPPPPPPPPPPPPPPPPPOsiggggggrsPPPPPPPPJGoggggnliYxGIqXiggggkhHPPPPKBwggggnmi6ulOhUgggggloNPPPDyggghmojjmqvKPggggktIogghjuPPPPPPPPPPPPPPDT/PPPPPPPPPPPPPPPPPPPPGjggggggkvmPPPPPPOE2ggggnvSHHPPLHDoigggglgPPPPO0ggghimbHHPPLLFNgggggqvPPPLagggnrnHPPHPDMggggomggghoonPPPPPPPPPPPPPPPPPPPPPPPPPPPPPPPPPPPPPLHSgggggglsEPPPPPIJoggghutPPPPPPPPGmiggggs9PPJCggggthtPPPPPPPLKugggglpvPLFagghoFPPPPPPBkggggkogggth3PPPPPPPPPPPPPPPPPPPPPPPPPPPPPPPPPPPPPPPPBQgggggghhHPPPOGYgggkiBPPPPPPPPPPP5ggghnfPOLwgggigBPPPPPPPPPPIYgggggNPPOoggliNPPPPPPJvgggggggglpHPPPPPPPPPPPPPPPPPPPPPPPPPPPPPPPPPPPPPPPPPKBigggggggq/PPPJggghrrPPPPPPPPPPPGIgggljPPNLgggghrPPPPPPPPPPPHmggghjPPAMgggktfPPPPPPB6ggggggggkkNPPPPPPPPPPPPPPPPPPPPPPPPPPPPPPPPPPPPPPPPPLPMigggggktmPPKkgggmvnPPPPPPPPPPPKOQgggovPHhgggmrnPPPPPPPPPPPGDggggvPPBAggghpvPPPPPPP4ggggggggghstPPPPPPPPPPPPPPPPPPPPPPPPPPPPPPPPPPPPPPPPPPBlggggggti9PGwgggjsPPPPPPPPPPPPPDQgggpnODQggghlPPPPPPPPPPPPPFaggghFPM3gggspvPPPPPKFQggghgoggggkkPPPPPPPPPPPPPPPPPPPPPPPPPPPPPPPPPPPPPPPPPPPCogggggljNOCQgghrFPPPPPPPPPPPPLDQgghjlKJagggjHPPPPPPPPPPPPOLYgghqFPKyggglhvPPPPPPNQgggllEggggtpNPPPPPPPPPPPPPPPPPPPPPPPPPPPPPPPPPPPPPPPPPPPIZgggggqlKAYggkuVPPPPPPPPPPPPKOSgglmFLLogggrFPPPPPPPPPPPPLDQgggtNKJSgggutPPPPPPPBggggnhCxggggqjvPPPPPPPPPPPPPPPPPPPPPPPPPPPPPPPPPPPPPPPPPPLNygggghnPDgggggdPPPPPPPPPPPPNEggggjVKFgggguFPPPPPPPPPPPPOIagghhPOLQgggkHPPPPPPOBggggivDACggggitPPPPPPPPPPPPPPPPPPPPPPPPPPPPPPPPPPOPPPPPPPPKwgggggvDBgggljPPPPPPPPPPPPOH+ggglpvKPggggoFPPPPPPPPPPPPOKgggknvPLYgggrNPPPPPPPnggggltPHrggggpqtPPPPPPPPPPPPPPPPPPPPPPPPPPPPPPPNI+NPPPPPPPIqggggtnJnggggnoPPPPPPPPPPPKPQgggkjPKAagggitPPPPPPPPPPPPALggglgvPMggghhHPPPPPPBqggggkvPOEZggggtvPPPPPPPPPPPPPPPPPPPPPPPPPPPPPPPvFggvPPPPPPAqggglqFPmgggghk9PPPPPPPPPPGaggggqHPLPYgggst/PPPPPPPPPOMNJggggrvKDggghnvPPPPPPFoggglhPPPJAggggkuFPPPPPPPPPPPPPPPPPPPPPPPPPPPNAQsgktNPPPPPINYgggmp3KYgggggonPPPPPPPPNE3ggggqpPPPDygggkusPPPPPPPPPBiJjggggtPLBggghsvPPPPPPMoggghnvPPPEzggggpptPPPPPPPPPPPPPPPPPPPPPPPPPBDqgggghntPPNKLUggggkpKASgggggkggvPPPPNNGVogggjsHPPPKDgggggrvvPPPPMLIxlHyggggvPEoggghpvPPPPPOPYgggluvPPPKGSggggjnvPPPPPPPPPPPPPPPPPPPPPPPPHAgggggkulep44oggggkvfPMYgggggggivWpFFm6IoggghqHPPPPLLQggggknjSpFCtTrmHC4gggntPA4gggglvPPPPPPGQggghovPPPPBuggggllNPPPPPPPPPPPPPPPPPPPPPPPPKLQggggggtpvlsgggggrvPOMYgggggggkthgkvlsgggghuuvPPPPPGugggggkptnmnhsklXNagggtlPFyggginPPPPPPPLQgggnkPPPPPKCQgggghiPPPPPPPPPPPPPPPPPPPPPPPPPIrgggggggggggggghogvPOKgggggggggggksgggggggsnnPPPPPPPP6gggggggssgggglTGQgghsPPAQggginPPPPPPPDggggpgPPPPPPGDggggkhhvPPNPPPPPPPPPPPPPPPPPPPPLKZggggggggggggghknPPNFggggjgggggggggggggioinPPPPPPPPHJSggggggggggggl+FwggkqvKIQgggqtPPPPPPLPgggglnPPPPPPPBoggggkgMPKPPPPPPPPPPPPPPPPPPPPPPHEZggggggggggnptjPPPBigggiuDhggggggggghggKPPPPPPPPPPPPJbjgggggggggrmrPggghvvPIQgglrNPPPPPPDsggglqPPPPPPPPPPSggggst/PPPPPPPPPPPPPPPPPPPPPPPPHCSiiggggiltrSHPPPPAsgggunBpKqhjjjjnoqPtPPPPPPPPPPPPPDAp3jhjjjgmtmdLNvvvuj/KNkssoldPPPPPPN0sssojfPPPPPPPPJgjjjjiopPPPPPPPPPPPPPPPPPPPPPPPPPHOqS1srjAY2LPPPPPPA4gggnnPHKqb/mp8c1rHPPPPPPPPPPPPPPPLHOixXWoqUwLPOIAAAAJPKOsssslPPPPPPPCMsssooHPPPPPPPPLCDjjjnjgPPPPPPPPPPPPPPPPPPPPPPPPPPPDDLIHDHHPPPPPPPPD4gggjlPPPLHLHPHHPPPPPPPPPPPPPPPPPPPPPLLPHHDPPPPPPPPPPPPPPPPPPPPPPPPPPPPPPPPPPPPPPPPPPPPPPPPPPPPPPPPPPPPPPPPPPPPPPPPPPPPPPPPPPPPPPPPPPPPPPGYgggrNPPPPPPPPPPPPPPPPPPPPPPPPPPPPPPPPPPPPPPPPPPPPPPPPPPPPPPPPPPPPPPPPPPPPPPPPPPPPPPPPPPPPPPPPPPPPPPPPPPPPPPPPPPPPPPPPPPPPPPPPPPPPPPPPPPLNQgghtFPPPPPPPPPPPPPPPPPPPPPPPPPPPPPPPPPPPPPPPPPPPPPPPPPPPPPPPPPPPPPPPPPPPPPPPPPPPPPPPPPPPPPPPPPPPPPPPPPPPPPPPPPPPPPPPPPPPPPPPPPPPPPPPPPPOKQgglsvPPPPPPPPPPPPPPPPPPPPPPPPPPPPPPPPPPPPPPPPPPPPPPPPPPPPPPPPPPPPPPPPPPPPPPPPPPPPPPPPPPPPPPPPPPPPPPPPPPPPPPPPPPPPPPPPPPPPPPPPPPPPPPPPPPPKggghq/PPPPPPPPPPPPPPPPPPPPPPPPPPPPPPPPPPPPPPPPPPPPPPPPPPPPPPPPPPPPPPPPPPPPPPPPPPPPPPPPPPPPPPPPPPPPPPPPPPPPPPPPPPPPPPPPPPPPPPPPPPPPPPPPPPLNcccZYPPPPPPPPPPPPPPPPPPPPPPPPPPPPPPPPPPPPPPPPPPPPPPPPPPPPPPPPPPPPPPPPPPPPPPPPPPPPPPPPPPPPPPPPPPPPPPPPPPPPPPPPPPPPPPPPPPPPPPPPPPPPPPPPPPPPPPPPPPPPPPPPPPPPPPPPPPPPPPPPPPPPPPPPPPPPPPPPPPPPPPPPPPPPPPPPPPPPPPPPPPPPPPPPPPPPPPPPPPPPPPPPPPPPPPPPPPPPPPPPPPPPPPPPPPPPPPPPPPPPPPPPPPPPPPPPPPPPPPPPPPPPPPPPPPPPPPPPPPPPPPPPPPPPPPPPPPPPPPPPPPPPPPPPPPPPPPPPPPPPPPPPPPPPPPPPPPPPPPPPPPPPPPPPPPPPPPPPPPPPPPPPP/8QAJBEBAAIBBAMBAQEBAQEAAAAAAQARMCAhMUAQUGBBcGFRgHH/2gAIAQMBAT8Q+prAiWtRCCAES2LAfwQKogAHNgo8jUbBvHVfwOtptDPiNI1BqjeJTX8BRUQi+dbhRAP7/AoKo6xqXB/I6p/gFFD+YBs8R2Bt/ANzDhCgN47r8+/3RprSbiM2k5++Ng0uFxi0/L02FyRRmOMnFEHI5sjdD6upf7D/APi0KhikfjDv/wCaTfZm7XtiEzjScaReCE7m84VCmx4Eyo3m/wDj6qinG/zRfeDjnbZgBZpBoR3pq4rgnBE31i2yAbeAFvOkaiPqzzYGi/ZcMWhCN8xK0KmHTbxQ0wTxOIJ+fOcs4RfhQ4Is4eH1TcmPPkhj8nFeIBn90isLtP2bss5O0o4S35LcZDX1ISrDz5O83HzVNz/DNVktzn/YgH8+pOdNHKWLQJJxBGUrWFxzTvFR/U05KBouottAagBdvErDU2IPazaVieqzkhp2+qoCVWg7Uv3SgyZatSjlgtr4duSbewOIX230mi/I7Nt9SvCcUQ3J/wA0VGO06lvNpyWSpscx5DP2oTYnJZzcLy8VJDQ8xb0FG7Ki2IrfphvE448Y3JYRUbOGglzDqJiChcTiY4oIhszkGLehFRKKONGxxoC4yDvHK+kE8ThicOhbKDbEv8Et1cpWYBxmKcus3jmW2kQROrvFb+iE8RjYj254Xd4pVVLwhtcpOhTghTSM4MgdvodtJ+DD4IftKCobYQlVBt4wLlhnFoH2t9KhtjNWLbf0FACE2JwGLcNeDymc4xojjOzObZ2oQRHeLoIDvvHufQARARW8U4nJsH5m1Ec3TknRC2om1hQrQCKA7xH9AC2oaBvFvWEFtYZzHKJzic2xV56dqTaAS0qFYob+hNl/sMK1kdoQ9IjaxTz1QBW0IhzqQOrbexrBUrBWGsVStNeK0um/2GVYLRWMNmNbkTl1f18zloI0CKvPsDomAyGVU3CZcxKwH58KvUz8Ccz00C3aFX0g0OvsrgNR5dJgMRhJb7Y1AycfnG5uITnCV0EVkE/2RK0r9Tn154NR5NR4I6DCaDUYRqKxNpYFErEI4iTk7IrCXx0NwYZj90mw/kdl2611mNRgPJpMJiMQpuTfTt4UHsYmELh9rCSZbPQqGFa/NJxUqg7NdQ8VrMB4rUYTQajJxbNkZvBCbGVqAOYxpiCDFXmV0WD/AKhENJoeYjr1t+L1EdR4vwYKgaTQa6lZGLGJVAwobYyr48BctygmyN2vg6S1IVx3iVoA2MZAberOiYryHWQsjIXBqUtgzm0cC2jq3wdRjF2g0dIMHMdn1D5VVZNnuc08VnR0TlyVpd2Qj+iOgp2ZYg56Z8yZjxQoFoSosRLac6RR55Z5g0f9aRb/ACMq7l/HmUPNy/2VKSzzLOSfkQayEWpyZC7XE2h/NPI/9Tcx0TIfHGQ0KizcfNwWX+yflw+yIg0kL9CKw9Ayni/mxqWF6xlmpFiWodA7tSpXmpXWqVK8VKldSpUrrUTcu1m69XruV2awmM17OVHLygWOgdmu5WasdYzU4r8MZnKoRtGC1GuJU2y9PQPUV6UyGp8mJeEX5hFLHxxMq2MaagjHfeM76B8YYnyYDMM4jGzNoXwH7UELGUf9lSv0x9vFNO3SPlXyazpCOJwDNvWIcx2xptGd3pncuX5uXnMFy/Ny8p6q5b1jpGu+qa76h8EehNb1TGfBmc6RqdB0jrn8CcB8weyPgXydQwHUMBmPcmM6hgOoYDMe6MRpc53DAdU9oZnqPXMB8Sdw9KdY9TWI7hhPUmI9kYDpmI9SevMpgOlWM6Z1jGewMJ0Q7geTAZjIeqqVKlYzFWms5gqV5qVpMBmPXHWO8dB8GAzGU+WM74MB709qZnwYDuHoj2p1zunorx3rPSXivoOA1PriXpuXhMVy/Ny5fWuXL83L+eP4Ufwo/hR/4UuXLly//QX/xAAkEQEAAgICAgMBAQEBAQAAAAABABEgMCExEEBBUGBwUWFxgP/aAAgBAgEBPxD9SZtnDG4w6iXxCQcS8L+CLRcaYfL5S58bIAD+B3CdxaP5xS45ic/wFa5jr4wK4yYxLyfwIC1zpZOffMAWfwCpT56LNIQi8/wCpArS3P1Cofv7MazGv8nP/j98qJTYKopMB5TEnXzDFNw9p37EvmdewXj9WqbLvD4wxP8Ak4T/AHFPmWfK1WTv2doxXadW+FNuXwp3lxOD/qrGLeAd6U4QW+cp4OLn8YAnJLtncMbhOMfKxYiRxgg9wI2/VrXJ8ngDRUAUxFPUGzChUuXg2XEE7ZgncM4CdynYM5QA09/1SsBOmCvkJCIr+MUqQY9YQjuWu2UfMoNlz+qdCdMLg+SWVP8ArUG8eZxvWMVfP6q3xXEcCUYr2l5rUXm6hmP1NgxWmAkpsVzSKzTZGFKInweMTEkIYPn9VfsVuA2UoTEkUd/hjdS5zOp8QTrOXCN2f89iF0g0PP6lBO3Yol05wRUNGQVXMOOGXBvqJ+IJO2wPhOvIA68BYx3kFYL8Ev44FFfpkE7FnVzgCc1cP9OD148ZEwxOjuD8wnaw/knRGKgWzuScuXBai3uoVD9IoQflnQMcgiHLOS1lGT0y9OhTsgDo0GochRoOoSH6JandM4+4ueBZd+YFaVOpc+hcbil/TgmR7QHuXcKPxvnADRUupc4gghqcZvcwdHxjSqIQqgV+gP5jVPwAJp68BOoNxDSP1BKN5m2KiQUc4LH+FgCj9ATLHLfEANQ6hEal22F8J170VouCJcrbgtQCuv0IhaLjUOoFZtIdAivUUWwvknQkCvTOsjDErRDYfoVTY6rmsBtZyMO4IAdeqjYgXqBWOAL3f2ASs6lStFaKlSsawCVjUqVKwFsl2Z1OBIKcoZ3APXq8/HU64PUaV7gV9geHTWRmSvLgYkXAwcEsigIN6OMf4i8FDO51Hp3odxSPFCiu+vHlxPFwcjy4hLl5GJHA8XLyFv8AY7WqscjilO4Z03opZUZP9Q5MBxxOcfHvVKlStxGEcTyGQRhHA0nipUrw4HipWZIjmNBhbVRhZHaMsUypfocbFKsUN/2Gb7QSs6lajw6xcDwwjgR0HqEuD8ET4nYELabqdeRAKVK9AWVOQPmGCfM5k9kNaaQ8VmRZeR4rI0kfJkR19gTq49CdJDJf+QRZA+YAcECfHoArFMsWI+IVh6wStqZni5cHw4EcjxcuDieElQMSOBxIkqVrW7JzkWUiFJLrudxajVRauQ6DwHh69ABTHqdQbLweOSEa79U9BMiXgMcLjkS8LjgMvxeBiRxuXLjtQ9znYZsSgVGOofb3AFEqB5fRJK7nJcX5+pQ+oPQfwqCUx60nWPAYuoRbOpyAUxV/3DrDrkn/AIf0w0Xqfw5k6CMDYRwLLmmPOYVZAPnr4CJfGLf+sqn0TO5fm8mX+INoeGVKCgyg6hTpgVXAPMSczoGJRcW0+cXhGcQ+uchwv8UbA8sNonBeeJRAOmdaxzmXBycIIWegZOY+F/LBg9eKi51ATIeJK9fQMnMl7qlSpUqVKlSvVqVKlSpUqV6dSpUrybDLnlWbrgegMq9SpWqpXoVKlaalbQlaTJxDO5soK29IOL9AzT0g3VuDdWsNDpOBkvi8jlCKxvhAXVyKlevoGit4XA9BNYSvQTSaXSfIZXgh7naESsJyEPwcKSycZG/8gmPQNKbQ9NNJD0kzDU+TJ8BkuhD3Pipz0U8ET4oJlwZqoY9NI6a1nuHquRqfJmGV7EM+L8R8CckD3A6D0z1DRcuXLly9DmGi5cuXLg6ExNFy5es9avWHTWkM70DDYGd6T0V+o/UDpd16iGSYmS6iGTgYug2L9UOlMgyXYZOBkuwydLoNa/VkNKYnpmLgekZOl9Mn1hDYZO40GT6b5MnQfcDpfJ9gGL5MnQbK+tHQ+TF3mgxd5i+TJ0GZkn1o6jF3mL5MXeYvojMftDc+o6HeYvkxdJoMk+tNzuMnyYu8xfJi6DSZv0QRNJoPUDSey+TF60GT1gP0wSvLoMnwZuwMnAydxi+TF0GTiZJ7wYugyfUBrPRrwaDJ0GTiZvtmhMg9JWgM1xM6laA1jJ0GTkfVVKlQIGb5NVSpXioErNzNFSvNSvL4NBk6DJyHN9s9Y2VK9E1Vk+DF68m42jmntHHpLgesukd74MX0R6r7Q+guJ6t6x3PgxfJtN5mntjuXEyvdcvaO18GL5MXQZOozT2x13mZ3B1XL9AZeq/BDF8mLoMnUcfRjBl4XLly/RXLly5cuXLl+pcuXLly5cvK5cuXhcuXLl6rly5cvZcuXLly5f1p/CjF/gpi/wUxf4KYv8EJcuXLl/wD0F//EAC4QAQACAQMDBAEEAgMBAQEAAAEAESExQWEwUZEgQHGhEFBwgbHB8WCA0eHwoP/aAAgBAQABPxD901QsFUCokVnzB9PJD/7U/wB1H/6UQ/8ASUZ38wS/+hJUntB5AnMrZfhjUK77zc+ef/Xz/fSt/nn/ANvGyle7BZC/Muqf9B9pdoGo/wB7RGkiylknBKO0o7SnacRH23xL6j+YCN/5lhP+gyEu0or7xRciyjL10doLuEoG57xuo2QhZ/0E+ZgPiZHMQz6NSmZwz45dYYLWf9BHBQxF7mlrOUCuk6MsKAYK3PSES6x/6BaFMRbjeeptomUK7C4eUWiGc/8AQDaGltpWUBue/VNojkXRmE7g1hhN2f8AQDeZcrE12Zl51hnUXAMw83xFYJ/0AwVzBuu8DrJZUG9CaAd95cAcfv8A3kZM2m7zDTr16jsVZlYugCxv9/rBxCsO8rNzDT2DBUwQwSLY/f61cRLTeBm+xB1l5UzMrOpcCz9/bbwzNEBm/ZWiEw3MJzayDd/v5QuUZyRo9khBQ0DMyXG8ES3f79vJAbW0zSNHQWoMOjQNy3QLjcs0R5P357SxS29Mn5hp0BRCYnE0l010RajD2MNb2msAduz3tSzvEd5yfiU7IDvL7furvLnxLL0ybmGnq2mA5gDqsgn08RqTRmjo6tR6qhleTgisPf3NnePegTRHCiXGMucPMVcPMLtHmM6PMZMfMocYVYII6fupc+Jbf3mV4aerafegXS8EGwaTTYuYdGFkenEd+krJvHtSIbxPUQdwlhRhjWnmAk/tEsH2lvnLfOJXKF2qNaooZx0H7wnNXMDVWk2/dPUsMK4N29e0Wibylk2hMzWHBUkaMOjgY2NZlB7RCE9iobxHVIHURS18y2o+Zl19oFQXmXufmAJfMYW0L7thN4pBX4SKxjYwG2xHXvDWZpuz90lSlI3tHaRo+tc1MVXn8sBpbxKUpmJYekuZFwnPeBUtjpGv4qXEGrAaiasfMOaHmBNHmdmHMYW+YK28y1tZiq3HN5VKOjaLAC9kV/Gfuk6SGXtp/Opo+tUZbKlcVtO8VEEval3CZl3RE5jIqzKREC1fQuNTUmawJrPkiuvJD/yEt7vMcT7pY28yztZhMrAG/wCMKOo6MsThDXwn7pOl4mQY/nJpetUJQdShOIaxhMXiYuP4gQYQb6NJGxmG5bEx+CVLiCbxLezAX+yAtPmMP7EIk8xZHzSxsl5b8QoUGOu6M+gn1D90lTRlHeO+DT1/elzqVBxDX8AiO8sJf+IlJWZd0SGW8dYRleN4JhvEYIzNfEubPmJv7oDD8wJ/alp+xE2/NNXJnuCYUH2Z0Z9BPqH7pXGFqHeK79C6jvAzG3pAALUYcNwV8LFZ0UtobqFyuq67wFWAhDzSrT8yjb8xKKHzH/KU1EyuqAbQKAPbOjGfxJ9A/dHaEa9pfyNP1uolYvMa0Vj0ukdt8dopBRcVUejtKWhQIPmNLL+Yw/sm6UNWZqUgOhAoFe51Jjoz+E/dJXL2lx56E6IVwvMKkbeljoNpjy/EZcCMd9FR2lGkMRnCQHaANverYkGgwxHsfujo/iALJ8sdBVE/lk/j3qSxI+UWu0OlC4NrQ6NHaUdvfrMfuZ3mTaccH7o6/wATI0v3XMxPWqCaUvM0Zt6+eZ/4TGrdGaPeD1dFDWksgPlqAKP3Rx+CV295VWGPWLqW2G8NE49e0qWtJZRVzBdvuV/Et+Dp0SqC8wGfTDIFY/dHeH8eYm7zW9a0SiI7khp63SG6iNo9pe5WZZ7RYxeJdpZtGNUWWqZyoOek6IRAuIoIqlNfunS72ljveGvXdRUnMqKoadCoaheIjKksIYewuMXhbaaJArqiBb8QkvXxDqv1jegohp2Zu6KogJQTvsxMwx+6ZNRy8c9FaJzLdW0NuiglMKjsj6VnrBYqCs26C7prj4ipb8TEv6wEo8Ssx8QwwiPAolYEV16sDfobROBmNRpZ29SGCv3UAdyzXeYK6AqXMsNbTfo6QuA4iP8AHFUFRX0Fiy0smiDNKfiL5XiVVniUl/SPCPiP4OOJS0MQ6gr8Mx2hbY95llSzNB0FdhHSkWKY3jaEINP3SpCssuIxU2QTGBXQHwN4PxZv03VbEaoC43V+blneLFZcaNNLUUw/EJWvEen9EqaPEs2aaLgmgiBUehUrB0THeAJostX1hgroLtCAKLNQHG0FBofuhSDMsvrEIcPMAQPmf2AxTmmR0KNRlJvDR8Q6boM1PpexUeMwnVLjcyZp5NDfiMf4IMs8Qa/1RQWPEEv6pohNFCfzP59KgWwhqNd41tL7xVOrBSjoLULAvMs/Uw4wogAV+5Z+EEAzD2xLSx5g7j5lb+3HZXmJ9L5jqbMs9BUSi1TCXafW6joxShal+1XC4Y5gZpjYh/iiEt8Ro/qlVY8QDHimlkNwENOi5AYn2GozyMoUdBalzIbjf4mBmiFUafuWtRDWGtpLOz5haB8xRR8zOPzE1eaGoH8BbqTQIFdDXlBymGu0+l1LnORGuh+JZU6vtApb4ggq8Qg+BNFfEEwIej810V6BAyV8xGa5gDoLUswStGxopx2lQKJv+4xGOkE1gTaQVsy6EeZRD5mYfmKK8kV5hrphqCA6EAadPUlW5lsrYmh1UsqaPMU39E0F8TRUCiusxTK9b8whWlxrV6OCGlOZ/SRBNKv3H2gt4Q2kNbECsPMbQfMp/wBiPPuTIuWuFlxkgW0AbdbWn8jlqrZDT2P89Y2W0EwjURK57yx7kCuhUQmV5mANjUh4Q1+4mIQg1ljaQVwhbj5lEp5l/wD2S2LPMTOKP1IF7pwEo7exwJFvrclY49+0FzD4on9wMRtUWAB0FoY9cuYVLxKEA1Aor9wwDWbxEGEYY+ZSKeZeB9pb0/Mcp5oN6h3oBWko7ezoPwTSO5DQce/YVDEPhHWKrKLDQ6CxNaNtVcS3MO0AA/cDWEEcy6wgLjP/AG2BaH2hDWvmPNLMUbtA6rBRmY9mtRizAuk5KdowSBQ498hKEJPjCYkWCs+i6BGizmG/p4gsGkf3AUKw1xleTcB9oin95YZxc2w+qxzX2ixZBsGgTeEEZw0t+JaP0gmwqCqe9ZK1BVKwLWF1dGhlNWzP6GYRJVfuBcUWJWmnmDJ94gl8xZbQjdxIwPZrE/FoZN9R/XDlvxDAv1lO18StxxK9SBWnvQGWK5tgiTdqsFdCogYBZSilyDEP2/UNWIlSOHxMPL5iJLmVtyr2ow2VzcEV1+JVW/ErL+sMVPiJWHEGKEAGCo++WjMKA0lT/eO1XoxUStAsV31woAx+4LYgxPooY3JC62Uq9lcWKLWbmm+/EHWvEOn9EeCnxNLEr6GIcB+hLQYJ/nrLMLmBl0FolYYInq4EK/xBRX7gM01iazHzLOqXDygUdezvLO8U7xO0BsQ0Zprhi14jg/ojKo8QA/VNFIQo/Q9oxGZEnzA1SLBHoluwhgpFmvv8QBAm/wC36gZhNoQilEuIB16SneK9JUv0Cze7N6eI8WeIwKPEBtPiaSJoAfowusIAGoLkphK+sOhsXmCAFFgH9BAoM1+4DOAPxYarmGnWYtpHNGbym8PEprfECf0oPseJoI8TQBAor8X+ioBWHaRqN7q+87iYKK6CCBQas7bDaaXGoFFfuD8eTvPRsmGnVu2oCBcBIvEslvxLh/XDFHiaIfE0pUFFH6VWQT7REVJeYKK6ChFEEs/S+0SsoQBRp+ydw0/TnXxsVK40dXaZA5iyD8ECMJaOYOiH6W6FYg/ZURlOZUZ6ObRF4TmVYXXabQP+PGMyyoiJLpDSEisvpGq2joRj0FEDQ00TR06h3LLmxD8BFX4IZOoIqkvbEsD7pY0eYxqnmaXDTkhp6zW0jYYIhXkQbL9LZQTMJaSV8B6BWmPI+oKIiBQ10PQqPDCUIMY62LylDGIEAeZR4eYWwhOEisv9LRg1iCtnMKq9EqjCESxQoCv+P1xMQlHHMRf+ULdzvKIWut5zCdInGqItaU95n/8AUOy8z/8ARlv/ANQwU8w4q3zKQG4adIcpRKjMPeZX+U3kHvBxew3lOOkhF2loEqY445hADzH1faVX/wBQHb9odX2givfMdp3PU6S96VNlJ7wb/ZDKXut5yEei2Yta0d4drnvHuU94QVrDoAxSiV6Ye8t/+of7U/8A0Z/+jP8A8GUp/aMRe/W7z4ejd5R0oNOq6M1rMs0KW3HMrR+0qcfMLYzThCF3+klRtHcusJXoiycqJUiQr/jxi1hYDh3hE7nvAGB94mKV1N5ywdKhjm015LvGh/N5HsBz80bnxzG9bQ1gsbs6IsmqILl1O8rTM94Gv7IOKL5vE+GuiqS7S2SUd4ET5iac8xMM3MLGCrrFBgUO5GGjkn0Hq+pHSprFRVfebtSWF7Q0T6FjwjFrpiDa0NwmEycunQsFTeEBrd4CX934M/2k/wBpBkDU1Jmxtr69pe/hwty0NOtiAqL0YLVpTW4lkX2mbfeAsfMK0Qjh/FfopKF4mfggmDfQSUKQbkEIbx/x4XaUTPZqazukS0aSlmKWdkt3DoumwS1ulw5xAcbRTUiJdvECUscRGsqZhMV3Mm8My2Do4AkgQ3ymssHuy1ohDTeB3AT4WOg6XLwJROZ01gFbb3lgVYZV2b+8TP38Q9beIcL69orUrJPrvVh8DORDBLZlLoLtIhoOPR8NQda1gCVvBdlkgBqvWIWwiXdMi98wlVC7t/iI7vE53iVtXiXG69ptVj1kSzMCvsnfUltPYpiIupbLZW2sSgH7y6D94Us+YeYw27gj+igstiKKqzLDo2ohsMwVNsS/+OE62gBlB3j6EtGchAtSCm4i5u2HebIZOgrXEE7M/ihaCawb4lA08Sr/AAdoxlKYC2HMazDBt0CcaqKLlSaxQNjAsBctqI5Q3ZCfGToJoFE5ujWXQtsd3QAu3xKq1eIctfEDSviNIPEthpe0QeFQUXHqHiGKAMK6fwJOPSCiejMm6cqGY25lyq8ko1bdDzg0zXQpBqyxpZ2hnR4nA8Rxo8QJSVxCIUrokjLxP6yYcJWfZhhLVKW7YzdsRwL4jKH7wlf3h5j5g8COkr9CBktqIPudopKis6KhR3l3dkEi3j9bs7yzvKdyU7kp3JZ3l+7YFEGCu2U1jIurExWlhkSpR/CpxSRWHjoXLsSvlI/k5hK8wbHs/BRAbI8Iasw3MarALcetaLjmERQK3LGs/mZiMoxTSZLiNmbYAV2QyesjK47w9Nz3gbGrLi0WK7R2mOuOIYAD8GwWMTU54lEAgoHq1lWJdrgYJkRtj2VdJyE5CchAOiQE3m0sTvippVVXpKNW3r+FoHOpquYSkvJBCgYUNUnITkIVt0iZAMRfrmJRJYZ9rkW7mlLMVbEKRfmUbfaBsfMBMIBgS+f0B0mQaKaVmK8+jfaAOhZL1spBHT9WQbxHZBlpl9jLLHzC7PMJs8zheYp0eZsTzNj+YDgwbQwDo+3FXaHoXTvL/SMWCGsrW+MH8K3ytOGRFa8dDgKF7oZbYFe4iRYYInZNQ/DjulW2LZa97EGLzEU009ZMuhK+2JrETbuAAXEz8hHOKXpYfiktv7IrD6jUuh+AGolxO6MJHVTpMJiiGOpXrrEsV3mZ0N/FCUGYG84PmcHzOD5gy6+YbBtbzkuLUnEuydoBOPX8dM5wMsXKMr3QGqY7xjp8xo0+ZXQP8wgI30nSAgxNqy9HxHQjLDPttbGsGB4WIQFxgf2QcseZUUfMK4Ye/Na2iI93aNGrOg6QpW0Y3ESFe3Z+qB1pGlmGuHmIuB/MUUfMC1feUGvtLj/lO++ZzfM3z5mFf3jFX9pTWfMpLD/MIMH+ZeAxWjfta1BgmYKmssNy3DunMVlGO0NvZPmKfIs5SEdr0AIXdHzN0NDDcazDCpR3llj5lzSzvFva2J3TBN0shqKYPU6QYSNt4+tFby3dMc1i4YmmO34yvVVHLcaiK349SNGsRhNsymShViIkANIBjQ6usqxLPd5lCUpaqGS8HecrzOV5nK8yjr8xeCPMBzVYpQ3mWG3Qvt7pcffMYx0I1UKgz+Zz/MatvMsBbe8fRyENOlRHIgxU/rFhPEaFiIOYEs7+0FwI1ZNdMQ2eRD9Mxmdoae/Ns4lOF12hOKBi0dFpbMdhA8i6INn6jr6o0UQChP5lCHzAP7E+wFFU+yOvluYakotunOgO6B8KOmhjnmn2QIT/ACoeB8zGBvmHkH2fBhMBWE1g1SMIRM25ZEwhiIeNGAQjAowdiWLh63SZE3R13uhE32iZtRx08y3H2QhtbizksvRS+0VDNNoFDQ9RvbEqM6msvBu2UILjMRs2gwA3QFUMAI3nyJPhRHZ9RKLtFuN5hyJ2kE+BjraqqWG7zMcIBaufLOdnOz55YzcaNUVE0reZoasetaLgjO6Mjn/c0viMbpR3hzwGZl1GiYi2Q06ZpAUQzKIVqXf6o6o8cREIyrWA7yzv7O6jE1lYCCrX+Io3w9owE2hCbVS7QIBsfejRbRgd/aFXtZo6DozA7GJc+8At1P09AZjVDEJoSuZVx5l2j/MsJs95rWE1QPqQLaAbQH0EM1No9mBAfmxLIAvvBf7srYf5ghBgCz2NEA1MVq3eK7kWEK0j7QyQMNDvCCrjvGEsgxyx2QA3shp6sfimcN0cAWgdpgAWMzeXdfiJAPxKcu3xEMbs1JXcNdoaeowEaZdSnYxpdUEtNzAIw+Fp3mLT/MV1eYv4pyGIrfD1NK+0Zu7z+6VBq7JXB2OqtC9pWiHSu8qJ1YfajxFGrxP9ZP8AWQu/wRK0AdoLIpIqgsW8zT9YPXYJf3RLojAEqrH+J3jxD/5EUFvEdcANodJmnUfwCDvEihfiVgeI0C8RhzP4irYy+qFWsEfYIJQqKYCxqU/xP64IYICuJUjSX2KohAn8ytm57xCV297YreGUXUz2AYGnRwaS61AZXwtEyH6baosAlcwEk/mOXH+Y3zF95u5gpdTRiANIMtly5cuXLly2IOs1Yg6jMayFSjEX3ha9t5Vy3CFnXVJ7Ep6mu83lE3stVwAaqmCreYrTzzLBrmYTYLCZavBDT1YfFC7GYfNyocxzUviLCPxL2vxAH9MwS8RoEfiBRR6kI0I2DfzL76oIVINQgU1zAireY+Fb5iOm5niGa4pMx6D1NVNo9o3msziEhbS6eq/WKVrExwy93iMZEQZLY2gVlPE4vicXxLGnxAESltFgaoxWaZvM0vseuwcT42ZlMQQuIYP8Ssw8TheIwKeISKI9oJjY6+00wMQIfEP/AKEJYfiJOZ/EaiMCcwgI9VLeIsGQTEq+iDEvEOAhEWOkswH8yvQrmLFudmPjWl5dvfYEvEfAf4l07GHQNomO4pnYMwSO36YjTEMaFHef5QS0MX3mrlg1pmGgPxfW1iupK94/EooA95qQY3joFs7wBZ1qjjEU1xezGvlYtwi2QZzpxMv6QVqhyPw0HsQmh8erFOU5nMzjeYK+cx/PQ2lGjp2h2/iaePE0VUMHrQKMRSW57xNSxiNVgzS0zPozcDCajOWeNkydsmh6UOF4l+aZhSXBoICjdBrBQRuGT8CrTEDhX8wRZhhp6rjdYlaW5QEp5isbnKkbdJwzhnDBWy7x6Di8UtE7k0Dt6+JCHyDH8pKil5IoUMEWKqcM44xivZJZNGXFOPiPUPEeD6QhzxxGtjDug0EeioRGkwkywG3xP644NxIZQixRiWWCjvCv2cqat8w6o2wmV2gEDb3xVMWslR/FFw1ro2MNY4UFw3WxN/0p1pEKaFHeXbb6MYrhYuWUC0PabgjO8JniA95loY1YaA2QbL6i0L2lIKY7xz3I67rH5W+IGt07Rs1eJzPEU2eIjZlcS5cO0rMLINJ9T1On5RDNyXpPipHptiafx0mGxCHRjvHPWQAN2LFR4j9XxGzV4nM8RYswdpXEpgyJtFhOGhNH49IBS8S4fXEwvMYdpHcwHvDo3RvAF+aJX7onhKO81ilNZkSxBhp6rTe0Al3mGvknLAnw6eh0kXu5HKKYjDJuQzux0HHyQggXu+B9THeNH+Sf7SGADzK8Lcdh9mlzeyOKPiCUPEQR9Igy8S+sZehg0V+odUu1EPUMLRP8TCDxDANwAMRqoxCOpXM3BeYfEF7xagw1RvLbjtBQHb350F4lQ6wqj36IsqUYa/DiRV+kmj2leAh3iLMroxKgX8ag09tQmY5A/wBwHvLnLjeEENnUoiYgm2+GL7uOUXcZyMG0Do4O0btPicXxAdi7QtOB2h+fhVDFQtkjtuD1ZFzaJSd0VqIatkwpshg6TnpRM32XeBLcw6BREFfobSop8Ru0+JxfEBj6dobKcw2SZ93g5NpPpenaotg47TJcB7S7esuckRswOYpj9pcB94hjJ3l75D+4DeU9d1uorl3mEBzD41PiQ9DpeJwmfxauAXLM3E0vj1bQx3umYMXmL8SrtVRRMf5l+7zFFl5jhdr3l0NuorXj2nxEvWaoGI6MC76IkH0mZsZWMW4gMV/hwQSM0IOyl76CFgccTSUB0y9iVzBCfMIXzzESQuYe6UGIlcvMawbH6AApIHbkqZWekgpiNhGZWlsfpC0LEwRDvG1vvRidpFhGUx7iio6lbQAm8rUWjeGQ3Z0iRgcQojQTmPgay99KbQiGwbQLQnFOKICtog2xjUkUtEuXuQVGtHp2ldvZjkZhK0jXtiGU7OkTLaCZXTL2KQ1ANWXXJY6RmUQTgJxTigJ1ioRndG128alIyLuR2/D1CYNkfxSQeuU9pl6xLAtG9r8DFQbbmzdbTjUPXjzpFzZzGrrZMB7EreHoVntGTO8Wt3jZpmUMDSaHx6nTeJkPdKjbowCtpVwYjSK7ozMxcyAAnQgoePboMVMhjYrASPpBkfWP5YitROKQLDQIepZlqPxKq+iDsbIAaFR+DEI6Y5jKfbLqG+Y4qWCZExtHRNH3maYrB+gkRLxLnRHaMOgLhtVZlQRMkdv0e8yITfvs1jtJFh0OvuyKIKhqpgKCbw2lwbw0voo6doaC3cLnB7TcGvaa8hW0MgVR6DaJRQu1DKs9kEl/EaDKe0KG7B6doXG5LV3PaGpbxGwik2nCfSNKe0IwtrLlWXtFXtr2gauA2g1lY9BsOIqy1jFMWvaHNLxFMGSYB29RLKiwKpD+vY4R44jnLxG7V4iNTxLefiMxoraYW0PU6FgdLZEvbXtMtNG0asKCYH0Cj3hFE2sIW3iJya9psVQQ09X1IchyMvcbe0EC3icjxDv/ABOf4i3n4jOf8Jt9QQUDj3DMR1gjkpCxfWMEfSKKcdS0BltYiH6wYU+IOAI0C6EvA45hkHHM+xLHDduP3aAB+VUDi7zRNYP0Kx2RnCszMdFWxGcpmE7LEf0V5Aogv7aWoOZhn3hLIQ2FKYnYPeIoHHRsoFWvcLjXxCrTjiAqSuIAUejaEyXZGtGXtFUr4hIV/iVJ29VdKu4vQf4imnxAoJXEq+zpc+QHb29oBt8QqU+JQYKPSliQSbXFVXiOrXxCZrntKDs6AcG4+AzxEzXxG/R4jV18QA1xxDIEqYD1XEBla4RtfEMKcPaGzSoFejkwitvfERSviDaPEEAKr1i0QSKu4lQf4gzT4nD8Th+Jw/EXNPiGasPaCgVUMHvFDIRgUlo/1g3/AMYJ/wBEGlMQAoMROoxBmhXMxH2wJpvmNUsxdUar0Oo0reZpPY9hfkER1PRcvqWCXiN35GFMG+gkZB3gP9sCu3+iGqqqUIGO8zfc94wN9XExMR6xMfCizMfi6byqeOlR2lHboUdpR2ldCjtKO3Vo7SjtKO3Qo7SjtK6dHaUdpR2lHbpUdpR29dSjtK6VHaUdpR2lHaUdpR2lHb9AxL/SG0B+HNDEH/tjvfMSDb5hYmDB6SOp/l80fsdd+gURR+zGK7/h0mGVvSW8YJohGBLO5LO/RFo4hjIjUFUxXfo2wwuZim5JDP6HUsId5YA/mKyvModIreBTUPpHtsOyw3hjusR36uN5aVCwOsRQdprHb9jFDWLWNEOq17xqhv8AEGivUazTml9yaN26yxAqGRWHeNbEvvFDUGy5rQMqURgPD3lBf2gUv7SikQxhWiD6JLO/q2mNragKxvtA1IadB0Y9poytPbBIuv6ESNqiFlqneADOYWXSU7/h6dAOq8TePiFN38QhR+JaV4oUiojASukoEvIN3osZI8RZAfxCY2/Yy3eIZtjHsu8E4l+shpl1pvBLWx1XaVKVBDvLdkt3lE3VlMvtLpe0QSmIAbTAmDMKY4oKrfmFC/vMRf2ipf2g5ZmnkXoIJo+jmwmubXaVAwM0OjkjSysmHTgl2X+ggiiKOVJY1gp3vSdEWUVhC1viIkniBL+kqZPidt8RSo+Io/oQdDHECqA4mGwgJ0EDLMfnLCG+IXZTaMoCHaAwA/Y23cQ7rvL3zF6OAHeMpNyfWOoLraYSCHeJRS+8fstsOyVi60lou8fim8MQZIozenbhpFmhqFbcAF/aPRf2jpY8wYs+YPpi9BBtGViC9W1L4avtMt7Q06GtEMtUxrvbvBI3P0C9GqmoxSaxMKjFHRYRrZZdmi9oxkfxBuL+IbQJpQTgIfkII0TLRjtBn0ESxAPaWuxBE9QDLC5ZimrfEu9g2iSEa7QKmn7HZ82mpu8qTnouow5eZdOE0vjprQsrREO80vM7xElthBcNiGK6yS6XePx8DTCG8Mp+EuLfjDkTarF8KKmcPWvMNV/eUtnzKex5mZGPSG4XS6gLWLhp0NoKohPQXDsC1DT3+QaaZpjWNYt7mGldHsay7xFNoZcwbQYIriGnqFKYbIWu0Axedo3EA9okS9GmWaQYEAsQW57RbIcbQvQK4gUUfsfcbjL27Dm9FUpUNcygqrSaHx00cBCcxGjEgkWA3dYYxLmVjDJL7d/hXuIbog4uYaehL/I10R0qxDCzMlK215gAP3gu/vKwWyJObx1HRFojiWsxnr6QkE3966TAHlaIFtXmZ+OiqbF1m2bBEdIUAa6KWVCJDZGZVnaN6AMJoMqKC2CqZgKxtjuifEeSHG0NBFQKK/ZD5eQb68oM3o4uVWLVWxDTpLWCiAiH5jjcLMgcyqwfhIpxrJFSt/hfnEWsg4OYaeuo9qccTojooMwoSbS+3zBK3HV0Ujbo7xUDC2PfOz2I/YjAksSdHICMjYpKSbpDBXSS4NVbIZSfBDqxmWFwA60FU0XtHPYNo+iVxAwqr9ktRbothecDfo4OU/hLRWxDTooGoITEQ7wYVL7y5cpRgfnQxp8sAC7EAWTHS8VtKoeYdOk4ok0IG4YrCw6V1IhhrMUraGS/euz2j5IT5E6JtBdZiQ1JQ+HUQSkuZSsdoWY5gtI3EEYXtO2k2l9AriVwV7vaaqk14TU4anAP4mT+JLSoaEIGhP065tJqomrianIH4uV+KrS4aWJpCfqi1rMcd0R+XDoCa8oHCXitkNOgi0iDAEO8Ue5d4U5Ld4DR6NDMlzMyVglHbb8DTNo/z+vR2lHbp1HZUcEArO3vXT9lF7iRXg06KgzIXSAI69Uapsir3tiVtur7Q9Bq2hEFh2miHuUIrLCxiINyfH2TMo+Zl0fMy6+0DNfaLbl5mbV5j/7Sxz9pgX9pdLPmViz5ggfZKKjLUD9HC5Ya2MR1E+YyPsmXR8zPo+Zl19oFtfaatfaX3PMT/aFZ/lMe/tMez5mHZ8wwfZFsHMOsH6EGpIlsgdke2nCnCnCnCnCh2UYqkJPRYsyBswZ+UOiNqOtWyAetnQJFtC4Ih3it9XePWosA29Vjcz4OS/Xt+K1UXWt4rfdi4mVvNVbe9w+TGDvdMi9LBsdrQBHgFpFduptUXqW+Iep17Q6ETj3KBAl3YxzAivmKKHzL6PvEEH5lxn5l5l5lvn5lvlNwTNqgt03FNy+ZujzC9fmArfmCP9mUhPmUgDPMDoMwz+hOFSZQMcwYV8xBQ+YrV94ig/Mvs/M3F5lrn5lvlFZlC7VKN03JN6zeHmbt8wmL8yj+xhAT5hQAzzDoHvT2ziXtjHMsivmZePmdh8zLx8x7PzOH5nD8zh+Zw/MOz8xK18wIC295RjqQ0/N2mcNmDJB0G0GKYA2QUfD1rQvaXESifDHrHokWHHrxHmHi2SZwvD8V6tpb6jte7M/nEfM2979rA/zpp9IWyPYVTBS0UawZWs6qDqE4D3DsBU0MxzDAHzFY+2VQ/MsMs8y8bZi7dsNqsJvFPwATEajCsRvFbsSu2byhPLHMsx8xbPvMEM8w4A379MgVGxTHMEh8xB/dh0PzLHPPMVNpe6sJuwG8U/ABMRCVFYjeI3ZdLYpdsRAyxzLIfMCR8xMUzzBDDfuXaiVSmOZTAfMVU+8X0/Mcc/MU3eYtu8zkeZzPM5nmczzOZ5nM8wWR5jrbhvBbNx6LfxM0d4LfmHQakr+UxjuQUHD1qaCiH39NZYyizFnoO6GJ2R3+z8UirxLLqK37xbB3lv4Peiw5x2luhoOnmpEOymWpMBrFQET9DAVQIPQY5hC+8zN8zITPMt7TF27Y0VExMdHExGvwHNjHkFiES2OZZb5jX+8DNW+Zfu1DVJTgxzAd95db5mUmeYA5Zl7dv4irWFTEx0CpiYlKIYYVu2Ey+OZfrjmLr7ws1b5giWN+1fKItUK5ghfeEK+Yw5eZYZRtbYd1h3oQPVAAhLjmHRKtw9HxwzJ+7M1zDoasHyE+HkxH1ExBRCP2Mvfbe8ZLYFFesmiIJ04wiqa/ihcRHhD4mK6w9y4vzI3xPeix5TlU/hjTpYiBV1QRQL7w9BwbwRLP0BQ1Y+U4haSuYePtmXGXvBW03Ey/HJfXJcqMS7JgCxCa2HvE+J3ikhU7zQEfcrFN/Mo1xzFyvmE1s8wFVNwf4JfsCXDZEshdixMxKHvEHYd5fAb5giWI+zfgJQLjmW6+ZYjzzLasP+AGiXLly5cuXLl4iir7sQUfofDDMhbo5T0cFBGYY2JiHHpSqCiCG13mQ7nvEssFK9ZKuINCbZf7W6QBCqPxciY/aLw/EEcsRcUx2oxnWY9s6qo2Fcqlbe9FjHyAg+Uml0iDRCbpmIWNN4pIWu/v1DVqIlLDvKf2MKxa95dWZmWP4Y49rcr1EoMoZ4YuiabwrCp3l2Q+21RqZ+Ad5Z0XmBovMfWZli1leoPtbxKKQtowFTKiudt5Qjad4Awj7E+hRDC45ipPMuQbZkuU5fT1Jh8pXV7QUePRZ73RrbfMy+jr/ENThMSbJgPj0KlVEYhDvL4kvvLtLlOvWTQIdQxe2OpDepR2gmj8pgDL5r4mGfWCJPpAWnjiFNKKaWm+GI6wTvMexWogBmOJARD3oo8TiYz4zGQeOmYm5lyRmJwfVgwKp70O1UUxEO8U+yl/NvmZZUHTMCvcGPwD1gZYpiNQxvKfVQ3hpPaNECo8gEO80LvmKa23vESmFpmB7ggpUAbg9QqMxNN4jGqd4AtWddAAogbSjvC4kXvFyluHnDB1deGMpobENHx+XEAJ3RMrfNL46P1IUvCYI2TEfkBa0QwAh3gnaWmsWhbYQx0AFUEguYurV9o2gMdoDB6RNJLqwhbhEmPiC0+kFKfSHtLxFkHEKtDuGOtZySzv1tjrDiwuFgkfei0QjltoCU1eYn46uqjiQE3hZBxvCgKnu26SuCId4s5PmJCNsyWwNPvLgDA1aUxlYWbwwoqG8Ix7JGIqEglcxg1fMfERYBthaJfu3MBzFximOOCw1jGKg3giWdUAV2hpQa7x6qL3jJluGJeK62pMFFVDYhouPy6TDyt0NmdL46JsOIia2w8HUflaLilQB3lmYt3ikrbAbOgwjWtLpUU2lRQ0bQsFV0OYeomuBAXCAOPiKNfSGFPrHWl4lzTgC2MJrBDLOaAeioQLU5gaxLn9PEFA29/gS7Gd1ZbqA9tIdQlxGptLegE3gPVQ3l1Cz3LdKqH1RDvGEI8xCVtlC6zAGnvrxUct0GulMBjWNWV7rRvDT2CZaCGYlHeITT5iha2xRYzArB79WYiMAwvYRrBUVSGTqK5FEV4qxW1zAPYNb4lw8ZVW2QUD8ql4ms9mDpAUok0BsgpfkDEQgMQyaxhCLDaMy8eu6JbuzHdVJtFcRo2gwAo6usTWxF+E018QFr6zJr6y6peIwpw1A/gAGrDuzmlO0uWd5zTljYHwSMf6KjgAxBRXvxR3gRF0ukcg0QuqQk7AouMCbxnlaN4TDt7dErSCCD+YiJOGIVW2ZCszTHVqUymUymV1uIV0MxChTEsTTVgoFTrsEohOBR3jAH+YuWsrWkMYOpUqUymUymV1yLGsR7gMuMtG8NrqdNclVKZRjvFNcu8pMzT2Gt8RMLb/AHCWmyBR+Va4mv8AvB8tNDobQwIdyIKH4GgEISqNd4/miwBbWGCugTkzEIak2geho2gECj2BNUmtCNsJe4eJcIfEe39MyI8RVlDUKGsGCNZcbdJsBmBDDVuf4xzFUYFR+gVDuBVFABZ0gKXSV1RVLX1TFRgJvDwLRvDEe1UC2J4mO8TxAxCDbCyTM06dMSiMiG85Zyzllu8E3miQLlPUq8MrsMxLWL7whWYN4AEeqVjpKxJR3jCjrvEBnMEMk006dMSoLWIbyjecs5YPvBN5oE7Ep6iWVLXxMugAm8MQtG8yDx0ibpiZktd4gTQaexyEmJNs/gr0KxxKO9Mfzk0dB0Z/MIWD2gp8RUtUSsn/ADEVEXvAjUYFFdAVSxlRF7Qc3Y1IUAUe0S4nUhmREWMsMPEvqPiOXX1g7peIO6fiW3PxEOX4jXK8RVP6ZWWPEAYEM0foTsLKha8p2lFkLgijrCuoRZKYrCrNWUGuDeFYe0CkFTIwzox+RtlJmaadKoWqa3H6TQDNBgaDxQb/AMo//Km88U1fwR0BiVppUyLJXTQ1QQ4ZgUNpqyztjqLRbFcCiHk3O8VURZTlJVdIIOua9B1JpphoYbfxQX/yn+um88Udf4I6EzExo0dLJXTsUGJVMCnqzePaFro3DRBPW0wAZg9HSC4lRBKSkpKSkBpMe7JTuD0KkhTvT+CNOhqRxl9DYiI6AgUAx3hMrnvFFzgo6AjMMGbYayONSGQRDtADB7UlyhiupNSEvMZbY+Iu8PEb9HiHdHibd8Q3TNFJVafohmup2jgDLtLEJQx1SaQREBTCXZdWHhbII6eyYKAQI0aTDLYaLEFYx0QuKkUqJxGsKvO4hpfBM8fESi/pKmT4nZ/Ee38So0fEbB9IAs+InYPiJlsQF3WAZXUwuhkgEtsIRax0zSaogobyayxlF7zJbMdELipcwjL4BzMhlcQWtHxM0fEob+kHf6Stp8Ro0+JScfEamvpMgfEWPAl440wVmGMSsdImMJV4LhZRg3g2X0BVaohC31NZcHebdFwQ9cRojdBBNmcbONnGzHoxAKdYj3onw4ei4xrDdHS9HW+J/CEuk2TG0o7yxr/MQGtyg6AWMMEuZkf01ISUKO0AND3dTgnEnHAdpxQA/RlQLiJZjtLDZntKhGDfVI0GIZTMiHBlgIWz2II9CBdEHeDtIrvLWGAx0QuEbiuhCLlcRleBG/oEOFHiEhTxDtPiDYM4848KyYW4+IY4+IxA8R/9XKLgPaJoJUB1ErpEM2hhis0NYJLeDpWBsSuIaTWN6IveKQKDo1DZj10IKr4hlL4n+EEq7HiDGHiFafEO0wLZOBCnGWePiGuHiVQPE/wMh2oHtESMQ4KxfSq4CXUXsRvFSzHQuQ1lHQnLeHl0VS42aMytM3Kt1OIXJeJV1+Jy/E5ficvxMOvxDi3XtM+rVbTh8/O0Ib3Rs7fMx8dHW+JQr2xegqQy3k1jUiLN10LtlCbVjw0UckukGO0ACgr39y/0k0Bsn+MUYDKZnXrFRVZFG4D3mv3g1hZDZ11ouU4FEfdBNZaitsADo1Kiy8RuIxZ4l3+mHFnHEIFfECoE4CV6anAR4IhrjniJY54iSHiBCFM3USukhzC8gpDPZYiHJ0NoDoGphnK7y1TdsAV6NYuWqgFDcfqzxDT9MwJ8Ss1gOglOxKO3pqU7EXKRGRXxKvOTtLffEelFMySV0T8dD4ZIDW2D15CYU7o7LJ6J0Qh4bbAcftLQPiAafEC2eJxPE4nicTxOJ4gLU8Q0oExP51JmbdFfjQ+Oi6ouDtCqZYax7WixBt6DsZWa7ai5KUdI5AUG0IA0P+Fi6WztG0rt0jJRTCB62Kj4Iu3Ae87ak1h4GzrGq1RAM2JrLlEYOF9FwXEFCHg23tNWTW0uE44h0DjiAaB1Kj4DKnDfE/rHjlRTM+x6ROzwDm0NZyR0EA1RBrzU1l3TbMC9GiriFcDLtvadgjtEVODtDJXEo7dVWAwFBk7Ru/e0uJFM08ejUsdWZ2cSCQbx6rlMz7MsbojBsrZds59p0gZUo7QIoEo7Eo7Eo7Eo7Eo7Eo7Eo7Er0YfBM0bMuEafx0niTISI3Tb14ylGFtqMZIptH0BA2giFAf8ADEspiJVU7RdE1dImYgNRDfrOSo6GPtinvNl+GsUoROo4Fj2I2iSUV3jZ4KK6G0TBLqUXtDvsu0xWwdpWQPYKhJiO47Rd9+0eoTMzfSqO2dgtvMtXYdARY4itbnvLqXo0/Gxuu29oXAdoX0wdoLAHsAFJcqFbO0X+pRJCqekCMLzLODpMk36ln4mZ+8FxDToXdlH7FIrAYQAKOrj8MzZsxfJTAdJLIZXDSvWVTc1Y3GCNptEMMBtCZKr/AIcDLeJtFR2jxildI3NAagjg9Y4Jai1MugE3lrbBvALQnTJTQItEGTWMVu2Yno5KgYaL2mc3h0goEogUUeyJBNZS04dpd0A9oGrhg2X0cGzOGKw1nZBsv1MhVE+sJimXmU66BFlky29prD42hIJRCoCvZGgkxccdpjDz2ipD0bG4Q6YS4G7Hq+HpziZ/MIaet0Z8pYjiIdDodbCD5iT5I9mkq14khybQ0NgbQXQo/wCIEyLuFoKjtGJGe0vbCu8sdOtRqMbVF8jJvK7mzvBEsb6RskxGyHPeWuZVdBBqxaSLMxHDkgMBRABR7QWS7JU0tLpDGgIdi+jmviCQ+HCVD39VNUxM6Oe8vHo0IiBzAPZdoZEogAo9oOF2T+oSKyVmZjo7R6jsmbOyZL08PKcpk3YevUjgL+xEoHWdPyi2e7LeNHsqUNh5dpVT02hwhR/xJkQ2QOK07RBQL7S4kKOnWpx4aZmKfTVldKp0VAV2lYP+Yo95mE6AhrGiBYlxaakIRKO0AUe2GsmGEwt2iu7IadDUg+el5wI7Xc9KFNoJ89O8s4uYXQKBbHrkY+ulmpKdTBtACj2wRXDtKxxDXLXo7MzPCcQiUvD0llbpaLfMw8dDVjU+MFrbIcHWsXKYS90WSHstspkamsoE02/4oJJxLKPwQDGBmmWZrp1hcyz4BJnC0bwUl2dBFaYlaviVbo04B70fqMG0pRj2/OsEeVO0r/QdEujHXyjNncitelmiqJrGy7yjuHopvuixkYrQMG0EAaHt0YbpQ292l2ysxWX0NoabmNcdpfuD0Kkyu1vjtTpfHQ1SP8DCUmyBXW1zumtN0zPszdQLOt3mC+Hf/im0rucS3wYjNCmDiuZr1q+KCZBTeBpKDeHS09bIKYjG1EK9dBaLiINxN+jUhCRj3O8hU0SrQaeg2mpl1zZFa8PQgLYevBRBCWgGeg7WVBzbExy06QEC6PcGy4gZHh2gaNUKh6G0GbmZQ3JceD0KmlFrdMzGj8dBbS6VtmldnW2lRvZlqg0PZiyOyGZnL41YcvFf8UAg7xuBa7TG6F2jgkphNOsgwRNmIzeGssDah6gKscO1LfXmVXQumYb1QMKwbQUV7nlUZ3EmAdg9HFMvvbJk3D0ZR0lC7WWiDoM0NYCIiIeCNNoaB29wlomZrKKEVlNP46Jw+ZQF7kdpwehUvEItbP4Y0uhd1i0myfAjrOkI97MusYn2l1qi8xZvDwKhvL72f8UN1vFiip2jywLtENhTAesCzEpQBK8Foayj7j054rELJtZQ/PQWi4+tMajVNoGANPdfAkLlX4MOgwlh+EV/E9Ga6oYHeKaw172HrdGEGu2K94HSCWVR7oRvdGqbkNfRafzE/wAxPrHoVJxPkVP5ZNLoLA5h025PhY6zpKTezL/e8x6REM9GhI0thiWZkNYzpVCIFn/FHQSsVU7S84s7SxW0Gzqi1GpYpjSVWGsO6vD05fqCyzLKU9BUmY4u2Hi+m0NHse79hjZhoOUOg+hL/wAOfWegAjm006LzO3QWcfWbENX3TaV3Z7oUoJ7kw38oadDS+YqlbkFfEeh0kZV3Y7nmaPXtFi5mMu0+ADranxBpvvPk6GulW5hZTDJfRBFhzQDNbXBrAPbs/wCKtwGU+2joR4oW7Sz7Osaoi8oKTK80mQ9GBNUozrZQV0MPglql4QcawhoHuyLzi8+HQZ/BPC/7hr4X5VjKe7Ik7pfHQVsaHFIC1mnuxZ8S2t3hoczQ6GYOZa1bkofB6HS8pnXdi3g09ezHjg67tK8462p8TLm8zBeYaOiAIdocR4kVDCnpICmsQCAbysBaDWUZuX/xVABshq2diW3methaJlyqYTz9CO24/NS5WB3RL86HQC6HXGyCENnu1rWE3N0y+fDR0M2Rba2QUHD8uzxPhxgmMK9BXyIffRMb1Qe7+pDp13joeZpdBYOZcXJDR8HoNnKIne6Oh6G6YPhMLbHX9g3EYA7x2Xom8rLmBhCsAxAL0l2yqamReiLRMGxUaNQm8ogWiGT/AIqiC4inwpGYimZBj00siUMRC7iO13H5t2DebMyUHrOjDBzoJQuHu7lmQNmHJB620yVKaWyGj4fl2+xKeai+cmj17R4YGt7T4Y939KDwsU2n69o8XMwp2lQ4/LpKNe6O/l0ZsxPhJn02QK6wq4mtN5rzfoaGKvlhXi8EIA29kIjoV0gr+2IaX0bEIXuKYHbQ1jQDZ/xbGNx2i6Jq6R8hKZm3pkGdR2rshZl4fn4KnzIn82hp69SL5CGUe0FBx7v4wh8yht4PWdGCrlFKu5DQ/JW4os7schp690eDhCpNiVR7v6UR/Cz7c0fXtM4rFWxKFx+dSZI3RWuUNHoLLNWyVmtvX15tNfbw05v0NDC4+5LkmxAQLuZQiO0vRAdkDTpLojqZnvLGGDeCJZp/xUijvKTnDtExAF2lnfEMnSILUuPCUa9j8/GjM27sNtz0NeGzgRq2Ia+P3eUdBnPJlnMhp69SfzyU8FKBx+VTw5Y3TFehun1sBbhDXu6puIV3d4LXmaXr3RYOEw5sSgPz9SZM2Zc4wPQUX6tkr9ddqLaa83hp9Fajvq8koNfgh7WTH05dIYJAY1XRSyISqlRjJvEFdrv/AMWN0uyFgLS6QKMCFgOvT1ZZeYudsfn4GZzSTVvQ1/xQP4CfR92DLptNJi0C3oNWP4xKOwEqHY9HLzf7mh8dDdPqYz+B7wVLxKbHeZDmaPXsy6XCWLWyUK/P0JXu7xfJQ0OgqBMYbkqXXai2mvrzBS6KqWurySi1X4AKYWF7HaGBme0dDHoGPx7ODMNyGjeE2vH/ABZmhshn7nSN2Ua6hfflv4D8663S92Lwauhrx2YBC9iO/j91ZdkL3dFvsPROv8QwpqsR5shpXo77WaXx0N0PgQAr2I8nu1SxTY3Y72GnrXE0vshsrZ6Poszd3nyxDXQ0D5lsq9JTK64sqsQ6DeYKHo0JL7V5JW6rH5Bq8QzwMhadUE46VnBFIhYayumwby1Kz/ioMtGGUVW0yIC0eK6cLmq+A/CouBlbpmnOaXx0NSV5GI4iO33PdHZ6Ef5Y1hNUtmB0B+TOKbaYlqg9Pfa/3NL46G0yMBe7Ep+Hu3ahCzujq6BZlhq8JWeHow+dMgbstHmafWSj5pZq7SmcdfWVYmvbzBR0XkhqreV2tvQNG47RYYL2InGLzLHJ0UsgInZl8IWGscJUG8MmP+BFKqqWgf5QtYGGnsCVLwzEXl2jTmdLFwoSG+EfhWsJtbob6Ou0sPZFO2IPDPcqk9oqSNobolpirXobQ27qykL6OkxRVB6WsHOYD46NHIiZrklLt2HuwyNVEyt/9zM/HQorMDXklcrZ6LnyiBDuma6BvKi5lkq8EqTjrvSdo993gV0CKhL/AF2lH49AujUmT/8AiPsFxLZ6QosL6gMFZ2FXDQ3Z/wAAG50jZETmVBjToxo+S4XtQbymG/sK89oaDvHh56JHZKSZwiMrY/Cs8RM/ZhsdJYURgWKSjJaQbL9wmXQlbEyax1W7YKr0HZKSKVgsmpBoegWUM1d34R0KpgAOqQcjNPdOqUK90V/lNP46Co/MwJeSUyvQ1RtGzt3RDeFae5LkTYgADrG7iVK4PLHoEVQs4dpprb0hRLUvJoXaW2NGPIdIZjWDCAG8G4aG8oO4/XXSJkAIYFXMYL/wx8rXzH3GxuJTuDWHd3h7B18UNIe8Pnh0BLrCNfNkPG2fh2uIGv3n8mmjoi0QVWqZSVtDWK249u4GBoVO8sciy9uroiKYoVsm0tuiD01KLO5MuuUNOhrzQCAlZl0Gs5V9zq/EC43R3OUxHx0F5IVJekrHHooF7S+QK6BagsPcmXGx17Re0pl3KPmj0D8b6eELsek2ncilC07RkcHZK3Whnoi0TTSkavRN4RA0N/1xUxRHQCcwbV8MwuF7xFe3CzMro1j9ABBqVpvHYeuT7oQy2bZdyOitEYULjB3EFLsPxcOJ8xMVrzDTpNpjBx6pqxkBae3XyGoLLV7MHKW8w0dC6hOHWBlejaCZKx6alxLfnSnbmaHQdGfxDEKqsNZQwtPc/QmaNmKEwHrN46DmX6u0oDj0V69pfbjHoFU07eZoHY69ovaYq7grol1FoF5i3Dt62OXZBG726lckp6bY4dEUzLvpvFAFT9Z2h9NUDF1d4nNT2YlsDzMut/iAhtErDimOtuDWCBvHWWoAgsUzpFoF26KtYFZeZpd0dIKLj8WKPmJHpjAxcQzCyLTeGQdT2rBwovM8SNi0rO8qdAgvMtQ5IVc49XMEXhGcXxn/AA6JzqNcAggBaDWO07ntHSNFGJSKQbLn04Cu7weaho+vQx18ssFbEozj87SjXLTe8FdA6mh7zNNbHXst7SkXKOjKiV6rzNMVp60spgaKpLYgtdIld41KxfSCWhnpz3gmBx3hkv8AV3BCiOLFzEPrsRipe8ywYt2wMegK4rlEGguDfrE61S4oYvJrLx2NukKoO6XhDwjCCgfi38oyF74rLx1KAXEHVk1Y9g47+0cgKN4JeyzDGFUXvGyvRuoeFcx07BqQGKx6ksqK4bo1U1eYE6KWVFdgx2QBNWBkrR7RnkpcPDeGsWXUczR+J9hM7bs+eJpevSLT7krsNj0bSuLl7u8w10CoJou8zRu3Xs9xULvMNLouordXmaQ2OgLIjQVo7RxgChLpEshFaTjE1YAJx+qoxVTMQVzDPeYmPnmXdjFFsFHqN0glKzG3wN44AtdQGWgLhxBpNYB2j3Sxt0XAzEM3F86sdIIBs/DpAKd0RXP+59bqWEZFKZo30MsLAbO8EdPYKBa0RMjB3mb/AJNZeIi94VVYdAmZJmVz2gMa47dDHV2MXuNdJY9vSF0gdkzH3BNWPgVrv7JOSVzCjbpNZe2O5zLCM1mifeTMG7MiDB0Gid5pTZ6NpXBlk1zBR6zWOgmid5o/br2W4rF7yhei6iu65mlNjosy1kTvw6QLFUwb6evcMw8oUGWEENP1PhtE0usQGXPMbDbe8Gq3K4Y6FxFopTA7Z7wkSqdIgBR3gAe2scERe8Sm3BR0cU4gpVjBYhgdJxyfjFTK26O7yml8dQ/AeoUx+wZrG+MneGwPWdgAhZDHMXVnGstNRe8Zyw6N5B8C2xewzpAkCjoc0QA9q6QydoOksMQyEUxV2PeNMNneGWD1myBXMHQY5jf3GXFo8xjJtlE4fgl8pUA7pkug6mmbySs1XoKk8TAneWV0CKgnduSaR26+tIY17oGOgR1H8pmlNjooOstw4hlrntFYY9J6DaWRmTeLiFQ3g3Gn6lR25KfusxIHRmG5h03WyAVyuYqdlNYZLE7wbQeYI7+hQ3JwvMpAsO8q/axNs294mK3DR0j5iWJpR0mNxBDH4w+KFYbMdyNH4618EhFMRbxzNw2t4cyE7wfQP8wR0egoapENfNHoFh3lX7mUS2+YuSbi1mBR0VSYKTNxsyKbQsEwbQ06CXBCWtRTILQV6ZnSEwimXu+2srOrzLWhO8G0Hnoobk0RfzBoYO8/yBgSNvmKVTcsg5nCpKF+FVvdLZe7o9FTTt5lDrb0fxuay3/A+siwVMxNyCY2Osqyyv3uhZNugax1Oi9k0VsdIkBsgfSUSVMyrfS2gGWqbjBQWGsKAVD9Sve+KFlaUraJ0vjqJZFLjAgyuYc7rTWG3X5hJc3MHL+2f72Kl8sYMLmOnT5mavmJy88xFVZR0kCgRKImYhQ6QDCq/LpeJXt2YvkpieveMqpQkLHMzx+YA3fMJrc8wTTywbTyfjv91P8AaRH/ANo98jGI8cztP5iF/wAxaXnmBXb+EwdKxBrEa0eyUfDQ6QQSqOkCJeJztukbcYY1XTtlcEUwhC/lLga01jweeYau55g2nng2nkn+yn+yn+4ievnj7W+YkHjmOnQ5mUtPMTS88ywVTRMXlPkolC7RtKRezLxBr1iOqmn95oesejX+01leYaIehcAXmW9N4ada3eJnLZlTxt0CG4yM2QOCOnVS47ReSr7RymLzBHTpYmBJFQ2woaxRLs/Ujo7yiYTltKLfTqpcYNlYhALHMMBi5levsmH/ACQZPsiYc3MEF55jFV+AUdLaIB3ZmYyOkwmUPQ6eMsd4/lJpewZw6y+ilXZjmVI80GD5IDfsjJ/6hh/6hLX2hLZ5hkPJFQ5uZkDzLFt+Mp0zIvMeSUbIM6QwlUV0zFME1uO0UlMzJz1LYoHMq1YgATHMIA80qLPMKX9paf8AqUqvtD2vtLqzzLs+6Eo5uY+l5lmqwuSiakfyE072gpcTaV29peYFeuRVU03uTQ+3o1DtNeXmCh6DqCAl5gNB2hp1rlxM7d4c/M26OEiurcn03TFo7kWYWl0jfQIUHV0to2J1jMQE3lYi0byhG5+oigXZMpSl0l/3iDrGWA92B7sz3Yq9Wc34CsCumWCxbcWbSpggak2VehUnKZC3ZZsNPYpcrOSKvVidiyhD8zfPmHd+YA2/MDbUZFWc34AwK6axbMv2U7TaOHJAYFECiuoGpxFV/wCCGgmd4GjqJEx5Sm9WaGpo78wRr8wTX5l9b8y7tQK6s5PwhIFfjX/EmnNiCjxHSAS+8BOuYa9YjpjSt5Jpvb0a+2msrzDV9BVFMC8x2V2hp1rRxK93eajnouor+U0EZJ9Y6jwBahB6bdIhpVMd36RsJaukYtKAhli0a0fqKDhg5KqizQtGAevUrKysrAQK6hm1UPBy2munjUglgr02CKzvdHn9pUrKyv5CKQMAQK6iPKoVBs7RlZcOSCJKDaEKOqmKiwGHaDKBfaUHVLvTqpKxMT+QkErAQx6Nb4mL4TT2yGgR0lwXUst3mGvWIqpFsHaAA7eg3LWIdZvMFX0HUU2rzDRWxDTrZm3TNF5ZU3PRxcDlIbo7TT+OoLR3lBa22jHALaGYcwyX0jUi4BGI2JjVhETZ+okheINGOdoQ31l379GeiINZ4jiUvclFlA2gUV6NoWZui0ndHZ9xUqV1ybVQhcvEeYlmpKFKBtNlHXKC7Izc67SyIDAxXPsKlSpXQ1viYnjNBbIapNT4lEveXbmGj1qiUyrzNkr0pSdo1xvMNdB05VYuFbHX+REz5umS9F05QYtlbE0PjqioWMH7gt1GYgQGO/Sq5YWTeUd5bOh3giWP6gAplA0naO2u7QbUyverS2EiZlsiJtE6TBtDgVXpdIpb3R3OUOP6RrE1AV7RVzY1ItiqNoSPYq6FqPXUXtEAJTCfdHl8RvhYTd6fi4diUkO8r26ColA5mnPTTm2n8/6BFSlV4S1Vsde93umZN8DF9F0oaPCW+tiaHVqZalI4FcrdQJdmHSAmYuklMMUbjVgUhXpWhZXJc22fpQInEC8CQCkb3hG/eHBctGyy6wntD1DjaDwKPU6Qh3swWQKHRD3tYuIZZle1WLiWmpEIBA2h8K9kCDvMMlHaIUArpGppUwhK9xlZKk7Z8cH41BtNRbzWm/rVTV6vMVVVp6AU9oJx2Z9mbesjpwh8IIq2dZagBHdEfk9EPwmBwlzrZDTrUoslESuyMJC3aIRtK6RbJYqLNIkOqBlhtL9Dbdo6yauA72v0u9jh2jRgvYjU4mYJ7kIqRXdcR5pPaAssDaGAiEMFerU+Iw72ZZ4NHoBFaYBsle5CKk7+xmSLLukxqTCcDtK4e02UQUFR2iaQtdIIBKZgSJXt8wQuyk+Pj8am2mvN4aXQdQYavMNgVg9Fw4jgvvDXy9F0CM42Q0XDrWDMpbMNrz6TmE0VsgYWz2ANWVDa61sSnyZh6OnWQaS54LN5khUN4Qs0/KWJL+EOo/SwAGyAdcO0KiAe07mHuICGYtc1jKCTaUNWBqQGEqBRR69X4hlvvNwMwV0J4y7Ji9hUFaqaz2xKgGNUaxCgXtHLIVqQaoQ7Q2hXtgKFkHTVO0GnP4hYhTC0TI9rtFYczFO5PhY/GtNpqC8w0PrI6mv8JdK2PRfOJQ77z+ddBUMpdWZzwJ9F1rBLrWzBbQdBtLElKVsgouPsSMXHaIBTPaNUPTSxghUBuZMuDWCJuz0V+mmwbIN92O0sgAe0W8aYiySvZhHS5l4gtjcZT8QHOw3JQxKgBp0PqSnXuy9XvDXrLGEd4WDbO0cvXBGGh8IqZVNStcrGvs6xKawTUQGlviNt+JWtg3ICBK4gCg9wTQuHoGztGV/4IavjiXGTKSvZBEyfxM+OUoXH41ZtNQbw0PrPwFD4SzVsei13FVu4c3PQ1ZROZ8RJ9I61j4mUu8uWDoHRn8+j0+5DR8PYugCMzoa6EaQZmR6ebWstTB3RchaDWEY3S/1EwjZGfK8QWuhvSNEsYi64UnXJRFRAGiBAsxvJniLf8QmDHEFADpOm4ZSh3ZQXmGPWqJpW8wLuwiIK12m53xDa6u9JWL44jGlGOZRlHUIBEEEaIKhSstzxLU88R9L+IcIxxCAB7tBSQaS2dput8QlvHERt/wAJlAxjmUV1QlEwMTSSUgsy9DRtMCtB+X6mrE15eYqH1gEWg7abIfEPRY7jNV5Ys+gAqX4QxNsT6nW+PpmLdivmQw6ADMn80h0vaGg9krgcR28HaLhVmZrpIVEzGJcgAm8o1WjeKwT9RYCGD85O0XnXSBwscQcFQ7JKJmY7zHQxMRrZhDUYoUAariWQs8RFH1mcnHEAglcTRDpm7iaw3js6DommbzNO7fgmkQ2DJ2lxNfEPbxxCgWOIiLTXhipmIdZ8piYmJiYnymO8q0h9BmiKAz6pSCs8Rw6+IqmniGSccSuhxxAGh75iAwFBk7TVG8QKvHEqgscRJCprYxHWFbz5TExMTExPlMd4xdTTBgdFBN/iZ4s8Rmn1jSjHEFAFH5JVXEt96w2/x0AAAAKGyeIgEybTA+Hob4WWMtoRu/ic3xORORORORORObL3PxLrdG0ZbsJp/HWSo7MEyq0U2/iFWvxORORORORORORObLzPxBdf8IqKYIaPj2QtDuSjZw7QKah7R/8ANQ/+dP8AXT/XT/XT/XT/AF0/10/10/10f/jRqPqgchTHb1BHF3P1JDqEoxzxMTc8T+tiKFMcS40HEtZ8ETqpvRgt/QHYmwGF0UFp4pUvqiIJniJZq8Syo8Q3DjiDwMcTSAdXW201dvDS6DqO88zT+x+UGEIlhJTPEUo54lSDxAbOOIuMDiFX+iWM+KK/8IehERGw8UZ/xQAOTiUVmeJTL18QaIeJprjiBymOIBQfEAaB+goOpFYnxCameJcq54i6PpALOOI4MDiBUPFMlPi/CD/4n5RH/wCBHZ8UrX1SpHJxEy3PEIG7xA1XiC4ccQ4UxxAmB4gBp+byFxDpzxOB4nA8TgeJwPE4HicDxOB4nA8Ri6eIYQriGgdj0CiXZUpBy9pwfE4PicHxOD4nB8Tg+JwfE4PiMCniAySntBCVRDBXWsrciHDb2jddPE4PicHxOD4nB8Tg+JwfE4PicHxFIp4gInD2hupRDSdvZg2XZHcW3tFDTxDtPE4vicXxOL4nF8Ti+JxfE4vicXxHtPE4HiUOniFqNPacafqikIhwnPESSc8Q4fBE6GOIt7fEcfpS9rxRB/ri/wDzjtfHEy/FKG34lE/piZRniUiHiVSYuISUMcSpB8QBsdfWm0/n0FP1kVToe8zRe3pqKKRCETniZsM8R1ObiBLTxFGh4l5h4lpQ8TTf1hR/4ieR4msDxCOjxKh+iVNHHEraGOIbgwBo/RqO0MbEERPiW9jPEsl8UZWniXaDxEWh4n/4kD/4Rhn6z/4SLZHiYSjxKWvFKWjjiHlHHEpgfEA2eoHUucKcacacacacacacacacaAaFelBMlzheJwpwpwpwpwpwpwpwpwoBoIAewW2ThThThThThThThThThThQHZADQ9qprHC8TjeJxvE43icbxON4nG8TjeJxvE43icPxOH4nH8R7KB+rKO0YCJZ2c8S0seJfX4pe/wBUe/4ID/4Q/wD4TT/FNL8UAwPEqqPiEUCAG3stUbTUe/QTWOpHf5h4O3Ro7ITSJsmL2zYPiZNPiFWnxGNPibRmwIBsgHb9MqIdia4JY2Jd2fE4viKOnxNs+IXbNlwDAlOyUdv2g/iVwSuCVwe41hWJbbvMFL1msVCZ33IB62P+g6Z1YivW8wUesjCEV03JgHB/0Hxxn8j6CogBS8wcQyTT+P8AoMbnYmJMa/LH14uVrmXVXaaHx/0Gvd7TDXBXzR9apQ9WzLZWxND/AKDWm9prSCugKnKHwgMrYhp/0Gu97ShXeZR6wmvKLwlvrZDT/oNZbqKVd5hpfWTVlC4QiVs/6D3O4qV7wV0BYRxE2Q0HH/oPWBYuw/iQA/wT/UT/AFE/1E/1E/1E/wBREj/BLE8EfKZNoKHh/wBBzBIlTUKPaf6if6if6if6if6if6if6iNX+CWr6IbQricGFf8A8kn/2Q==;" vertex="1" parent="2">
                    <mxGeometry x="247" y="17" width="108.17" height="59" as="geometry"/>
                </mxCell>
                <mxCell id="8" value="" style="shape=image;verticalLabelPosition=bottom;labelBackgroundColor=#ffffff;verticalAlign=top;aspect=fixed;imageAspect=0;image=data:image/svg+xml,PHN2ZyB4bWxucz0iaHR0cDovL3d3dy53My5vcmcvMjAwMC9zdmciIHhtbG5zOnhsaW5rPSJodHRwOi8vd3d3LnczLm9yZy8xOTk5L3hsaW5rIiB4bWxuczpzZXJpZj0iaHR0cDovL3d3dy5zZXJpZi5jb20vIiB3aWR0aD0iMTAwJSIgaGVpZ2h0PSIxMDAlIiB2aWV3Qm94PSIwIDAgMjY2IDY5IiB2ZXJzaW9uPSIxLjEiIHhtbDpzcGFjZT0icHJlc2VydmUiIHN0eWxlPSJmaWxsLXJ1bGU6ZXZlbm9kZDtjbGlwLXJ1bGU6ZXZlbm9kZDtzdHJva2UtbGluZWpvaW46cm91bmQ7c3Ryb2tlLW1pdGVybGltaXQ6MjsiPgogICAgPHBhdGggZD0iTTczLjc5LDE1LjIzQzY3LjMyLDE1LjIzIDYxLjM2LDE4Ljg3IDU1LjYsMjUuMjNDNDkuOTQsMTguNzcgNDMuODgsMTUuMjMgMzcuMTEsMTUuMjNDMjUuOSwxNS4yMyAxNy43MiwyMy4yMyAxNy43MiwzNEMxNy43Miw0NC43NyAyNS45LDUyLjY3IDM3LjExLDUyLjY3QzQ0LDUyLjY3IDQ5LjM0LDQ5LjQ0IDU1LjMsNDNDNjEuMDYsNDkuNDYgNjYuOTIsNTIuNjkgNzMuNzksNTIuNjlDODUsNTIuNjcgOTMuMTgsNDQuOCA5My4xOCwzNEM5My4xOCwyMy4yIDg1LDE1LjIzIDczLjc5LDE1LjIzWk0zNy4xOSw0MS4zN0MzMi40NCw0MS4zNyAyOS42MSwzOC4yNCAyOS42MSwzNC4xQzI5LjYxLDI5Ljk2IDMyLjQ0LDI2Ljc0IDM3LjE5LDI2Ljc0QzQxLjE5LDI2Ljc0IDQ0LjQ2LDI5Ljk2IDQ4LDM0LjNDNDQuNjYsMzguMzQgNDEuMTMsNDEuMzcgMzcuMTksNDEuMzdaTTczLjQ1LDQxLjM3QzY5LjUxLDQxLjM3IDY2LjE4LDM4LjI0IDYyLjY0LDM0LjFDNjYuMjgsMjkuNzYgNjkuNDEsMjYuNzQgNzMuNDUsMjYuNzRDNzguMiwyNi43NCA4MSwzMCA4MSwzNC4xQzgxLDM4LjIgNzguMiw0MS4zNyA3My40NSw0MS4zN1oiIHN0eWxlPSJmaWxsOnJnYig3Miw3Miw3Mik7ZmlsbC1ydWxlOm5vbnplcm87Ii8+CiAgICA8cGF0aCBkPSJNNjMuNzQsNTBMNzEuMjgsNDFDNjguMjgsNDAuMSA2NS41MSwzNy40IDYyLjY0LDM0LjA1TDU1LjMsNDNDNTcuNzAzLDQ1Ljc4OCA2MC41NTYsNDguMTU0IDYzLjc0LDUwWiIgc3R5bGU9ImZpbGw6cmdiKDMyLDE2NywyMDEpO2ZpbGwtcnVsZTpub256ZXJvOyIvPgogICAgPGcgaWQ9Ik1haW4iPgogICAgICAgIDxnIGlkPSJTdXBlcnNldCI+CiAgICAgICAgICAgIDxnIGlkPSJGdWxsLUxvY2t1cC1XaXRoLVRleHQiPgogICAgICAgICAgICAgICAgPGcgaWQ9Ikdyb3VwLTciPgogICAgICAgICAgICAgICAgICAgIDxnIGlkPSJHcm91cC0xNyI+CiAgICAgICAgICAgICAgICAgICAgICAgIDxnIGlkPSJTdXBlcnNldC1Db3B5Ij4KICAgICAgICAgICAgICAgICAgICAgICAgICAgIDxnPgogICAgICAgICAgICAgICAgICAgICAgICAgICAgICAgIDxwYXRoIGQ9Ik0xMTYuNzIsNDAuMzlDMTE2Ljc1MSwzOS40NzQgMTE2LjM2LDM4LjU5MiAxMTUuNjYsMzhDMTE0LjUzOSwzNy4xOTMgMTEzLjI3MiwzNi42MDkgMTExLjkzLDM2LjI4QzEwOS40MjEsMzUuNjYgMTA3LjA0OCwzNC41ODIgMTA0LjkzLDMzLjFDMTAzLjM3LDMxLjkyMiAxMDIuNDgxLDMwLjA1MyAxMDIuNTUsMjguMUMxMDIuNTI4LDI2LjAxNSAxMDMuNTU1LDI0LjA1MiAxMDUuMjgsMjIuODhDMTA3LjMyNywyMS40NTggMTA5Ljc5LDIwLjc1NCAxMTIuMjgsMjAuODhDMTE0LjgxMiwyMC43NjcgMTE3LjMwMSwyMS41NzcgMTE5LjI4LDIzLjE2QzEyMC45OTQsMjQuNTA5IDEyMS45NjEsMjYuNjAxIDEyMS44OCwyOC43OEwxMjEuODgsMjguODhMMTE2LjgyLDI4Ljg4QzExNi44NjEsMjcuNzc4IDExNi40MTksMjYuNzEgMTE1LjYxLDI1Ljk2QzExNC42NjcsMjUuMTcxIDExMy40NTcsMjQuNzczIDExMi4yMywyNC44NUMxMTEuMDc3LDI0Ljc3OSAxMDkuOTM0LDI1LjEwNCAxMDguOTksMjUuNzdDMTA4LjI2MywyNi4zNDQgMTA3Ljg0MiwyNy4yMjQgMTA3Ljg1LDI4LjE1QzEwNy44NjcsMjguOTkgMTA4LjI5OCwyOS43NjkgMTA5LDMwLjIzQzExMC4zMTMsMzEuMDA4IDExMS43MjYsMzEuNjAzIDExMy4yLDMyQzExNS41ODIsMzIuNTUzIDExNy44MSwzMy42MzMgMTE5LjcyLDM1LjE2QzEyMS4xOTcsMzYuNDYyIDEyMi4wMTMsMzguMzYyIDEyMS45NCw0MC4zM0MxMjIuMDA4LDQyLjQxOCAxMjEuMDEzLDQ0LjQwNCAxMTkuMyw0NS42QzExNy4yMzgsNDYuOTg1IDExNC43OCw0Ny42NjIgMTEyLjMsNDcuNTNDMTA5LjY2Myw0Ny41ODkgMTA3LjA3Miw0Ni44MjMgMTA0Ljg5LDQ1LjM0QzEwMi44MzgsNDMuOTk2IDEwMS42Niw0MS42NDggMTAxLjgxLDM5LjJMMTAxLjgxLDM5LjA5TDEwNywzOS4wOUMxMDYuODg5LDQwLjM4OSAxMDcuNDIsNDEuNjY0IDEwOC40Miw0Mi41QzEwOS41OTcsNDMuMjkxIDExMS4wMDQsNDMuNjcxIDExMi40Miw0My41OEMxMTMuNTcxLDQzLjY1OCAxMTQuNzE2LDQzLjM0OCAxMTUuNjcsNDIuN0MxMTYuMzcxLDQyLjE0NCAxMTYuNzYyLDQxLjI4MyAxMTYuNzIsNDAuMzlaIiBzdHlsZT0iZmlsbDpyZ2IoNzIsNzIsNzIpO2ZpbGwtcnVsZTpub256ZXJvOyIvPgogICAgICAgICAgICAgICAgICAgICAgICAgICAgICAgIDxwYXRoIGQ9Ik0xMzcsNDQuNEMxMzYuNDUzLDQ1LjM1OSAxMzUuNjcyLDQ2LjE2NCAxMzQuNzMsNDYuNzRDMTMyLjExNiw0OC4xODggMTI4LjgzNSw0Ny43MiAxMjYuNzMsNDUuNkMxMjUuNTgzLDQ0LjI2NyAxMjUuMDEsNDIuMjQgMTI1LjAxLDM5LjUyTDEyNS4wMSwyNy44NUwxMzAuMjEsMjcuODVMMTMwLjIxLDM5LjU4QzEzMC4xMzEsNDAuNjI5IDEzMC4zNzksNDEuNjc4IDEzMC45Miw0Mi41OEMxMzEuNDM0LDQzLjIwOCAxMzIuMjIsNDMuNTUxIDEzMy4wMyw0My41QzEzMy43NjcsNDMuNTE2IDEzNC40OTgsNDMuMzggMTM1LjE4LDQzLjFDMTM1Ljc2NCw0Mi44MzYgMTM2LjI2OCw0Mi40MjIgMTM2LjY0LDQxLjlMMTM2LjY0LDI3Ljg1TDE0MS44NiwyNy44NUwxNDEuODYsNDcuMThMMTM3LjQxLDQ3LjE4TDEzNyw0NC40WiIgc3R5bGU9ImZpbGw6cmdiKDcyLDcyLDcyKTtmaWxsLXJ1bGU6bm9uemVybzsiLz4KICAgICAgICAgICAgICAgICAgICAgICAgICAgICAgICA8cGF0aCBkPSJNMTYyLjg3LDM4LjA1QzE2Mi45OSw0MC41MDggMTYyLjI4Niw0Mi45MzcgMTYwLjg3LDQ0Ljk1QzE1OS41NjksNDYuNjggMTU3LjQ5Miw0Ny42NTggMTU1LjMzLDQ3LjU2QzE1NC40LDQ3LjU3NSAxNTMuNDc4LDQ3LjM4NCAxNTIuNjMsNDdDMTUxLjg0Myw0Ni42MSAxNTEuMTU4LDQ2LjA0MiAxNTAuNjMsNDUuMzRMMTUwLjYzLDU0LjYyTDE0NS40Myw1NC42MkwxNDUuNDMsMjcuODVMMTUwLjEzLDI3Ljg1TDE1MC40NCwzMC4xM0MxNTAuOTY4LDI5LjMzMSAxNTEuNjczLDI4LjY2NCAxNTIuNSwyOC4xOEMxNTMuMzYzLDI3LjcwNyAxNTQuMzM2LDI3LjQ2OSAxNTUuMzIsMjcuNDlDMTU3LjUzNSwyNy40MDMgMTU5LjY0NCwyOC40NjcgMTYwLjg5LDMwLjNDMTYyLjMxMywzMi40OSAxNjMuMDEzLDM1LjA3MiAxNjIuODksMzcuNjhMMTYyLjg3LDM4LjA1Wk0xNTcuNjUsMzcuNjVDMTU3LjcxLDM2LjExOCAxNTcuMzk3LDM0LjU5NSAxNTYuNzQsMzMuMjFDMTU2LjIyOCwzMi4xNDQgMTU1LjEzMiwzMS40NzYgMTUzLjk1LDMxLjUxQzE1My4yNTMsMzEuNDkgMTUyLjU2MiwzMS42NTYgMTUxLjk1LDMxLjk5QzE1MS4zOTMsMzIuMzIyIDE1MC45MzcsMzIuNzk5IDE1MC42MywzMy4zN0wxNTAuNjMsNDEuODZDMTUwLjk0Miw0Mi4zOTQgMTUxLjQsNDIuODI4IDE1MS45NSw0My4xMUMxNTIuNTczLDQzLjQxMSAxNTMuMjU5LDQzLjU1OCAxNTMuOTUsNDMuNTRDMTU1LjA4Miw0My42MSAxNTYuMTYxLDQzLjAzMiAxNTYuNzMsNDIuMDVDMTU3LjM3Niw0MC44MTkgMTU3LjY4NCwzOS40MzkgMTU3LjYyLDM4LjA1TDE1Ny42NSwzNy42NVoiIHN0eWxlPSJmaWxsOnJnYig3Miw3Miw3Mik7ZmlsbC1ydWxlOm5vbnplcm87Ii8+CiAgICAgICAgICAgICAgICAgICAgICAgICAgICAgICAgPHBhdGggZD0iTTE3NC4yMSw0Ny41NkMxNzEuNjk5LDQ3LjY3NCAxNjkuMjU4LDQ2LjY5NiAxNjcuNTIsNDQuODhDMTY1LjgyOCw0My4wMjYgMTY0LjkzLDQwLjU3OSAxNjUuMDIsMzguMDdMMTY1LjAyLDM3LjM2QzE2NC45MTgsMzQuNzg0IDE2NS43NjEsMzIuMjU4IDE2Ny4zOSwzMC4yNkMxNzAuNjk2LDI2Ljc1NyAxNzYuMjksMjYuNTcyIDE3OS44MiwyOS44NUMxODEuMzM4LDMxLjYxNyAxODIuMTE5LDMzLjkwMyAxODIsMzYuMjNMMTgyLDM5LjA3TDE3MC40MywzOS4wN0wxNzAuNDMsMzkuMThDMTcwLjQ4LDQwLjM0IDE3MC45MzMsNDEuNDQ3IDE3MS43MSw0Mi4zMUMxNzIuNTEsNDMuMTQ2IDE3My42MzQsNDMuNTk1IDE3NC43OSw0My41NEMxNzUuNzYyLDQzLjU2MiAxNzYuNzMyLDQzLjQ0NCAxNzcuNjcsNDMuMTlDMTc4LjUzOSw0Mi45MSAxNzkuMzc3LDQyLjU0MiAxODAuMTcsNDIuMDlMMTgxLjU4LDQ1LjMyQzE4MC42NTYsNDYuMDM3IDE3OS42MDksNDYuNTc5IDE3OC40OSw0Ni45MkMxNzcuMTA4LDQ3LjM2NiAxNzUuNjYyLDQ3LjU4MiAxNzQuMjEsNDcuNTZaTTE3My43NCwzMS41NkMxNzIuODQxLDMxLjUzIDE3MS45ODMsMzEuOTQ2IDE3MS40NSwzMi42N0MxNzAuODU5LDMzLjUzMSAxNzAuNTEzLDM0LjUzNyAxNzAuNDUsMzUuNThMMTcwLjUsMzUuNjdMMTc2LjksMzUuNjdMMTc2LjksMzUuMjFDMTc2Ljk0OSwzNC4yNjEgMTc2LjY3NCwzMy4zMjIgMTc2LjEyLDMyLjU1QzE3NS41NDYsMzEuODM1IDE3NC42NTUsMzEuNDQ2IDE3My43NCwzMS41MUwxNzMuNzQsMzEuNTZaIiBzdHlsZT0iZmlsbDpyZ2IoNzIsNzIsNzIpO2ZpbGwtcnVsZTpub256ZXJvOyIvPgogICAgICAgICAgICAgICAgICAgICAgICAgICAgICAgIDxwYXRoIGQ9Ik0xOTUuMywzMi4zM0wxOTMuMzgsMzIuMzNDMTkyLjcxMSwzMi4zMDMgMTkyLjA0NywzMi40NyAxOTEuNDcsMzIuODFDMTkwLjk2NCwzMy4xNDEgMTkwLjU2NywzMy42MTQgMTkwLjMzLDM0LjE3TDE5MC4zMyw0Ny4xOEwxODUuMTMsNDcuMThMMTg1LjEzLDI3Ljg1TDE5MCwyNy44NUwxOTAuMjMsMzAuNzFDMTkwLjYxNiwyOS43ODcgMTkxLjIyNCwyOC45NzIgMTkyLDI4LjM0QzE5Mi43MSwyNy43NzYgMTkzLjU5NCwyNy40NzYgMTk0LjUsMjcuNDlDMTk0Ljc0MSwyNy40ODggMTk0Ljk4MiwyNy41MDggMTk1LjIyLDI3LjU1TDE5NS44OSwyNy43TDE5NS4zLDMyLjMzWiIgc3R5bGU9ImZpbGw6cmdiKDcyLDcyLDcyKTtmaWxsLXJ1bGU6bm9uemVybzsiLz4KICAgICAgICAgICAgICAgICAgICAgICAgICAgICAgICA8cGF0aCBkPSJNMjA4LjMyLDQxLjg2QzIwOC4zMDgsNDEuMjU3IDIwNy45OTYsNDAuNjk4IDIwNy40OSw0MC4zN0MyMDYuNTQ0LDM5LjgwOSAyMDUuNDk4LDM5LjQzNSAyMDQuNDEsMzkuMjdDMjAyLjU1MywzOC45NzkgMjAwLjc4NSwzOC4yNzEgMTk5LjI0LDM3LjJDMTk4LjA4NywzNi4zMiAxOTcuNDMzLDM0LjkzIDE5Ny40OSwzMy40OEMxOTcuNDg3LDMxLjgxNCAxOTguMjY1LDMwLjI0IDE5OS41OSwyOS4yM0MyMDEuMTk4LDI4LjAwMyAyMDMuMTksMjcuMzg2IDIwNS4yMSwyNy40OUMyMDcuMzEyLDI3LjM4IDIwOS4zOTEsMjcuOTkxIDIxMS4xLDI5LjIyQzIxMi40ODksMzAuMjM0IDIxMy4yNzksMzEuODgyIDIxMy4yLDMzLjZMMjEzLjIsMzMuNzFMMjA4LjIsMzMuNzFDMjA4LjIyNiwzMy4wMDIgMjA3Ljk1OCwzMi4zMTQgMjA3LjQ2LDMxLjgxQzIwNi44NTksMzEuMjg3IDIwNi4wNzQsMzEuMDI0IDIwNS4yOCwzMS4wOEMyMDQuNTYxLDMxLjA0IDIwMy44NSwzMS4yNiAyMDMuMjgsMzEuN0MyMDIuODE2LDMyLjA3NSAyMDIuNTUsMzIuNjQ0IDIwMi41NiwzMy4yNEMyMDIuNTUxLDMzLjgyNiAyMDIuODM3LDM0LjM3OSAyMDMuMzIsMzQuNzFDMjA0LjI3MSwzNS4yNDMgMjA1LjMxOCwzNS41ODIgMjA2LjQsMzUuNzFDMjA4LjMwOCwzNS45OTEgMjEwLjEyNiwzNi43MSAyMTEuNzEsMzcuODFDMjEyLjg2MiwzOC43MjkgMjEzLjUwNiw0MC4xNDggMjEzLjQ0LDQxLjYyQzIxMy40NTgsNDMuMzI1IDIxMi42Miw0NC45MyAyMTEuMjEsNDUuODlDMjA5LjQ3Myw0Ny4wNjIgMjA3LjQwMyw0Ny42NDEgMjA1LjMxLDQ3LjU0QzIwMy4xLDQ3LjY1MiAyMDAuOTI1LDQ2LjkzOSAxOTkuMjEsNDUuNTRDMTk3LjgxNyw0NC41MDggMTk2Ljk5Niw0Mi44NzMgMTk3LDQxLjE0TDE5Nyw0MS4wNEwyMDEuNzcsNDEuMDRDMjAxLjcyLDQxLjkwNyAyMDIuMDkzLDQyLjc0NiAyMDIuNzcsNDMuMjlDMjAzLjUxNSw0My43ODQgMjA0LjM5Nyw0NC4wMjkgMjA1LjI5LDQzLjk5QzIwNi4wNjcsNDQuMDM5IDIwNi44MzgsNDMuODM1IDIwNy40OSw0My40MUMyMDguMDEyLDQzLjA2OSAyMDguMzI2LDQyLjQ4NCAyMDguMzIsNDEuODZaIiBzdHlsZT0iZmlsbDpyZ2IoNzIsNzIsNzIpO2ZpbGwtcnVsZTpub256ZXJvOyIvPgogICAgICAgICAgICAgICAgICAgICAgICAgICAgICAgIDxwYXRoIGQ9Ik0yMjQuODYsNDcuNTZDMjIyLjM1Miw0Ny42NzQgMjE5LjkxNCw0Ni42OTYgMjE4LjE4LDQ0Ljg4QzIxNi40ODgsNDMuMDI2IDIxNS41OSw0MC41NzkgMjE1LjY4LDM4LjA3TDIxNS42OCwzNy4zNkMyMTUuNTc5LDM0Ljc4NiAyMTYuNDE5LDMyLjI2MSAyMTguMDQsMzAuMjZDMjIxLjM0NiwyNi43NTcgMjI2Ljk0LDI2LjU3MiAyMzAuNDcsMjkuODVDMjMxLjk5MiwzMS42MTUgMjMyLjc3LDMzLjkwMyAyMzIuNjQsMzYuMjNMMjMyLjY0LDM5LjA3TDIyMS4wOSwzOS4wN0wyMjEuMDksMzkuMThDMjIxLjEzNyw0MC4zMzkgMjIxLjU4Nyw0MS40NDYgMjIyLjM2LDQyLjMxQzIyMy4xNjIsNDMuMTQ5IDIyNC4yOTEsNDMuNTk4IDIyNS40NSw0My41NEMyMjYuNDE5LDQzLjU2MiAyMjcuMzg1LDQzLjQ0NCAyMjguMzIsNDMuMTlDMjI5LjE5Myw0Mi45MTIgMjMwLjAzNCw0Mi41NDQgMjMwLjgzLDQyLjA5TDIzMi4yNCw0NS4zMkMyMzEuMzE1LDQ2LjAzNSAyMzAuMjY4LDQ2LjU3NyAyMjkuMTUsNDYuOTJDMjI3Ljc2NSw0Ny4zNjYgMjI2LjMxNSw0Ny41ODIgMjI0Ljg2LDQ3LjU2Wk0yMjQuNCwzMS41NkMyMjMuNSwzMS41MjYgMjIyLjY0MSwzMS45NDMgMjIyLjExLDMyLjY3QzIyMS41MTksMzMuNTMyIDIyMS4xNzQsMzQuNTM3IDIyMS4xMSwzNS41OEwyMjEuMTcsMzUuNjdMMjI3LjU3LDM1LjY3TDIyNy41NywzNS4yMUMyMjcuNjE5LDM0LjI2MSAyMjcuMzQ0LDMzLjMyMiAyMjYuNzksMzIuNTVDMjI2LjIxNCwzMS44MzIgMjI1LjMxOCwzMS40NDIgMjI0LjQsMzEuNTFMMjI0LjQsMzEuNTZaIiBzdHlsZT0iZmlsbDpyZ2IoNzIsNzIsNzIpO2ZpbGwtcnVsZTpub256ZXJvOyIvPgogICAgICAgICAgICAgICAgICAgICAgICAgICAgICAgIDxwYXRoIGQ9Ik0yNDIuMzUsMjMuMTFMMjQyLjM1LDI3Ljg1TDI0NS42MSwyNy44NUwyNDUuNjEsMzEuNTFMMjQyLjM1LDMxLjUxTDI0Mi4zNSw0MS4zNkMyNDIuMjk2LDQxLjkzNyAyNDIuNDY1LDQyLjUxMyAyNDIuODIsNDIuOTdDMjQzLjE1LDQzLjI5OSAyNDMuNjA0LDQzLjQ3NCAyNDQuMDcsNDMuNDVDMjQ0LjMwNCw0My40NTEgMjQ0LjUzOCw0My40MzUgMjQ0Ljc3LDQzLjRDMjQ1LjAwMyw0My4zNjMgMjQ1LjIzMyw0My4zMTMgMjQ1LjQ2LDQzLjI1TDI0NS45MSw0Ny4wMkMyNDUuNDA4LDQ3LjE5NSAyNDQuODkzLDQ3LjMzMiAyNDQuMzcsNDcuNDNDMjQzLjgzNCw0Ny41MTYgMjQzLjI5Myw0Ny41NiAyNDIuNzUsNDcuNTZDMjQxLjIxOSw0Ny42NjIgMjM5LjcxMiw0Ny4xMjYgMjM4LjU5LDQ2LjA4QzIzNy41MDgsNDQuNzY1IDIzNi45ODQsNDMuMDc3IDIzNy4xMyw0MS4zOEwyMzcuMTMsMzEuNTFMMjM0LjMxLDMxLjUxTDIzNC4zMSwyNy44NUwyMzcuMTMsMjcuODVMMjM3LjEzLDIzLjExTDI0Mi4zNSwyMy4xMVoiIHN0eWxlPSJmaWxsOnJnYig3Miw3Miw3Mik7ZmlsbC1ydWxlOm5vbnplcm87Ii8+CiAgICAgICAgICAgICAgICAgICAgICAgICAgICA8L2c+CiAgICAgICAgICAgICAgICAgICAgICAgIDwvZz4KICAgICAgICAgICAgICAgICAgICA8L2c+CiAgICAgICAgICAgICAgICA8L2c+CiAgICAgICAgICAgIDwvZz4KICAgICAgICA8L2c+CiAgICA8L2c+CiAgICA8cGF0aCBkPSJNNTUuNiwyNS4yMkM1My4yMTMsMjIuMzkyIDUwLjM3OCwxOS45NzMgNDcuMjEsMTguMDZMMzkuNjYsMjcuMTZDNDIuNTMsMjguMTYgNDUuMDcsMzAuNzQgNDcuNzcsMzQuMDNMNDguMDcsMzQuMjRMNTUuNiwyNS4yMloiIHN0eWxlPSJmaWxsOnJnYigzMiwxNjcsMjAxKTtmaWxsLXJ1bGU6bm9uemVybzsiLz4KPC9zdmc+;" vertex="1" parent="1">
                    <mxGeometry x="578" y="216.5" width="184" height="47.73" as="geometry"/>
                </mxCell>
                <mxCell id="10" value="" style="sketch=0;pointerEvents=1;shadow=0;dashed=0;html=1;strokeColor=none;fillColor=#434445;aspect=fixed;labelPosition=center;verticalLabelPosition=bottom;verticalAlign=top;align=center;outlineConnect=0;shape=mxgraph.vvd.nsx_dashboard;fontColor=#000000;" vertex="1" parent="1">
                    <mxGeometry x="654" y="279.64" width="52" height="48.36" as="geometry"/>
                </mxCell>
                <mxCell id="11" value="GitHub Actions&#10;Workflow" style="shape=image;verticalLabelPosition=bottom;labelBackgroundColor=#ffffff;verticalAlign=top;aspect=fixed;imageAspect=0;image=data:image/png,iVBORw0KGgoAAAANSUhEUgAABDgAAAQ4CAMAAADbzpy9AAAAElBMVEUNJjZHcEwMJTUMJTUMJTUMJTV7kidJAAAABnRSTlP/AM4rXpdiu+pUAABMbklEQVR4nO2diaKjurIlbSj//y/XBjyPIFamMqWIOn1fd993XLYQwVJq4HCEvhgn/s2cFobTcOYwHKZ/Hpn+f4cb0//68u/9O00fMn1c7d8E7hxqfwEwZpz+Ga+clXGRxulmhMUQiyrutbH8x4M8Fn/c5HH2x4UjJmkexNEyz+FiuEsXF1cMV1+sYPk3ln/eppCLScghjYM42uMSMK7CWCThxCySySDXGHIkgrQH4miJB1tcsoWXMe7lcbgbzswZhATSGIijCcZ7adSRxUduCYT6RzsgjuS8DElCSWPhMYAsBqndbrAPxJGZ2RrxMsZX5vyBO7KDODKyxAz/wqeGS/mU8JEYxJGOc8xI54s3DJfaR+02ha0gjjw8lD/zW2Pmce62dgvDahBHFi45o/atbsQkkD951G5lWAniiM54K2g0a42J4Vw1JXqkAHEE51LPaNkZD8z6QB3RQRxRuSaNjqSxMAx368UgJogjJteKxvoNaE0xXIoeqCMmiCMad0mj9t1bm8UdJI+III5YjN3VNH4xF01JHtFAHGEYx8ZnXIu5jFqwRxwQRxCuSQNtvGMgeMQCcdTnGjVq353RuQQPtubXB3HU5k8aFDXWcg4erDCtDuKoyHgkahQwsC2/PoijGu1scnXnsjwdd1QDcdRhXEYote/AzPzJY1IH8qgC4qhAvmO7YkLuqAficGfKGjhDxZQ7KHf4gzhcuWSN2rdbS5A7aoA4HJm0gTMsONc7wA3E4QTLyW1hM60viMMF6houkDvcQBzmkDX8IHd4gTisIWs4wzyLB4jDElaUV2EpleIOSxCHHRQ26rFswq/dAxoGcdiw7JRHGxUZ2ApnCOIwYaQcWp/hQOwwA3HIOYeN2rcNTBA7jEAcaggboSB22IA4pBA2IkLs0IM4hBA2osIkixrEIYOwERoOSZeCODQQNuJD7BCCOBTMS71q3xewAlKHCMSxm5G0kQjerqABceyFsJGNgQHLfhDHLlhXnhHOC9sP4tjBOLL1NSsUO/aBOErhxSi5YXp2F4ijEEob6RkodpSDOErgfJ42YIqlGMRRAGmjHf7cgTkKQBwbYRtba3DOYAmIYyMj06/NQbFjO4hjA6SNViF1bAVxrGckbbQLqWMbiGMlIxvZGofXsWwBcayDNx10AKljPYhjDaSNTiB1rAVx/GZOG3ijDzjsZx2I4xekjc4gdawBcXyHQ3r6gyMGV4A4vkLa6BOqpL9AHF/glJ5u4ayfHyCOj5A2+obU8Q3E8QGO6ekelnV8AXG8ZRz/9WeN4e9WuXGa/9wx/fe1v6I3A3vuP4A43tD0XrarHv68cOHf9Gf55+8/3nK6/Of8v3zmapZmlUKp4wOI45VmixuLLxZVLIyF72Ke/r2LURaFDM2ukWO88g7E8cTY2K6U4d4WZ1+MszDG4+4bYly4xZI7iTTThpQ63oE4nmgpbZyNcY4W1i03i+iskbM+ajeAij91WLdeNhDHPS0UN4anAclYOhwpb8VLCLmvg9Ruln2wDP0ZxHHH+C99Bx8WXZxlcfk/dVpz+rM45JR/3T7jlUcQx5XMNdFrzHAalmzjYfiStvqBOu5BHGfy1kQvxhj9ByUbuJZRT2nPKBgoddxAHDMp987fx4zAynjgbuiSsPJBqeMK4phIqI1ZGdeYkag3j4/ho3Y7boTxyhnEkW99+TloZD/Qf5bHedo2UfujjhnEcUxV3LgPGrUbbjd3sy55LsFAqWOie3GkGaUse0zyB4033GqmSS4FoaN3cWSZSzkro5Gk8Uqy9R6Ejs7FkSJuDIdGg8YrY5rZ2u5DR8/iyBA37pJG7eZyIU/No3N1dCyOP2/U7ny/WM7b7q9/Lsmjduv/omtzdCuO6KOUW9So3VJVyBA8ut5v36s4gi/d4JDtiTH8wa9DtxepT3FEjhu3ReS1W6k+8Xe3dBs6uhTHGFobRI0nYgePTs8z7lAcYePGdVFo7RYKx7I4PWbFo9NKR3/iiBo3Op1AWU/c49l6DB29iSNk3DhvjkcbPwi7PqzD0NGZOCJqg6yxhaC5o7s16F2JI17cOO9bQxsbiJk7egsdPYkjXnVjkUZXHU7CXCyNp46eLmQ/4ogWN8gauwiYO7oKHd2II1jcOGeNfjqanuUEsUhXdegodHQijlBxYy5skDUUjMH2s/QTOvoQxxipd1HYUBIsdgy97F7pQRxjoGHK0OlCQ0tiVUo7MUcH4gg0TCFs2BArdnTxZGhfHGE20BM2TAkUO3oIHa2LI0rcGAgb1gRa3NHBE6JxcUSJG7M2ajdG+8R5k2fzl7ttccToRr2cUR6BMLGj9dDRsjhinEY8DJzM40uM2NG4ORoWx78A3uBArxrEOCS97SdGu+KI8Nhp/KkTmBDvzGl5r32r4ggQV5fSRu2G6JYIq9EbfnA0Ko76a0XbDqo5CPH0aLQTtCmO2h1mYPo1BAGmWFoNHS2Ko/psSqudJSP1U0ebnaE9cYx1vTEwkRKM6sWOJs3RnjjqPmEG1nrFo/aC0hYLHa2Jo2oXYRtbVCqnjga7RWPiqHpiz8A2tsBUfqS0Zo62xFFzFpa0EZ2xZupozRxNiaPiM4XaRnzGqrWOxpaRNiSOirMppI0sVBzLttVH2hFHvaM3SBt5qJo6WjJHK+IYq3qjnf7QAWO91NFQoaMRcVR7jPA2toTUO9q4nYdMI+KgI8AW6r0xo5UO04Q4KuUN3seWmFqpo5UVHS2Io9LTg7SRm1qpo40F6A2Io9KTg61s6al0TFgTKzryi6PK6o1WAmf31HnqNJA5soujSnmDY3qaoU6po4FRbnJxVFm90cBlhxv/qvSh7F0otzgqeGM+p6f27wYlVUod2R8+qcVRoyye/lEBr9QY8CbvSInFUeFqs5mtVSq8wSn3tGxicVTwBtpolgqbnVJPy6YVh3/eGE6pHxHwA/9SR+YHUVZx+D8fWF7eOhV23Oc1R1JxeHuD4kYfuO+4T1sizSkO7+kUtNENzqs6hqwl0pTicPbGkLqKBdvwHq8kNUdGcbhfWeJGT0yr0J37V+2fXEBCcThf1qRPBCjHOXSk7GHpxOF+UYkb/eG99S1h5kgnDte8we75XvF+PqUzRzJx+L47hd3z/eK7qCPfEyqXOFyXbzBK6Rvf0JHNHKnE4eoN4kb3+IaOXN0tkzg8vUHcAOfzjHOZI5E4HL3B2YCw4Bk6UpkjjzhcvZHpEoIpnv0uUbdLIw6/0MjZgHCPY+hIZI4s4nD1RpqrBx44nvGTxxw5xOFXpGKFObziFzrSdL8k4vC7bmmUD444PrmSmCODONyuGvvn4RNuoSOJOVKIw8v2xA34COZ4IIE4/C4Y3oAvuAXfDOaILw4vb6AN+IFX6MgwYg4vDr9rhTfgF5jjQnBx+Dmedx/ACpw6ZPznWGxxOM2n5DsNAWrhZ47av/Q7scWB3iEcTutIg3fK0OLw8kboKwTR8AkdwTNHZHF4XR+8AZtwGq6ENkdgcTh5A23AZlyGK6EzR1xxeHiDqiiU4RI6Ij/VoorDZT4Fb0ApPh00rjnCisPlsuANKKZvc8QUR+86hxQ4FDrCdtKg4nDwBnEDduJR6IhqjpDiwBuQA4eeGtQcEcXhcjUCz3RBHv76qnVnjVnBDyiOfi0O+XB4m3FIc8QTh/3aGmZhQYdDoSNifw0nDgdvUN4AIQ5vTwhojmjicPFG7R8JbdGjOYKJo8dLAOmxL3SE67axxGHvDYYpYIF5oSOaOWKJw9oblDfACPO5wCHWCDuSOMwDH+UNMMPcHLE6byRx2HuDuAFmmI+zQ5kjkDjwBqTGPDFH6sBxxGFcXmLVF1hjvhYsUOYII47ROm/gDTDH+ukXJ3NEEYdxaYnpFHDBvB9H6cZBxGHvjdq/EPrAuEQaxhwxxGHe2uQNcMK6LwfpyiHE0UlbQxfY9uYoRf4I4sAb0BS2JdIYw+4A4jCe/maYAt6Y9ugYZY4A4jD1c5RkB11h26cjmKO+OGwnVGLkOugN014dwRzVxWHcwngDqmDbr+vH6NriMC2MRjAzdIptz67+QKwsDrwBrWJsjsp9u7I48AY0i6k5ag/C64rDctoKb0BlbM1Rt3tXFYflpBXegOpYmqNy4b+mOCx30uMNCIDl4sa6XbyiOCwnrKrXjgAmLM/2qWqOeuKwjXF4A0Jgao6Kj8dq4jANceQNiIKlOSqWOaqJw645B/IGRMKwq9czRy1xGBY4yBsQCsPMUe8ZWUkchgUOvAHRMDRHrd5eRxx23mAbPQTE0hx1flEdceAN6Au7oflQp8NXEYfdhArHfUFMzMxRqcxRQxx2K0Zr7/wB+ERj5qggDrvURt6AuNiZo0a39xeHXfvVP90E4DNNmcNfHHaFUfIGRGa0MkeNR6a7OMwmpvAGRMeq81coc3iLwyyuUd+A+LRjDmdxmK38Im9ABszM4T1Y8RWH2ZZY9rVBCsz2rXivRPAVh5k3yBuQBKt7wPnR6SoOq5Vf5A1Ig1nq9r0JPMVhNhuFNyAPVnU+39vAUxxNNBjATszM4VnmcBSHUUTDG5AMK3N4Fkj9xGFUTsYbkA4jc3jeC27iaKCtAERY3Q1+s4te4rCqJeMNyIjRRIHfYMVLHDbeqPwaPIBSbDKH3w3hJA6jFRzkDciKVeZwuiV8xGE0pCNvQF5szOFV5vARh1UpyOXLA5hgEsO9Bisu4rAZqLBBBXJjU/jzGax4iMOoDoQ3IDkm5vC5MRzEYVU/xhuQHZNbw2Ww4iEOm6Ec3oD02DxUPe4Ne3HYFI/xBrSAiTk8Bivm4jDxBgu/oBFs7g97c9iLg8IowGdszJFeHCZ7YvEGtIPFLWJfAjQWh9FABW9AO1hMypo/W43FYVL6wRvQFDYFUtvvbCsOi5lYvAGNYTG1Yn2bmIrDZKCCN6A1EprDVBwWEYyJWGgPi0es7WDFUhwWRR+8AS1iYQ7TyGEojnwWBaiFQTnQdLBiKI584zaAWlgcymv5mLUTRzaFAlTF4EFreL+YiSPdoA2gKgZ3jOEyMDNxWPiTlebQMCbmsPqyVuKwGKjgDWgag5vGLKQbicNCngxUoG0M1oGZPW2NxGHQAngDWkdvjsFqsGIjDouBCt6A5tEndasHrok4TCKXxRcFiIWBOWwGKybiSDRUAwiFfh2YzS4NC3HoByoUOKAX9GUOk5vHQBwGFR68Ab2gv31M1j8ZiEN/hiJbYqEf5GUOk3cC6MVhMFDBG9AR8ievRWLXi4OBCsAu5AVSg0evXBwpdAkQGHmZw+AeUotDPw9NgQN6w6DMoTaHXBwpSsIAoZEXCuWPX7E49AMV8gZ0SPjBilYcCSIWQAL0ZQ5xcheLg4EKgAL9MziwOAw0qfx6exnPf6A94l1b9ZysOHIoxZFhFqmQ8Y9/478//v7HH7W/D8i4Xdp/oS6t/NhzbXqXiiN8KbiMqVednojX0WAL4+yLmddLG+Oayp/D0sewUBytDlReR5vD35/DMAyzP1BHPiZn/Cni7xIul/Px2kY5w0H9IJbeTzpxjPLfGWSg8vl3DRd5ED2ycM4ZV2m8JUrHEw9WpDeUUBziMnAUb3yfUp/+u7M+gnxd+Mx4VcbXvhok6sozvPKW0olDPiLLdPUmdZzm4FH768J7xvFsjRVdL8pYRf4wFt5TMnHIA0eQizeuXQw7EDzico0aq66lyQEWRYhXYgtvKpU4IqeqXWz7YX/uoOARjCVrrIoa18sYRv/i20o3JasSR+ipoz1sLPkO54pHlK/fPYs0tvbOQN1PbI5g4pAHjihZsWwV/UC9IwLnrFFyAcNcO/lgRfS9NOJQT8XGiYqFRqTeUZ8/a3yfdf3aAWt/+yvqwYqoT4rEETVQ7WbHL5vqHcSOWkzaKJPGfO3i9MBjzPqoRhxaK5q973I7+9bgDEuttPaP6I/1M6+fCFSlEj+VRTeXRBzNDlQEF22OHbV/Rl+Mq6fQv122OBdNfHtp7i6FONSV0UjXbP8vWyZZ4vykxjlXNprqhNr7SxOmFOKIWvgVILpkQ6Dk2zaCsHG+ZJF6ofQG0yxvk4gjZPVGguqnsbbDg6W0IbpigcQhPtRH8tME4hAPwQJlRGldaiB2GFO4ZuPD5YrUD8UzK4qftl8c4hFYJNOL9zVT7LCjeKnXR0JpXjuzogj1+8Uh9kYk0etfHE7qMEL/pvNQQ2b1I2z/03m3OBoeqBi8lo7UYcAykaK/UpEukzhy7P9tu8URToVC5IFj+Y2kDimyiZTn6xSrL0p/5P6Jlb3iUM8UhbqlbMTBojAh+trG7SqFEod22Lz/RtstjnDlXh36EscVUocGq7QxE0ocx2OsaL9THNoKRyzH61/38PBbSR17MUwbyxWKdX1iPaP3iSNafpIifyPO068ldexj1/bXNQS7PtqbbW+VY5841BWbhi/UO0gd5Sh2sv26PLH6o3ZmZe9Tep84xMtSdn0XOQaTsc+/mNRRyDgap4358sRKwOLBys7bbZc4tEWApi/TJ6bXhgX73fFxSBvna1P7lz6ifZTtu9/2iEM96Ap2A7mIg1rHdsyLG9dLE0wc2if1vl+3RxxS7UcbULqJg7nZbfikjeXCRBOHtE/uG4ntEIe2VhPnXOkLpnMqT78+jjrG6c8rxyDfzy1tzJxq/9xntPfcnk63RxzRNuxpMV3F8fr7TxVKHePZExdT/JtfyPyR8d9VIuPy7/p/Y7+4MRGt7CY2x56fVy4OaYUjXAHbehXHmxZwSx2LJBZO/04XhvnP9B/TPw9c/pvpnzN//+ZZJ34vrtv6QrbdhHkV5A3pXbfj5xWLQ+v+eKNJ+1UcL23gYI6LMhZTzKx7nerzdz0sQpkV8s/nrZej/fz4M3FGkFeUQXjP47pcHJFWoxjg30ut5lduAeOaLc7G2H0U+OGWSK4OMZKIydb5nz8wYL9UJuEdBYJycUi9ES5wGJwMs64lxD11ccap+JVm2779EkIWe4h/R5XrEVAc2ihc/vtKxaGtcMTzht9k7FNTSN7g9JgxigckJd//cB3CXPPH/osxxQ2f7//0a0L2TGnkKP0WheLQviw2oNdriUNQ6lheteyTMb7/kkv+2OsO/3rT9ScEFIf0BO3iW69UHG1XRv/4p/t9WymcX7kvfA7VrXHmHD92FD+c1pd/+PoRu2YIc5SKo+3K6NF1+ddrixQUrZZSxuyLGMp4ZBZIUfioUKW+I9wSsIkIVY4ycQQp0Bjiu/zrhfXjlbucESVlfOC+cro2e1SNGxPNd87STFUmDml9pvlrU9Qq65plHC85I7Qz7rn4Y9VVr6yNoOKIEDmKxKFd9xpxGCk+vL2E76HjsjgjfM54y61q+i16VI8bh6i9U5n4Cx/cReLQTsVGdHq9Ov5dy3xe3pIwaDwz/IweAbQRcu3ohDIQl7mxujhiZsEI4nh7tOA5aZycN21YcXHHa/IYvTcLvSfmc0169l5ZlaNEHBFqM8ZEeNhNPI1XrkkjcdR45rzp5WnCJUTcOEStwGk7aNFPLBBHgAGWOUG67Z052koaL1zcsdhjjJH4DjF3Q8zoGqhk8r9IHMoIGdQbAWqjV+bxyi1pNMtd8ogSNw6BxSGM/UVP7xJxKAPH9r/ehSgPvJmh4aTxzFQRjqONQ9ixtPY2LPiN28UhVV0HV2U/Q9tR44lgPzasOJSjuYKxymZxKIvdUUvW4hfGQGLCikP5BC94gG8XR+1yrgtxShxQmaijaWXkKKhybBZH5aGVE4gDzoQVh7KCvz1ybBVH7WKuD7V3qkAc4opDGTmsxaE8wCfoat4JxAEX4j7epFWOrb9yqziEI5U+rggkJ3A3Va4C2/oU3ygO6ZTKtr/ak0Drv6AyocUh66ebV0ZsFIduSiVwhUN8oiqkJnA/rVnl2CaOPiocJA64EXaR4kS9KscmcdSdOfYjzBYrqE/cVYoTup5qKg7hSCW0xxEHXAguDmGVY9Pv3CSOTgIH4oAbscUh7KrbxmRbxNFLhQNxwI3Y4lCOAjY9zOuII/jFCLWvG+oSvK/WqnJsEEfVFa6u1H0HEIQi9qi62uN8gzh0z+Ho14LEAVeid1bd83zTIrAN4hAOpoKnPxIHXIkuDmFv3TIQWC+ObiocJA64I7w46lQ5NohDV+EIfyUQB1yIe77lBeEj3UAcyqEU4oA0JBCH7tZcPxZYKw7hifXhLwTigBvxxaEzx4bfulocwgpM9MCBOOBGAnHoqhzrb8714hB9tfgVDsQBd2QQh+7uXF1GWCuOjiociAPuSCEO3e0pFoey/lLcPG4gDriSQRy6SsLqsco6cejewpQhcCAOuJFDHO7l0ZXiqLI4rRqIA66kEIeuyrE2cqwVh+hrhT7B8QrigCtZxCFbLaEUh7A0uqd1vEAccCWHOHRHga0sj64SR40FJjVBHHAlRVVOeY+uG6usEYewNBp/8dcEu2PhShJxyCLHyt+7Shze46fakDjgShZxyOqQ6w69WCcO0VfKIg4SB1zJIg5dIXLVD14jDt03SlHhQBxwR5LhtTAnr1oysUIcwtJokkvAKedwJY04ZA94lThkpdEsgQNxwI084tBVOVb84t/i0N1FWQIH4oAbecQhOxV4TXl0hThch04hQBxwJfrJ2nd4zsj+Fkdni79meFs9XEjUbYWLwH7+XY7iyGPuUfiyS0hOmgH2URg5BOJwrbhEgcQBFzL126PfzfpLHLLl5nkqHEfp67UhOanEoRoe/C7s/BRHf6XRI+KAG6nEobpdf5dHf4mju8VfC4gDzqQ4COKCqjw6/HzOe4kj0aTWBOKAM6nEIcvKe8XRZWn0j3+inw3ZSTXEPuoWgUURR7LmZwUYLGQTh2yI8ONJ/10cnitKQoE4YCFbz1WVR3/VFr6LQ7VTN1lpFHHAhUQLR2dk5dEft+wPcfRZGuUMMDiTaaPEgmjh1a8f7iSOZN7gKB9YSJeVZTftjzHaV3G4ze2Eg/2xMJNoh9UF2dP+69/yVRxdLjefQRwwk26QLSyPfv3l38ThVWcJiO6NEJCafF1Xdtt+d+Y3ccjmVPJZm90qMJNQHLryaLE4ug0ciAMWUvZdzY37fV7lizhG1brrdBWOCRadwyFr33WYV/kmjm5LoxNURyFr31Xdud/mVRzEkTHtIQ6YyCoO+3mVz+KQzakkLI0eWTsKh4zrRmdUZ+Z+u3U/i0N05yRte9aOQtK6/lFYHi0SR9eBgyVgkHL514L9vMpnccgWcVg0jAMsAYOkaVlWn/xy834UR9+l0SMrOSB157Uuj1qLI+soUbiMBdKSNXDItkxsF4du9VlWcTAh2z1ph9myyPG5QvlRHKo5lbTeQBzdk1gcsvLoRnGMqsnYxE3PhGznZH7qHUfjeZWP4hDNqWRueiJH32RdSTBjPa/ySRy9z6kcOZOjd7IuXVywnlexFUfqsMeEbOek7ryqdUgbxeGxoz8+jFV6JnN97qjbMrJJHA5r3TOAOHomuThUD/8PhZ734mBOZYZ5lY7J/tSTzatsEIf9urMcII6OyS8OyU38qdzwXhwuB6zHB3F0TAPisByrfBCH4m/M3/TMx/ZM8sq+qvt+uIvfi4M5laNu9SzkJHv/VVUqN4iDOZUJBiqdk70Dq+7j1eJQTcbmFjbe6J7s5hCVR9/ex+/EYRpxsoA3ILs5VOJ41whvxMFk7JEdbjCTep+b6PjP97Wed+Jg9Rcb3GAh8UFUR9m8yrs2eCsOyd+WWhx4AxZST61oig5vB2zvxMGcCvti4ULqfqwZcK8Uh+3mmAxQGIUrPAHfTsi+isPQUlnAG3Aj85jbbkL2jTh6n4xlQgUeyGwOyTs+3o0eXsQhmk8YTi7tYgGFUXgg89pz0fDhtQHeiKPzyVgKo/BM3vgsmVcZ3kSOV3EYLhrJAAMVeCFvpV91O68Rh+AvyluKxhvwhrTrwMymOl7EoRoUZW1oBirwhqwPQrN5FStxJG1nAge8Je1gxUscfa/iwBvwgbTmEE3IPn/sizg0qziSlkbxBnwi69tMJX36tWb5JA7VKo6c4mCpOXwka71fc0e/zJK+iKPjyVgGKvCFpIMVydNweJnteBaH3T7c+OAN+EbPj8OXW/pFHIK/JOlkLAMV+ErSyCEZq/wSR8dzKgxU4Ac5zWGztR5xXMAb8IucRX+TCdlncSj+jpSTsQQO+EnOyKEpcnwVh+WLGGLD6cSwgpTVO03XfvrlB4O/ImP1mdc9whoyjsJFE7JfxGE0c5MBBiqwhpxpWtG5n8LWozg0qzgSxjkGKrCOlE9FyYSstTgyLhtlCQesJGOelpQun374gzi6nYxloAJryThYUUyWmosjYcNyeg+sJmPkMLixEQdLOGATCadkrcXR6SoOpmJhAwmLeJpI/VEcmhpKvgNPCBywhXyPRk3x/yFp6cWRbghIhQO2ka+La1ZyfBCHZtV1ulUcVDhgIwn7uOLWfijuPIjD5Kig6LD2CzaSr8qhGUx8EodkIJQuxlEZha2kezOyfrvKnTg0r5nMJg4qHLCdbL1cMgHwELQO2s9OV3GmwgEFpKtyyG/u3sXBGg4oIF2VY7QUh+Cj0722Bm9ACdkekPIlYAfxRycb/FHhgDLSdXTJzMftA8XiSFYbpcIBhSSLHPIlYDdx6NeIxIdzOKCQdI9Iye39RhwGi8vCQ+CAUoZkEyuSZ+RdSfhOHP2t4qDCAeUk6+uK+/suF9zEIVn+lczCBA4oJtkEoiQYvBGHZt1oqooRIxXYQbKnpHhEcVB+bjJxsPgLdpBsEZgiXt/9ZLE4MjmYKRXYRa7IIdoge/m4qzj62xpLaRT2kay7S2sRN3Hs/9RkkypUOGAfuQK2pjp6+biLOPQnfUSH0ijsJFl/lyzUunycUhy5Tv+iNAo7SZawJUvALr/4cP3U/R+a6jX1BA7YTa7IYSGO/taNMqcCu8nV4yVrR03Ekcq/eAN2k6o8Kr3HL+Lobt0oIxXYT3ddvntxMFIBBb2F7Ovg7CwOzU6VPI2omZuC3km17Fw0c7p82EUcna0bJXCAhEx1PclaLcQh+MHQPZnmVaT1iLM4ensXE6VR0JCosCdddL6Io7sF54gDNPQmjsui80vi2P+BmQ5hHCXvkAF4eNdIdJSLznWJI1OBmTkVEJFqgB5UHGlakMlYkJFoZ6dy0fkijs4WnDOnAjJSPTB1q7UOug/MIw4CB8hIJA5JQDhXJJTiqNomW2BOBXQk6viSRedLQBCKoy/xAixkEoeilnknDu3ZQOFhMhaUdCaOU7/ioMQBQvrq+Y/i2P95eZqPyViQkmcBk2I68bxeaxJHZ+cGctooSMk0nyibVpkTR1/vm2YVB0jp7Jk5SMUx5KktM1IBKYk2WyiqmTdxdLZThZEKaMn00FQUOaaAhTgAdpJHHJrqqFYcWcZ5krfkAtyRRxyybW4ycSSqje7/tQD3pHlqisXR2aTK/l8LcA/iKCaNOFj+BXLSFPhGyb1+FofGQmmajtooqMlzmI+kLKEUR5q9sSz/Ajlp8raonnkUJo48LYc4QEyeOUXZRMhBdCulaTnJTmCAe/KsYkIcpVDiAD15loCp1mwdejuNA3GAHsRR/Fm1G2QtjFRATxpxKAqa88DsoHo3Qu0WWQurOMCALA9O2dqLQ29HnCMOMCCLOGQxQSOOPKdxsOAcLMhT45OcyDGqEkdX01EAz/QoDt0BpglgpwpYkEUco+pEjkNfp3GwUwVMSPPkRBxFIA4wIc1uFdUGE5E4umo2gGf6ugM6FAfrv8CCNHeA5tUqKnGkOY+ALW5gQqLBuuJ+14mjdnushMQBJvQ1r6gTRxLdkjjAhjziEN3vB82Jo2nEgTfAhK7EMUzi6Or8L8QBNnQljilxdHVwILOxYERXu7WG3sRB4gAj+hLHv97EQW0UbEgjDsXBEieZOGo3xloQB9jQlTiGf+PhX0/iGP/t/60Ab0h0eKbgx/YmDs7/Aiu6Sxx9HVW8v9EA3pHmHlCc+KcSR0+2BXhHFnFIjgr99w9xACjIIg5J4jh1Jg5OHAUrEEfB52QRB4kDrOhNHCeBOLpapw/wDsSx/WPSJA7EAVakWT0tGGMMp9OfOHY3WV9nEQC8oztxDAxVAHbTkzgOGnGQOADSiENwfOYwiMSRp832/laA9yS6CRDHVhAHWJHoJhCJY3eTIQ6APDfB/vnYSRyDIHFkeasK4gAzehLHQZQ4EAd0T0/iWBLH7iZDHAA9iePAUAVAQ5ol55LEMZA4ABT0JI4D4gDQ0JM4RIkjzbvq2VYPZvQkDhIHgIjuxCFosjTiIHGAFT2JY55R6SlxIA6woidxdJc4GKqAFYhj+6ekEQeJA6xIJA7B2V2SV6nmSRyIA6xII46jSBxMxwLsJs/bDBWJQzFQySQOahxgRRpxiBKHpDhauylWgzjAhjyJQyEOVeKo3RSrQRxgRBpxSIqjggZLJY5/kh8M8EyadwvJEoegOJqlxCGZwgZ4Q2fikJBHHEfBeWcAb+hLHKKhSh5xkDjAhkTiCDO3mEccDFXAiETiYKiyHcQBJuR58TqJowTEATbkmVocEcd2EAeYkOf9ySSOEhRv6gZ4JZE4qHFsB3GACSSOAhAH9E4mcZA4toM4wIQ8L16XFEc1d9GQps3+UhriAAMSiYPEUQCJA0xIJI44iSPR8I7EASYkOnc30O7YROJgIQdYkEgcnMdRAOIAE/Icn0niKAFxgAmp7gFej7CdMBVlaIo8tVFV4ujqTW6BVs1BUyQSh+jdsYgDYDd9iUP0QqZEFWXEASb0Jw4SB8Bu0rwcQSiO/SOeROLgzSpgQZ5JFZk4unp3LOIACxK9xy1QcTRV4uCVTKAn0YmjgRJHLnGwAgzkdCaOAXEACOhMHEvi6Ks4ijhATqaXIyh2iKsSR6JJbMQBBiTaqiI5WmI4SRJHKnFwIgeoSXUHSBLH6SDRT1/NBvBIqjtA8ehEHAD7SVXlkyUOwVAl0wiPIgeoSbUEUpA4ZEOVVOJg7SiI6VMcXR0BxlE+oCfTWF1xA8ziEESOVOJgfyyoySUOxYb4SRy7PyXV8hfEAXJ6E8dw0iSOVOJgmxuoydX/JVXNg2RWN1XDkThAS67+jzgKYT4WtKTq/5I9bogDYDe5+r9mAQbiANhJqlnFSOLIVRxi0TlISbXlQlLjG/79iUMy5KndGFtAHCAlmTgEs4rDv1EijkyHw7NbBcSkWnAuWcc0iUNyGyUTBxOyICSXODRDFZU4UrUc4gAluXp/rMTRXdMBnElW4lD0/tO/Y4/iYO0oKEk1pyhKHMeDZrNcLnGwWwV05FrFJBmoD6NIHNnajmkVkJGr84+SocokjlHyvvra7bEJxAE6cnV+SWliThyiKmvtBtkC1VGQka02KipNdCoOIgeIQBx7Gi+ZOBirgIpky78kD02dOLJZl7EKiMgljhFx7AFxgIh8XT+WOFJVlqmOgoxUgUP1AshexcGELIjItYpDFLZncShOBMrXfIgDJPTY86e5kINofiZZ8ylWvQGk222hWf+lE0c277KSAyRkq40KxdHjZhXEARqSrWDSFCam8cVBtKgh1RlgrOQADUOuVRxHzZESizhkM7upQBygIFu/l82hHnSLUFPBqnMQkG6kIlvu2as4mJAFAdlqe1pxdHgGGOIABUO6bq/a0qoSRz71Ig7YTZfPS7E4kjUhE7Kwm2yrOIQh4U8cOgtlguoo7GXos9fPtpzEoUjt6ZpQMwsNPZMucGhy9iAVR742JHLAPtI9LWXH+JzF0ePGeuZVYC/pZgSEiz1V4ki3P5Z5FdhLpylbmzjy2ZdjwGAffYpj0CaOdOM9JmRhH+k2uIlqo1dxaM4AS6df5lVgDwnLesLT/ubEoRv5pILIATvIl7GVRYk5cfQqDuZVoJx8VT3lNMgiji73xzKvAnvI2OF1Cy904ki3UZB5FdhDRnHoipmzODTF1oTJjbEKlJKwxKHclbaIo8uN9UfmVaCYjHMqyn3wSnHkMzCRAwrptrvrxZFwzMd+FSgkY0lPs8VtSVqH5SP73OZGeRRKSfmYFM6e6sSRcAXuUbOUDvpjSPYioQnpQk+hODKO+hirQAlJ43VQcWRMbyw7hwJSPiRF4lg+bBGH5MVwKYd9zKtAARnXHogKeg/i6HWb25HyKJSQs6srbvKLMs+JQyKOhDNUR8qjsJ2MpVEjcWiqo/UapRzGKrCVjKVR0YLz07M4Ol10TnkUNpOyNCpe5nkWh2ibW8b21KQt6IiUFQ7xxpKD8kOTNijigE3k7OeiUYWJOFKOVahywCZyDslFC84vv/0qjm4XnbO5HjaRNVhrbvHLbz9cPrbbRecsAoNNJH08Shecq8WR08VUOWADaTu5cMH5TRz9Ljo/EjlgA0krHKpocPk4xDGBOGAtSWcAtOtG78ShWXSetVEpj8I6ktbx5Dc44pihygHryBqqNQvO34mj47WjVDlgJXkfjeKVWmJxdO1jaJ+sHXxU399XcYhma4gc0DBpI7Vq//sbcWjO8knbsFQ54Cd5E7X89r6KQ6SktC3LYAV+krbCoV43ei+OrteOHtldDz9J3LtF542aiSPp8YETVDngB3krHKI8/VYcmrWjecMcq8DgO4m9IRLH3c19J45/io9OLA6qHPCV7vv28EEcms/Oa2UiB3whcYVD1LUtxZF2hcwE9VH4SGpviGqj78WhObA470qOI4MV+EzmgYrm9K8HdarFkXqswiow+EjiwCGaMfwoDv2nZ0NjZmiPrAdxLxjsJ3kQR+dLwI4s5oAPpA7SouLdgzvvxKFaApZZzQxW4C2pH4cW8x6I4xEiB7whd6fWL/96FIdmCdghdxuzmANeyD1QMUkEj+LofiXHkcEKvEKXPtiLI/dKDgYr8ELygYporvD0RRwiM6UWB4MVeCR9h7ZYZ/EgDtESsOTBjsEKPJC9P2vejfykz0dxiIocuZMdgxW4J/lARVa6/CoOJmQnMAdcyT5QkZUuH5vhQRyqkJ5dHAxW4Er2gYpqlcV3cZj8HQkhcsBM7j0qMzbrOh/FwUqOMwxWYCb/QEU2V/r4qTbiyN/azMnCoQlviJ6BP8Qxav6S/JEDcwAd+Y7nlngWBys5znA0B6RfWDAhWsXhIo78E7ITlDl6h2581xQ/xMFKjisUSDungQLH0WwD2uH5r9EE9JNbuxhCmaNr2vCGaEnSS/HhWRxGpZScYI6OaaFQd9St4vglDiZk76FA2i+NeMNmMtZMHG3EPMzRLy1MqBwNZztexKFaydFIu2OOPmkkMosmYw/DS2u8ikNzpzQxr3JkaqVTGnnuyQYQr+O2N+IQ/VU+DWMO5uiQVkbax6MqBqwQh2pCtpWmxxzd0Y43RHMqbwZur+JgQvYJJmU7o5GJ2AnRes43DfIiDt0ETjOtjzm6oiFvGN7Lr+Kwq6ekBXN0REsdVzWn8qZU/EYcTMi+gDm6oSVvqPZpvk7GvhcHE7IvYI5OaMobR9UM6VpxaG6Spi4B5uiCtryhigBrxSEKOE1dA8zRA215Q7Yz9t08xxtxWJZUEoM5mqehmcAJ1ZzKW5u+E4dsY0xTlwFztA4ddkOzvBWHylRtRQ7WkLZNK/vaLoymI4d34hBNyLY2VsEcLTO0ljdkk7Hv6z7vxSHaS95WqenILvuGaS1vWN/FH8TBvMp7VPEPYtHcsPpoOxn7SRyqFWftXQ3VlBNEorFp2BnjSuVbcegmZNu7HkyutEeL3tAdrPO+bd6Lg3mVL1AibYw2n2+ictynxjEVR5uXBHM0RYPTKTOiYPyp3PBeHMyrfIUSaTu8O92qBazvYGNxvNuQ2wKYoxHaHE0fZWuxtouDeZWvsKKjBVqNG8Jiw6dDxz+IQ3YESJtjlSPmaIJ2vSFbivXpyf9RHKrJnFYvDYWO9DTdOVUP/q3i0P3NrV4bZldy0+psyoyu1PCpjT6JQzVWaXReZYHQkZeG48bRvjT6RRyyeZVWy6MzLCNNSstx4+jx2Ecc+yB0ZKTtuOEwp/JFHMyrrITQkY7G44ZumdGXp/4XccgmdBq/SoSOVAytxw2POZVv4pAVZluPHMeR6ZVENB83lGWGz031RRyqymzjVY4JQkcSOogbR58Z0c/ioDy6BdSRgS60oVtfVCiOo2pNdfNjlZk/c6CO0AzN7mh7RLUZ4sucyndxyMTVg+YJHdHpI24IA8fXocJXccjM1cUFW9SBO0LSR3FjRjerUSoO2QqFLqocEyOpIyaTNjrxhmyg8H366as4XDJPW0z7mVFHLIZeihsLPrvMvolDNq/SSXl0YfxH6ghFT2ljfnKJ2m2HOHTzKr2ML2codQSio+LGjNcw4bs4ZF+ip8gxlzpIHSH4s0ZPceMoPA13nzhU36KnMeYMqSMAfdU2Frye9d/FwbxKOaSOugxz2qjdC7wZ/6ma70fb/RCH7ETevsYqZ0gd9eistHHBbT7juziE36PPy/iXOogd/gynHtPGUVka3SkOyqN7YUmYO71NpNzhV1twE4dHlWP849/fU35m+n9E6D7TalKGLG4MU9oIceFrIDsYZrc4EpVHJ2Oc7vkXZiqO2OFFv2FjQlZZ+D1A+CkOmcMsxyrzwonT9GD/4zB94/n/Nlz1UbszLcUO5GFK32FjQieOn/r9LQ6/71LMt0UTQ5hKGUs7TOm4snHBrzT6WxzCiWGrxTi/b8hhcUfth9G52oE85AyEjQnd64x/K/inOBzrLWWsrMIsXcvkG2z5siwL09PnUq83yHrWilv1tzhUZxYbVTk2xLPlqVS7h53LHdhDwjBEGYnWR1bhWHOnrhCHzGMW4thWgxlCDIRHcoeIob9NbJ/RzWOsKUeuEEfo8uhmrQXpapfcgT5KIWs8oVs5saYa+Vscysihr3IUxLMQqeOSOwgeRQQpd4fCNXCsEYfwG307b72MsnFdlAr8ZZ6F4LGBgTmUd+gqHKtmMdaII3J5tDAOhTmpYbwED9SximvUQBtPuJZGV4rDc5pnI8UVoRjjlYWlWHpe8wofGJbaNlHjLcLSqE4cuvKoPnIUT08EKXUsXIIHyeMDS9IganxEd2Tguiy+RhyhI8eeCkwgc8zMJY8TyeOB4TY+qX19IiO8RVe18ypx6MqjcaocSyMFU8cSPIgeV+Z9iv9C7FOMjXNpdK04dOXRQX/9d4W0YOZYYNgyc7ZGwAsUD/dH+0pxeAehLewqC4WZXnniPnr0JpDbeQgEjZUIb1CtOIRCM1gEtuvbBTXHQofZ45IzMMZ6lFMqK5/s68RRwWhb2G2OwJ30ruzRcvi4HLtEzihBWeFY2fQrxSEcQxlUOfYa1/CMIR3j2G7V9FIDRRhlCO/OtfF7rTgqOG0Le82R4wz2u/CRf6X67XDH0z9ixi5044H1s57rxRG5ytGLOa5c4kfWgz3Ozjj7Ilfbh0NYgVx/H6wWR40vt4WdB4mHLpG+5b74kWmP7UMpA2UIEI4G1i/QXCsOZeSwqHJMN9K+b5jOHDPL4zrRsUCLoRGGkCrP9PXiqFCA2cjO2yf05Mp30okDdNS5M1eLQxiIzB7uO3fjZTWHsOd4kGIOKw+6LaibNoRsEUfwKsfEvkdvTnMk80a+SnRsKt2X68UhfGuDUZVjYt9dlDFGp/PGtGoDc8gQXv4t3X+DOBJUOY57Z1fyZY583jgwWhEivSs3XJUt4tDtkbV8key4Sx3ZModyhOsI5hChvP6bxgEbxKEsj5qG1Z7MkWg+5Z4Bc2gQVji2Pc03iaPScGo7e9SRavwtdLkzyQQdFeEtua1+sEUcysebYZVjZoeJE5kjZYFjgQKpgnoLujeJQxo5jPtNeejI06UTeyNTMwdGuYZj2+BxkzjSVDnOX7bUHFnG35m9kaiZ46KscG28H7eJ4ygUh/VgZZpeadscOSdUblDm2IvyybHxYmwUR7VaTBE7zGH+3fajLKjXgcHKPqQDAFtxSGd/PMxR+H0zdOncA5WJJMkuKsoS1+ZLsVUcyvUmHndnoTniV+72niIQAsyxh4oVjs3ikC4ccBkQlJojepduwRs5kl1YlIHDXBzSgOzSbUrfZx/cHPkHKhMpiklBqfsM3y4OaZUjrjmCHziTd8noI7FbOTLSCsf2R/hmcWi/r0u3KcwckWN06qVf98QvJkVFGv23P8E3iyNflaPUHJEfhtmXcNxgsFKGNHIW2Hu7OPJVORo0RyuB4xA72AVG+egokXdlcXiVIIvMETdGtxM42GBfhnRSreQJWSCO6t+5hDJzBI0cbUzFXggc7OJS/eldIg5plcPrqV4yGxQ1cjQ0UDnE1XNkalc4isRxPEojh9e9WdLWMc3RzJTKmZCNHBppDygTd5E4pF/brduUFAZC9ulW1nBcoMqxFemBkY7ikI6x3ZJqiaYjRo62KhyH8Gvt4qG9/8q6eJk4pFV9v3uzxBzxnoaNDVQOVDm2oq1wlPXwInGox1huZY6Crx0vcrQnjoCNHBlx4C9r+zJxaDuvX1ItUHW4yNFahWOCscoGtLXx0rRXKI4Ioyyn7x2sU7c2pTITzs6RkT45iu+9UnFIqxyOY9yC7x0rRzdXGp0JZufIaMsExRvUC8Wh/vp+kWP79471OGwxcFAe3YD4kV3at0vFoe3AsQcroczRYIVjIlasC4w2cW56XewDxeLQ/gDHfrN9iBhpMUeLpdGJQE0cmygP7HJxBIlM2ylo+jCRo8nS6ESoVBcX7RHVe1beFYtD3Id9ThFcvnjiwUqbpdEDq0dXIh6o7OjW5eI4jtI+HHqwEqZ419BBHI/Yv9ivCbT3XHmFY584pJ3Ys+MUzKzEGIM3O1KZWrh24yZAvPZrT6feIw7t488zcmQ1R6ul0YkQDRwbcV1x1+hwhzgi+W/rN09a5kAcXROnwrFPHOIRd+zBSgRzNDxSCdG+wRFf/n2m3iUOsQGDR476df9m51QmYgwGIyN+TlcUh/YkImdzbP9+1Xu2trmDEUDMsVE/pvc19z5xqMNT8MFKZXM0PVKJM+UdFe3V3zsy3CcOdbUu9mClujkaLo0e6rducMRLePY29l5xqCOH4zbZklPPqxbwWp5TmUAcXxAPU3fHu53iCPd71lPkvKpPRe2ywXggji+IByq7qwJ7xSGOHNHrozUzR+MlDooc3xCnzf3deK844v2i9d+86Easlzk6EAeR4wPqifj9nXi3OMJlqA3fvOhqVOveTU/GTlAd/Yj4mSHIdvvFIZahZ+8puxyV+rd4a1BAWMnxCXWsF/RggTjUU7KeJ3NUa/eCL9v6SIUjiz+hvvSK/rtfHPrxl+Ngpeybl58NvYOm15svUOR4j/qRobjBBOKQD8BCn1x8/or+z8bWV3EcKHJ8QD5QiSIOeZJyXMxR+s39M0frqzgmEMcb1LeXJtcpxBFTicbf3P3p2H6JA3G8RX3hNY0sEUfiwUr5N/cudPQgjj2HYLaKejJNtMxOJA5x4c7xBfbl39zXHB1MqrB29A3ygYrooawRh3qNgeNgZc83//Nb+DpuKhDHM/LnherO0ohDX/J3G6zs+uZ+oWNsft3oBPOxz6hvLJmaReKQ1/z9utA+pbuZo/l1oxOI4wl1zhxkVSSZONQPRLfBys5HuVPo6GKkwkKOJ+RXXWdmlTgSD1b2jiLtKx3j2P5GlRl2qzwiz/G6m0omDvl0oVts3a28wTZ1TNYYesgbB3arPCKvawmLzzpxGAxWnMyx/4tP5jD5suOiDUVzpqDGJqCw6AcqwhQvFIc8TXsNVgRZ6S90WPT58d+/Uzdp4zC/ehpxXJGv3FHmOZ04DJYoOfUijdnlqWOctNGPNGYQxxX1cRXiVTJCcejro17dSPTFp9Qh+sbjOWt05g2mVW7o59GkbSsVR+hs9e2Ly4yniR1TXaO3rLGAOK7IJxu0j2GlOGJXc76hu0jDEjtKv/a4RI0Os8YC4jijrxiKm1YqDv2ZEU6DFfHrfIfCIct5gKL8LtlAHAv6gYp4H5BYHNF/rtP3nnLHnzz+ksea+2Ac56AxJY2eplDegjhm9KN+dZbTisPgCH+fnmSxMHMZtfwcttxGJ/qvkA9O5Jiw8Ib4CSwWh37u2WfUa3Sg55w8JntMjNOfJV1Mf86cTh2XNF4hcUzon2Py5K4Wh/4O9BmsGB+T82eG0yyRO4ZFFyjjHhLH0eQmkgtZLQ4TWTp0JofztYZJH2fQxQcQh0mlUL+uQS4OgyPuPFZz9LFtPT6Iw+IOMkjtcnFYlAs8Br597FsPD+KwyOwGN5BeHAap36NA2sVhwPFBHAb7kywiu4E4DOaSPMociCMC3R9XbDBmNrl7DMRhMlix709UOSLQuzgsChwmed1CHDkHK52czheczsVhMWC2aVITcVjELQ9zEDmq07s49A8vo2G+iTgS/f57EEd9+haHxXDZ6IlrJA6De9C+zEGVoz5di8OiA1o1qI04Mqnz7ktT5ahO1+KwKHBY3TVW4rAYrNiXORis1KZjcZg8t8zuGSNx5LLnFaNNsrCansVhcbSDWXOaicNmvGb9yjQiR2X6FYfJDWP3qLUTh4VAzd/Xgzkq0604TCrzhhHdTBw296D51Ar10br0Kg6Tu8WyMe3EkS17nSFyVKVTcdh4w/JmMRSHzUGe1uZgsFKVTsVhEnRN47mlOEye3vYFUgYrFelSHKNJgcO2KU3FYdQexuYgclSkT3GY3Ce22dxUHDYJzLpvMVipSI/iyFfgOFqLw+bpbV7mYM9KNToUh82DyrohjcWRMYSZnN4G6+hQHDbesL5HjMVhcw86mEP/pWEN/YnDZjhvvmzBWhw5fUqZoxbdicPmGWXfjObisCkYWE+tUOaoRG/isJn8dzj1ylwcmAM20Jk4bKppHq8TsRfHcTRpG/NJWcxRg77EYdTJPF5g5iEOm4KB9U5ZCqQ16EocRt5wedmygzisBivWO2UxRwV6EofRE9XFGy7isKoAMSnbHh2Jw2rqzmOg4iUOI7VijuboRxxm3vBpQRdxYA5YST/iMOpbPgMVL3FY7VW33ymLOXzpRhxG2xo8ZmJnnMSR1q9sW/GlF3FY9SungYqfOKxGdOYdjfUcrnQiDqteZX6a9xUvceRtKjKHJ32Iw+pmcBuoOIojbzgjczjShTjM4rfbQMVTHGaFRntz/BtQhxM9iMNs77XfQMVVHIbtZf7NmVxxogNxmN0Hrm3nKA67zO9hDjKHC+2Lw84bfgWOo6847N48YG8OjvbxoXlx2HUkV2/4isPuzQP2jUahw4XWxWHoDd+W8xVH6mZjuOJA4+KwvAFcA4ezOHIP8MYTocOatsVh5w2vLSpXnMVhVyB1MQehw5q2xWHnDd8Cx7GCOOxmNj3ajsVgxrQsDru+7+8Nd3Fkty6hw5aWxWE3MVeh1fzFYffQ9vEu6rCkXXFYZm3vAsexhjgaMAfqMKNdcdh5w70wOlFBHHbrwLzGeiOlDitaFYflrgX/Asexjjgs5evUiH/9AHdY0Kg4DL3huSX2jiriMFy/7VdfZrxiQaPiMNywUKnFqoijDXPMqQN5aGlSHJbjlCoFjmMtcViuh/Cc02aGRU2L4rDcIFnLG7XEYVggdTYHsUNKg+Iw9UaVwuhENXEYPqt9W3MkdghpTxy23qjWXLXEYdqevluMx3PswB4CmhOHaT+vNlCpKA7TbR/uCW5kflZDa+Kw9Ua1gUpNcdhuGHPPcNfcIf9Rw2DxqUFpTBzNeqOmOCwLpFVGf+Oor5UOw+l0+vevm5ML2xKH7WWr6Y2q4rB9M2udutEteAyH8k4znGPGMEnj3ziariAKRVPiMM4bVZuqqjhMzTFU6oPjzKSPwuwx++JsjImlpRBHOmx3NNX1RmVx2N4PNXYbX5ncscjjzGH588L5v7hydcbDxyGObBjvhKzdUJXFYTsIrDhbNf22a/iYDTIx3DyySGL6c+bfNWJM0nj+4ogjG7are6o+FCcqi6Npc9y4CmTmdPfnzG1M8gHEkQvjVYH1O3ZtcRgPBKvOWD0wp4jxLVO8+PU1EUcqrL1Rv1tXF4e1OaqrWQPiyITxy4YDeCOAOGwnZUM0sgDEkQjjVTchunQAcZjruYW+iDjyYL1aL0SHDiAOe0E3MFxBHGmwPpA2hDdCiMNB0enNgTiyYOyNIUjVLoQ4yBw/QRxJsD6cJYg3gojDPN5Fae5iEEcObOt1QQqjE0HEYW+OKA1eCOLIgPlhcHG6cRRxmO6xj9XkRSCOBNgffhCnE4cRh/3gMEY1uhDEER9zb0TqwnHEYT48DDKPVQbiCI/9e0EjdeBA4rC/ORJPriCO4DicdR/JG6HEMY7WTZ93cgVxxMbBG7E6byRxOBSXhtP33ethQRyhMd42sbRMqJ4bShwu5ojV/mtBHJGxL29E80YwcWCOTyCOwHTojWji8DBHuGuwBsQRF4dXgMbrs9HE4WLvOMtoVoM4ouJQ3gjojXji8DFHuu6JOILi8aqsgN4IKA7M8Q7EERMXb0RMyAHF4WKOiBL/BuKIiMPqjaDeCCkOD3OEjH9fQBwB8ShvBPVGTHF41KmTzcsijniM2veLf2iQmN4IKg6XzJFq6wriCIfH0y2sN6KKw+eqnKJelVcQRzBcyhtxvRFWHF4+z9JPEUcsPGZTInsjrjjczBH20jyAOCLhEzdCP9fiisPHHFlmVxBHIFxmU2J7I7I4vMyRInQgjjg45Y1YB/c8E1kcfoEwvjkQRxictBG8W0YWh9s1in2JZhBHELziRvROGVscXlcp9GhyBnHEwGWB0SF83oguDrfMEd3viCMEbnEjfH8MLw63SxV4ynwCcQRg/OewxnxuhfDeCC8Ov8wR+2IhjuqMXsOUBCPnDOLwM0fk0IE4auM3TMngjQzicDNH5NCBOOoy+qwxn5sg8PPrRgZxOJoj7DpSxFEVv7iRxBs5xOE2CRb3jU2IoyZOa8znBsjhjSzi8DRHyNCBOOrhGDfSeCOJODzNEXPbG+KohmPcyOONLOLwHK2EDB2IoxKecSORN/KIw9McAS8g4qiDZ9yImXU/kEcczuYIdg0RRw1c40Yqb2QSh9NxbZerGCt0II4KuHa4XN5IJQ5vc0S6kIjDHd+4kcwbucTh/QgItPQXcXjj29eyeSOZOPzNEWU5GOLwxTluxN9G/0wycRzH0fc5ECV0IA5XPAvxy89O5o104nDcuLJc0SChA3H4MXrHjVjltHXkE8fRc2Z9IsRVRRyObe0cN2IfZ/6BhOJwv7Cnf/XVgTiccI8bcYbDm8goDvcRaICXzCIOH9y1EW3B0FpSisPfHNVHoYjDA8fjeq4/OKc3korDe5J9PlewqjoQhwN/zyP3blV/FFxGUnH4m6Ny6EAc1vgXNzJ7I604KgxGq6oDcRgz9aeeOtRe0oqjhjmmdTqVrjTisKVKb0o5nXImrzgqzLdP17rSxUYcltSIG2nLoguZxeE/uXKoFi8Rhx2e51Le/dLU3sgtjgol0lrzK4jDir+0UcUbecsbM7nFUcUcVR4WiMOIGsWNQ5B9DHtILo5K130qdfheeMRh06x1tJHfG+nF4b/nrc6lRxwGVEobuadTzuQXR5US6XL1Hd2BONSMlYobbXijBXHUMofrBAvikLdopV6TfTrlTAvimEqkdTrBye2YH8QhZaxV3Jgm5VrwRhviqDZY9UsdiENJtSdN6lXmD7Qhjrrm8EgdiENGjd1s15/XijdaEUetFR1zZ/DoDYhD1pL1tJF+1dcdzYijojk8UgfikFAzbWTeRP9KO+LwfT/wS58wTh2IQ9KK0wRstZZsZpgy0ZA4Ks6wHcyXdSCO3VRNG42s3rjRlDiqrehYeoZl6kAcO5mXe9XsHS3FjWNr4qhwauRD5xjMUgfi2EXltNFWeWOmMXFUnJc9dxCj1IE4dlA7bTQ0C3ulNXHULXQczNSBOIqpnTZaWWT+SHviqDq7MncTgzppxblmX+SRvnraaGw25UKD4qhuDoNoWrXq64lYHON4qt0X2vRGk+KoXeg4zKlD2V/qnIpZA2Wqn3ey1W63BssbM02KI8YTWqiO+hnKDdlqh/qljYkWyxszjYojQOhYDhjUuCOCB31QzVsGKG0c2o0bx3bFUX12Rdpzxm4Ch+YRXeU9Ke9+S1OLRR9oVxzTNsjaPecyxbL3XuhlTmVi2NtYU2kjxEOj4bzRtDiiVAb2d6BuJmMn9q7kqLlt/oGWtdG2OIIMVy7FjuJuFESATuwZq4whJlJmmo4bx9bFEedZvSd29FManSkvj4YJG63HjWPz4ggxu7JQHDvCyM+JssgRKGy0HzeO7Ytj6lBBelNp7OhqoDJT0khxrNHeFvp3NC+OSKGjKHYE+vZebNPrONZ72cE7Oogbxy7EEWzB9hw71vesUN/diy0zK5GGKBN/I60OvNGFOGqf7/PMeW3Hmu4VKS05svahHS1stHhizwf6EEe0wD+s3ATXqTcO60Yry9tfIz0SOhmmTPQijniRf1bH19gx9rWA45Ef47lxrPfS6I+08nrHNXQjjoBP7+HrkT/RQrg3Xx/e8bLGoae4cexJHAFDx+H6LqfHDjfOg/eA39aXD4ksXmFjoaO4cexLHAFDx+F85s90i0zMEXzZpRXteVqBa9PcrmDYxukqbhw7E0fM0LHcIH93yJlThJMkojCr46LVpXVCtk3LO+jf0ps4QoaOudwxc1r+R+2vE4lzuyx/gjZOb3Hj2J04jlFDBySmr+rGQn/iiFnpgLR0GDeOXYqD0AFCeowbx07FQegAEX3GjWOv4ujvkAswoVdt9CuOKAdhQ17aPo34B92Ko7ejPEFOx9roWhyEDiin67hx7FscFEmhlM610bs45nM6UAdsZOhuhfkLvYuD0AGb6T5uHBHHMdq5ghAd4sYE4uj8pC3YyKozH9sHcUwwXoF1MEo5gzhmom63h1Bse7NF0yCOMyOlDvgOxY07EMcVQgd8g+LGPYjjDtQBn6C48QjiuCfm8dlQHYobzyCOJzAHvEBx4wXE8Qxb3+CB3rezvQdxvEKpA26gjbcgjjdQ6oAz317S2TWI4y0jRwvCoduTiFeAOD4Q713o4AzFjS8gjo9Q6ugbtPENxPEFJli6ZaC48R3E8RVSR5+QNn6BOH7wj3fH98Zf2sAbv0AcPyF19AXLy9eAOH4zkjq6gbSxEsSxBs756QTSxloQxzrmCRbc0TQDCzfWgzjWQupoHNLGFhDHejhdsGFIG9tAHFsgdTTKvNwLb2wAcWyD1NEgpI3tII6tsOe+LQbSRgmIowAGLO1A2CgDcZQwpQ7ckZ9ptRfeKAJxFELqyA9poxzEUcrIUT+ZWdaW441SEMceiB1ZYbXXThDHHsZ5igV3JINTevaDOHbCmrB0UNoQgDj2w7b7PFDaEIE4BIwUO5JAaUMF4tCwpA7kEZiBQ3qEIA4ZrEUPDWMUKYhDCLEjKIQNOYhDykjsCAjb2PQgDjXEjlgQNkxAHHqIHXEgbBiBOExgaUcECBt2IA4jWI1eGQ7oMQVx2DHy0upqDCz1sgVxWDJy4k8NzmEDbxiCOKwhdjhD2PAAcZhzjh3Iw4FhOQwQbZiDOHwgdzhA1vADcfgwkjtsIWv4gjg8YWGYEWQNbxCHK3+xg9whZsoaaMMbxOEOyzuUkDXqgDgqML9ZgZ1wexmWrMGi8hogjkrwWpa9kDVqgjiqcZlnwR5bGQbqGrVBHBUZWZNewnXiFW/UA3HUhoLHeogaYUAc9SF4rOQcNUaiRn0QRxDO53f8BQ/88cowZw1WhsYBcYRhnGB52Bsuy8nRRhwQRyyuUy3YY2I4EDVigjjCMe+HY6L28jYUokZIEEdMbos8urTHcLEGyggK4gjLJXl0V/Q4ryQnaUQGcQTnssyj9t3sBEEjCYgjOuOSPNpfJTYHjXPSqN3o8AvEkYW2jxBjo2syEEcebtGjneyxrCEnaKQDceRjyR4NhI9rFbR2i8JmEEdG7rJHwsViw13MIGckBXFkJuFasduqrtqNB3tAHMkZn9NHQIcsC8eJGS2BOJpgPO/NDzhrezlD4+ILlNEEiKMp7uPHOX9UWbR+ThgPGQNjtATiaI8lfjzM3fplkOFxgnU+dQdltAfiaJqrPy4hZPpzz2FOJMNhbSwZbn/uOF3CxSVgkDBaB3G0zng8B5CFfwt3JnnQyKtAniXxaIrzx43/zh8//121fzLYgzi6Y7LH2R+nB3ss6ePwrI+ngEG2gD/+AxQ5idyu8BArAAAAAElFTkSuQmCC;fontStyle=1;fontColor=#000000;" vertex="1" parent="1">
                    <mxGeometry x="40" y="237" width="91" height="91" as="geometry"/>
                </mxCell>
            </root>
        </mxGraphModel>
    </diagram>
</mxfile>
